%TF.GenerationSoftware,KiCad,Pcbnew,(6.0.5)*%
%TF.CreationDate,2022-06-13T21:30:09+05:30*%
%TF.ProjectId,pcb-dev-dsPIC30F3011,7063622d-6465-4762-9d64-735049433330,rev?*%
%TF.SameCoordinates,Original*%
%TF.FileFunction,Legend,Top*%
%TF.FilePolarity,Positive*%
%FSLAX46Y46*%
G04 Gerber Fmt 4.6, Leading zero omitted, Abs format (unit mm)*
G04 Created by KiCad (PCBNEW (6.0.5)) date 2022-06-13 21:30:09*
%MOMM*%
%LPD*%
G01*
G04 APERTURE LIST*
%ADD10C,0.300000*%
%ADD11C,0.150000*%
%ADD12C,0.254000*%
%ADD13C,0.080000*%
%ADD14C,0.120000*%
%ADD15C,0.599999*%
%ADD16C,0.249999*%
%ADD17C,0.200000*%
%ADD18C,0.100000*%
G04 APERTURE END LIST*
D10*
X135428571Y-120278571D02*
X134571428Y-120278571D01*
X135000000Y-120278571D02*
X135000000Y-118778571D01*
X134857142Y-118992857D01*
X134714285Y-119135714D01*
X134571428Y-119207142D01*
X136964285Y-122035714D02*
X136892857Y-122107142D01*
X136678571Y-122178571D01*
X136535714Y-122178571D01*
X136321428Y-122107142D01*
X136178571Y-121964285D01*
X136107142Y-121821428D01*
X136035714Y-121535714D01*
X136035714Y-121321428D01*
X136107142Y-121035714D01*
X136178571Y-120892857D01*
X136321428Y-120750000D01*
X136535714Y-120678571D01*
X136678571Y-120678571D01*
X136892857Y-120750000D01*
X136964285Y-120821428D01*
X164928571Y-115678571D02*
X164071428Y-115678571D01*
X164500000Y-115678571D02*
X164500000Y-114178571D01*
X164357142Y-114392857D01*
X164214285Y-114535714D01*
X164071428Y-114607142D01*
X131928571Y-136678571D02*
X131071428Y-136678571D01*
X131500000Y-136678571D02*
X131500000Y-135178571D01*
X131357142Y-135392857D01*
X131214285Y-135535714D01*
X131071428Y-135607142D01*
X132028571Y-122178571D02*
X131171428Y-122178571D01*
X131600000Y-122178571D02*
X131600000Y-120678571D01*
X131457142Y-120892857D01*
X131314285Y-121035714D01*
X131171428Y-121107142D01*
X136964285Y-131035714D02*
X136892857Y-131107142D01*
X136678571Y-131178571D01*
X136535714Y-131178571D01*
X136321428Y-131107142D01*
X136178571Y-130964285D01*
X136107142Y-130821428D01*
X136035714Y-130535714D01*
X136035714Y-130321428D01*
X136107142Y-130035714D01*
X136178571Y-129892857D01*
X136321428Y-129750000D01*
X136535714Y-129678571D01*
X136678571Y-129678571D01*
X136892857Y-129750000D01*
X136964285Y-129821428D01*
X186428571Y-123678571D02*
X185571428Y-123678571D01*
X186000000Y-123678571D02*
X186000000Y-122178571D01*
X185857142Y-122392857D01*
X185714285Y-122535714D01*
X185571428Y-122607142D01*
D11*
%TO.C,R6*%
X172788333Y-139574523D02*
X172365000Y-138969761D01*
X172062619Y-139574523D02*
X172062619Y-138304523D01*
X172546428Y-138304523D01*
X172667380Y-138365000D01*
X172727857Y-138425476D01*
X172788333Y-138546428D01*
X172788333Y-138727857D01*
X172727857Y-138848809D01*
X172667380Y-138909285D01*
X172546428Y-138969761D01*
X172062619Y-138969761D01*
X173876904Y-138304523D02*
X173635000Y-138304523D01*
X173514047Y-138365000D01*
X173453571Y-138425476D01*
X173332619Y-138606904D01*
X173272142Y-138848809D01*
X173272142Y-139332619D01*
X173332619Y-139453571D01*
X173393095Y-139514047D01*
X173514047Y-139574523D01*
X173755952Y-139574523D01*
X173876904Y-139514047D01*
X173937380Y-139453571D01*
X173997857Y-139332619D01*
X173997857Y-139030238D01*
X173937380Y-138909285D01*
X173876904Y-138848809D01*
X173755952Y-138788333D01*
X173514047Y-138788333D01*
X173393095Y-138848809D01*
X173332619Y-138909285D01*
X173272142Y-139030238D01*
%TO.C,Y1*%
X157083809Y-118501190D02*
X157083809Y-118977380D01*
X156750476Y-117977380D02*
X157083809Y-118501190D01*
X157417142Y-117977380D01*
X158274285Y-118977380D02*
X157702857Y-118977380D01*
X157988571Y-118977380D02*
X157988571Y-117977380D01*
X157893333Y-118120238D01*
X157798095Y-118215476D01*
X157702857Y-118263095D01*
%TO.C,U1*%
X147179836Y-128883835D02*
X147752256Y-129456254D01*
X147853271Y-129489926D01*
X147920615Y-129489926D01*
X148021630Y-129456254D01*
X148156317Y-129321567D01*
X148189989Y-129220552D01*
X148189989Y-129153209D01*
X148156317Y-129052193D01*
X147583897Y-128479774D01*
X148998111Y-128479774D02*
X148594050Y-128883835D01*
X148796080Y-128681804D02*
X148088973Y-127974697D01*
X148122645Y-128143056D01*
X148122645Y-128277743D01*
X148088973Y-128378758D01*
%TO.C,C7*%
X167098295Y-138043150D02*
X167098295Y-138128676D01*
X167012769Y-138299729D01*
X166927243Y-138385255D01*
X166756190Y-138470781D01*
X166585138Y-138470781D01*
X166456848Y-138428018D01*
X166243033Y-138299729D01*
X166114743Y-138171439D01*
X165986454Y-137957624D01*
X165943691Y-137829334D01*
X165943691Y-137658282D01*
X166029217Y-137487229D01*
X166114743Y-137401703D01*
X166285796Y-137316177D01*
X166371322Y-137316177D01*
X166585138Y-136931309D02*
X167183821Y-136332625D01*
X167696979Y-137615519D01*
%TO.C,JP1*%
X175441666Y-132862380D02*
X175441666Y-133576666D01*
X175394047Y-133719523D01*
X175298809Y-133814761D01*
X175155952Y-133862380D01*
X175060714Y-133862380D01*
X175917857Y-133862380D02*
X175917857Y-132862380D01*
X176298809Y-132862380D01*
X176394047Y-132910000D01*
X176441666Y-132957619D01*
X176489285Y-133052857D01*
X176489285Y-133195714D01*
X176441666Y-133290952D01*
X176394047Y-133338571D01*
X176298809Y-133386190D01*
X175917857Y-133386190D01*
X177441666Y-133862380D02*
X176870238Y-133862380D01*
X177155952Y-133862380D02*
X177155952Y-132862380D01*
X177060714Y-133005238D01*
X176965476Y-133100476D01*
X176870238Y-133148095D01*
%TO.C,C5*%
X149743808Y-121897638D02*
X149743808Y-121983164D01*
X149658282Y-122154217D01*
X149572756Y-122239743D01*
X149401703Y-122325269D01*
X149230651Y-122325269D01*
X149102361Y-122282506D01*
X148888546Y-122154217D01*
X148760256Y-122025927D01*
X148631967Y-121812112D01*
X148589204Y-121683822D01*
X148589204Y-121512770D01*
X148674730Y-121341717D01*
X148760256Y-121256191D01*
X148931309Y-121170665D01*
X149016835Y-121170665D01*
X149743808Y-120272639D02*
X149316177Y-120700270D01*
X149701045Y-121170665D01*
X149701045Y-121085139D01*
X149743808Y-120956849D01*
X149957624Y-120743034D01*
X150085913Y-120700270D01*
X150171439Y-120700270D01*
X150299729Y-120743034D01*
X150513544Y-120956849D01*
X150556307Y-121085139D01*
X150556307Y-121170665D01*
X150513544Y-121298954D01*
X150299729Y-121512770D01*
X150171439Y-121555533D01*
X150085913Y-121555533D01*
%TO.C,C2*%
X153588333Y-121753571D02*
X153527857Y-121814047D01*
X153346428Y-121874523D01*
X153225476Y-121874523D01*
X153044047Y-121814047D01*
X152923095Y-121693095D01*
X152862619Y-121572142D01*
X152802142Y-121330238D01*
X152802142Y-121148809D01*
X152862619Y-120906904D01*
X152923095Y-120785952D01*
X153044047Y-120665000D01*
X153225476Y-120604523D01*
X153346428Y-120604523D01*
X153527857Y-120665000D01*
X153588333Y-120725476D01*
X154072142Y-120725476D02*
X154132619Y-120665000D01*
X154253571Y-120604523D01*
X154555952Y-120604523D01*
X154676904Y-120665000D01*
X154737380Y-120725476D01*
X154797857Y-120846428D01*
X154797857Y-120967380D01*
X154737380Y-121148809D01*
X154011666Y-121874523D01*
X154797857Y-121874523D01*
%TO.C,C1*%
X161788333Y-121753571D02*
X161727857Y-121814047D01*
X161546428Y-121874523D01*
X161425476Y-121874523D01*
X161244047Y-121814047D01*
X161123095Y-121693095D01*
X161062619Y-121572142D01*
X161002142Y-121330238D01*
X161002142Y-121148809D01*
X161062619Y-120906904D01*
X161123095Y-120785952D01*
X161244047Y-120665000D01*
X161425476Y-120604523D01*
X161546428Y-120604523D01*
X161727857Y-120665000D01*
X161788333Y-120725476D01*
X162997857Y-121874523D02*
X162272142Y-121874523D01*
X162635000Y-121874523D02*
X162635000Y-120604523D01*
X162514047Y-120785952D01*
X162393095Y-120906904D01*
X162272142Y-120967380D01*
%TO.C,J4*%
X179166666Y-118952380D02*
X179166666Y-119666666D01*
X179119047Y-119809523D01*
X179023809Y-119904761D01*
X178880952Y-119952380D01*
X178785714Y-119952380D01*
X180071428Y-119285714D02*
X180071428Y-119952380D01*
X179833333Y-118904761D02*
X179595238Y-119619047D01*
X180214285Y-119619047D01*
%TO.C,C8*%
X150397638Y-137610678D02*
X150483164Y-137610678D01*
X150654217Y-137696204D01*
X150739743Y-137781731D01*
X150825269Y-137952783D01*
X150825269Y-138123835D01*
X150782506Y-138252125D01*
X150654217Y-138465940D01*
X150525927Y-138594230D01*
X150312112Y-138722519D01*
X150183822Y-138765282D01*
X150012770Y-138765282D01*
X149841717Y-138679756D01*
X149756191Y-138594230D01*
X149670665Y-138423177D01*
X149670665Y-138337651D01*
X149456849Y-137525152D02*
X149499612Y-137653441D01*
X149499612Y-137738967D01*
X149456849Y-137867257D01*
X149414086Y-137910020D01*
X149285797Y-137952783D01*
X149200270Y-137952783D01*
X149071981Y-137910020D01*
X148900929Y-137738967D01*
X148858165Y-137610678D01*
X148858165Y-137525152D01*
X148900929Y-137396862D01*
X148943692Y-137354099D01*
X149071981Y-137311336D01*
X149157507Y-137311336D01*
X149285797Y-137354099D01*
X149456849Y-137525152D01*
X149585139Y-137567915D01*
X149670665Y-137567915D01*
X149798954Y-137525152D01*
X149970007Y-137354099D01*
X150012770Y-137225810D01*
X150012770Y-137140284D01*
X149970007Y-137011994D01*
X149798954Y-136840942D01*
X149670665Y-136798179D01*
X149585139Y-136798179D01*
X149456849Y-136840942D01*
X149285797Y-137011994D01*
X149243034Y-137140284D01*
X149243034Y-137225810D01*
X149285797Y-137354099D01*
%TO.C,C6*%
X167708872Y-122656191D02*
X167794398Y-122656191D01*
X167965451Y-122741717D01*
X168050977Y-122827244D01*
X168136503Y-122998296D01*
X168136503Y-123169348D01*
X168093740Y-123297638D01*
X167965451Y-123511453D01*
X167837161Y-123639743D01*
X167623346Y-123768032D01*
X167495056Y-123810795D01*
X167324004Y-123810795D01*
X167152951Y-123725269D01*
X167067425Y-123639743D01*
X166981899Y-123468690D01*
X166981899Y-123383164D01*
X166126636Y-122698954D02*
X166297689Y-122870007D01*
X166425978Y-122912770D01*
X166511504Y-122912770D01*
X166725320Y-122870007D01*
X166939136Y-122741717D01*
X167281241Y-122399612D01*
X167324004Y-122271323D01*
X167324004Y-122185797D01*
X167281241Y-122057507D01*
X167110188Y-121886455D01*
X166981899Y-121843692D01*
X166896373Y-121843692D01*
X166768083Y-121886455D01*
X166554268Y-122100270D01*
X166511504Y-122228560D01*
X166511504Y-122314086D01*
X166554268Y-122442375D01*
X166725320Y-122613428D01*
X166853609Y-122656191D01*
X166939136Y-122656191D01*
X167067425Y-122613428D01*
%TO.C,R2*%
X179788333Y-141874523D02*
X179365000Y-141269761D01*
X179062619Y-141874523D02*
X179062619Y-140604523D01*
X179546428Y-140604523D01*
X179667380Y-140665000D01*
X179727857Y-140725476D01*
X179788333Y-140846428D01*
X179788333Y-141027857D01*
X179727857Y-141148809D01*
X179667380Y-141209285D01*
X179546428Y-141269761D01*
X179062619Y-141269761D01*
X180272142Y-140725476D02*
X180332619Y-140665000D01*
X180453571Y-140604523D01*
X180755952Y-140604523D01*
X180876904Y-140665000D01*
X180937380Y-140725476D01*
X180997857Y-140846428D01*
X180997857Y-140967380D01*
X180937380Y-141148809D01*
X180211666Y-141874523D01*
X180997857Y-141874523D01*
%TO.C,R5*%
X133288333Y-136574523D02*
X132865000Y-135969761D01*
X132562619Y-136574523D02*
X132562619Y-135304523D01*
X133046428Y-135304523D01*
X133167380Y-135365000D01*
X133227857Y-135425476D01*
X133288333Y-135546428D01*
X133288333Y-135727857D01*
X133227857Y-135848809D01*
X133167380Y-135909285D01*
X133046428Y-135969761D01*
X132562619Y-135969761D01*
X134437380Y-135304523D02*
X133832619Y-135304523D01*
X133772142Y-135909285D01*
X133832619Y-135848809D01*
X133953571Y-135788333D01*
X134255952Y-135788333D01*
X134376904Y-135848809D01*
X134437380Y-135909285D01*
X134497857Y-136030238D01*
X134497857Y-136332619D01*
X134437380Y-136453571D01*
X134376904Y-136514047D01*
X134255952Y-136574523D01*
X133953571Y-136574523D01*
X133832619Y-136514047D01*
X133772142Y-136453571D01*
%TO.C,R4*%
X136838333Y-136574523D02*
X136415000Y-135969761D01*
X136112619Y-136574523D02*
X136112619Y-135304523D01*
X136596428Y-135304523D01*
X136717380Y-135365000D01*
X136777857Y-135425476D01*
X136838333Y-135546428D01*
X136838333Y-135727857D01*
X136777857Y-135848809D01*
X136717380Y-135909285D01*
X136596428Y-135969761D01*
X136112619Y-135969761D01*
X137926904Y-135727857D02*
X137926904Y-136574523D01*
X137624523Y-135244047D02*
X137322142Y-136151190D01*
X138108333Y-136151190D01*
D12*
%TO.C,D2*%
X138062619Y-128074523D02*
X138062619Y-126804523D01*
X138365000Y-126804523D01*
X138546428Y-126865000D01*
X138667380Y-126985952D01*
X138727857Y-127106904D01*
X138788333Y-127348809D01*
X138788333Y-127530238D01*
X138727857Y-127772142D01*
X138667380Y-127893095D01*
X138546428Y-128014047D01*
X138365000Y-128074523D01*
X138062619Y-128074523D01*
X139272142Y-126925476D02*
X139332619Y-126865000D01*
X139453571Y-126804523D01*
X139755952Y-126804523D01*
X139876904Y-126865000D01*
X139937380Y-126925476D01*
X139997857Y-127046428D01*
X139997857Y-127167380D01*
X139937380Y-127348809D01*
X139211666Y-128074523D01*
X139997857Y-128074523D01*
D11*
%TO.C,J2*%
X131052380Y-120033333D02*
X131766666Y-120033333D01*
X131909523Y-120080952D01*
X132004761Y-120176190D01*
X132052380Y-120319047D01*
X132052380Y-120414285D01*
X131147619Y-119604761D02*
X131100000Y-119557142D01*
X131052380Y-119461904D01*
X131052380Y-119223809D01*
X131100000Y-119128571D01*
X131147619Y-119080952D01*
X131242857Y-119033333D01*
X131338095Y-119033333D01*
X131480952Y-119080952D01*
X132052380Y-119652380D01*
X132052380Y-119033333D01*
%TO.C,J1*%
X140666666Y-118977380D02*
X140666666Y-119691666D01*
X140619047Y-119834523D01*
X140523809Y-119929761D01*
X140380952Y-119977380D01*
X140285714Y-119977380D01*
X141666666Y-119977380D02*
X141095238Y-119977380D01*
X141380952Y-119977380D02*
X141380952Y-118977380D01*
X141285714Y-119120238D01*
X141190476Y-119215476D01*
X141095238Y-119263095D01*
%TO.C,C4*%
X140357142Y-129666666D02*
X140404761Y-129714285D01*
X140452380Y-129857142D01*
X140452380Y-129952380D01*
X140404761Y-130095238D01*
X140309523Y-130190476D01*
X140214285Y-130238095D01*
X140023809Y-130285714D01*
X139880952Y-130285714D01*
X139690476Y-130238095D01*
X139595238Y-130190476D01*
X139500000Y-130095238D01*
X139452380Y-129952380D01*
X139452380Y-129857142D01*
X139500000Y-129714285D01*
X139547619Y-129666666D01*
X139785714Y-128809523D02*
X140452380Y-128809523D01*
X139404761Y-129047619D02*
X140119047Y-129285714D01*
X140119047Y-128666666D01*
%TO.C,Q1*%
X172904761Y-142547619D02*
X172809523Y-142500000D01*
X172714285Y-142404761D01*
X172571428Y-142261904D01*
X172476190Y-142214285D01*
X172380952Y-142214285D01*
X172428571Y-142452380D02*
X172333333Y-142404761D01*
X172238095Y-142309523D01*
X172190476Y-142119047D01*
X172190476Y-141785714D01*
X172238095Y-141595238D01*
X172333333Y-141500000D01*
X172428571Y-141452380D01*
X172619047Y-141452380D01*
X172714285Y-141500000D01*
X172809523Y-141595238D01*
X172857142Y-141785714D01*
X172857142Y-142119047D01*
X172809523Y-142309523D01*
X172714285Y-142404761D01*
X172619047Y-142452380D01*
X172428571Y-142452380D01*
X173809523Y-142452380D02*
X173238095Y-142452380D01*
X173523809Y-142452380D02*
X173523809Y-141452380D01*
X173428571Y-141595238D01*
X173333333Y-141690476D01*
X173238095Y-141738095D01*
D12*
%TO.C,D3*%
X183062619Y-142574523D02*
X183062619Y-141304523D01*
X183365000Y-141304523D01*
X183546428Y-141365000D01*
X183667380Y-141485952D01*
X183727857Y-141606904D01*
X183788333Y-141848809D01*
X183788333Y-142030238D01*
X183727857Y-142272142D01*
X183667380Y-142393095D01*
X183546428Y-142514047D01*
X183365000Y-142574523D01*
X183062619Y-142574523D01*
X184211666Y-141304523D02*
X184997857Y-141304523D01*
X184574523Y-141788333D01*
X184755952Y-141788333D01*
X184876904Y-141848809D01*
X184937380Y-141909285D01*
X184997857Y-142030238D01*
X184997857Y-142332619D01*
X184937380Y-142453571D01*
X184876904Y-142514047D01*
X184755952Y-142574523D01*
X184393095Y-142574523D01*
X184272142Y-142514047D01*
X184211666Y-142453571D01*
%TO.C,D1*%
X138062619Y-124574523D02*
X138062619Y-123304523D01*
X138365000Y-123304523D01*
X138546428Y-123365000D01*
X138667380Y-123485952D01*
X138727857Y-123606904D01*
X138788333Y-123848809D01*
X138788333Y-124030238D01*
X138727857Y-124272142D01*
X138667380Y-124393095D01*
X138546428Y-124514047D01*
X138365000Y-124574523D01*
X138062619Y-124574523D01*
X139997857Y-124574523D02*
X139272142Y-124574523D01*
X139635000Y-124574523D02*
X139635000Y-123304523D01*
X139514047Y-123485952D01*
X139393095Y-123606904D01*
X139272142Y-123667380D01*
D11*
%TO.C,J6*%
X185452380Y-132033333D02*
X186166666Y-132033333D01*
X186309523Y-132080952D01*
X186404761Y-132176190D01*
X186452380Y-132319047D01*
X186452380Y-132414285D01*
X185452380Y-131128571D02*
X185452380Y-131319047D01*
X185500000Y-131414285D01*
X185547619Y-131461904D01*
X185690476Y-131557142D01*
X185880952Y-131604761D01*
X186261904Y-131604761D01*
X186357142Y-131557142D01*
X186404761Y-131509523D01*
X186452380Y-131414285D01*
X186452380Y-131223809D01*
X186404761Y-131128571D01*
X186357142Y-131080952D01*
X186261904Y-131033333D01*
X186023809Y-131033333D01*
X185928571Y-131080952D01*
X185880952Y-131128571D01*
X185833333Y-131223809D01*
X185833333Y-131414285D01*
X185880952Y-131509523D01*
X185928571Y-131557142D01*
X186023809Y-131604761D01*
%TO.C,R1*%
X179888333Y-140274523D02*
X179465000Y-139669761D01*
X179162619Y-140274523D02*
X179162619Y-139004523D01*
X179646428Y-139004523D01*
X179767380Y-139065000D01*
X179827857Y-139125476D01*
X179888333Y-139246428D01*
X179888333Y-139427857D01*
X179827857Y-139548809D01*
X179767380Y-139609285D01*
X179646428Y-139669761D01*
X179162619Y-139669761D01*
X181097857Y-140274523D02*
X180372142Y-140274523D01*
X180735000Y-140274523D02*
X180735000Y-139004523D01*
X180614047Y-139185952D01*
X180493095Y-139306904D01*
X180372142Y-139367380D01*
%TO.C,J3*%
X131052380Y-133083333D02*
X131766666Y-133083333D01*
X131909523Y-133130952D01*
X132004761Y-133226190D01*
X132052380Y-133369047D01*
X132052380Y-133464285D01*
X131052380Y-132702380D02*
X131052380Y-132083333D01*
X131433333Y-132416666D01*
X131433333Y-132273809D01*
X131480952Y-132178571D01*
X131528571Y-132130952D01*
X131623809Y-132083333D01*
X131861904Y-132083333D01*
X131957142Y-132130952D01*
X132004761Y-132178571D01*
X132052380Y-132273809D01*
X132052380Y-132559523D01*
X132004761Y-132654761D01*
X131957142Y-132702380D01*
%TO.C,R3*%
X162288333Y-137774523D02*
X161865000Y-137169761D01*
X161562619Y-137774523D02*
X161562619Y-136504523D01*
X162046428Y-136504523D01*
X162167380Y-136565000D01*
X162227857Y-136625476D01*
X162288333Y-136746428D01*
X162288333Y-136927857D01*
X162227857Y-137048809D01*
X162167380Y-137109285D01*
X162046428Y-137169761D01*
X161562619Y-137169761D01*
X162711666Y-136504523D02*
X163497857Y-136504523D01*
X163074523Y-136988333D01*
X163255952Y-136988333D01*
X163376904Y-137048809D01*
X163437380Y-137109285D01*
X163497857Y-137230238D01*
X163497857Y-137532619D01*
X163437380Y-137653571D01*
X163376904Y-137714047D01*
X163255952Y-137774523D01*
X162893095Y-137774523D01*
X162772142Y-137714047D01*
X162711666Y-137653571D01*
%TO.C,C3*%
X175833333Y-131641142D02*
X175785714Y-131688761D01*
X175642857Y-131736380D01*
X175547619Y-131736380D01*
X175404761Y-131688761D01*
X175309523Y-131593523D01*
X175261904Y-131498285D01*
X175214285Y-131307809D01*
X175214285Y-131164952D01*
X175261904Y-130974476D01*
X175309523Y-130879238D01*
X175404761Y-130784000D01*
X175547619Y-130736380D01*
X175642857Y-130736380D01*
X175785714Y-130784000D01*
X175833333Y-130831619D01*
X176166666Y-130736380D02*
X176785714Y-130736380D01*
X176452380Y-131117333D01*
X176595238Y-131117333D01*
X176690476Y-131164952D01*
X176738095Y-131212571D01*
X176785714Y-131307809D01*
X176785714Y-131545904D01*
X176738095Y-131641142D01*
X176690476Y-131688761D01*
X176595238Y-131736380D01*
X176309523Y-131736380D01*
X176214285Y-131688761D01*
X176166666Y-131641142D01*
D13*
%TO.C,R6*%
X168250000Y-137900000D02*
X171850000Y-137900000D01*
X171850000Y-137900000D02*
X171850000Y-140100000D01*
X168250000Y-140100000D02*
X168250000Y-137900000D01*
X171850000Y-140100000D02*
X168250000Y-140100000D01*
D14*
%TO.C,Y1*%
X160685000Y-117525000D02*
X154435000Y-117525000D01*
X160685000Y-112475000D02*
X154435000Y-112475000D01*
X154435000Y-112475000D02*
G75*
G03*
X154435000Y-117525000I0J-2525000D01*
G01*
X160685000Y-117525000D02*
G75*
G03*
X160685000Y-112475000I0J2525000D01*
G01*
D11*
%TO.C,U1*%
X158572756Y-135165216D02*
X152562348Y-129154808D01*
X164583164Y-129154808D02*
X158572756Y-123144400D01*
X158572756Y-135165216D02*
X164583164Y-129154808D01*
X152562348Y-129154808D02*
X158572756Y-123144400D01*
D15*
X154276561Y-129154809D02*
G75*
G03*
X154276561Y-129154809I-299999J0D01*
G01*
D16*
X151237781Y-129755850D02*
G75*
G03*
X151237781Y-129755850I-125001J0D01*
G01*
D13*
%TO.C,C7*%
X167338478Y-135575736D02*
X167267767Y-135646447D01*
X165075736Y-137838478D02*
X163661522Y-136424264D01*
X167267767Y-135646447D02*
X165075736Y-137838478D01*
X163661522Y-136424264D02*
X165924264Y-134161522D01*
X165924264Y-134161522D02*
X167338478Y-135575736D01*
D14*
%TO.C,JP1*%
X174945000Y-137180000D02*
X174945000Y-134580000D01*
X177605000Y-137180000D02*
X177605000Y-134580000D01*
X177605000Y-137180000D02*
X174945000Y-137180000D01*
X177605000Y-134580000D02*
X174945000Y-134580000D01*
X174945000Y-139780000D02*
X174945000Y-138450000D01*
X176275000Y-139780000D02*
X174945000Y-139780000D01*
D13*
%TO.C,C5*%
X150575736Y-124338478D02*
X149161522Y-122924264D01*
X152838478Y-122075736D02*
X150575736Y-124338478D01*
X149232233Y-122853553D02*
X151424264Y-120661522D01*
X149161522Y-122924264D02*
X149232233Y-122853553D01*
X151424264Y-120661522D02*
X152838478Y-122075736D01*
%TO.C,C2*%
X155362756Y-118427244D02*
X155362756Y-120427244D01*
X152162756Y-118427244D02*
X155362756Y-118427244D01*
X152162756Y-120427244D02*
X152162756Y-118427244D01*
X155362756Y-120427244D02*
X155262756Y-120427244D01*
X155262756Y-120427244D02*
X152162756Y-120427244D01*
%TO.C,C1*%
X160162756Y-118427244D02*
X160262756Y-118427244D01*
X160262756Y-118427244D02*
X163362756Y-118427244D01*
X163362756Y-120427244D02*
X160162756Y-120427244D01*
X163362756Y-118427244D02*
X163362756Y-120427244D01*
X160162756Y-120427244D02*
X160162756Y-118427244D01*
D14*
%TO.C,J4*%
X193300000Y-114800000D02*
X192550000Y-114800000D01*
X179500000Y-117750000D02*
X167510000Y-117750000D01*
X169000000Y-112550000D02*
X169000000Y-113300000D01*
X190000000Y-112550000D02*
X169000000Y-112550000D01*
X192550000Y-114800000D02*
X192550000Y-117750000D01*
X166450000Y-114800000D02*
X166450000Y-116140000D01*
X165700000Y-112550000D02*
X165700000Y-113300000D01*
X192550000Y-117750000D02*
X179500000Y-117750000D01*
X165690000Y-112540000D02*
X165690000Y-118510000D01*
X165700000Y-114800000D02*
X166450000Y-114800000D01*
X193300000Y-112550000D02*
X191500000Y-112550000D01*
X165690000Y-118510000D02*
X193310000Y-118510000D01*
X193310000Y-112540000D02*
X165690000Y-112540000D01*
X167500000Y-113300000D02*
X167500000Y-112550000D01*
X166650000Y-112250000D02*
X165400000Y-112250000D01*
X193310000Y-118510000D02*
X193310000Y-112540000D01*
X167500000Y-112550000D02*
X165700000Y-112550000D01*
X191500000Y-113300000D02*
X193300000Y-113300000D01*
X165400000Y-112250000D02*
X165400000Y-113500000D01*
X169000000Y-113300000D02*
X190000000Y-113300000D01*
X193300000Y-113300000D02*
X193300000Y-112550000D01*
X191500000Y-112550000D02*
X191500000Y-113300000D01*
X190000000Y-113300000D02*
X190000000Y-112550000D01*
X165700000Y-113300000D02*
X167500000Y-113300000D01*
D13*
%TO.C,C8*%
X151075736Y-134516010D02*
X153338478Y-136778752D01*
X151924264Y-138192966D02*
X151853553Y-138122255D01*
X149661522Y-135930224D02*
X151075736Y-134516010D01*
X151853553Y-138122255D02*
X149661522Y-135930224D01*
X153338478Y-136778752D02*
X151924264Y-138192966D01*
%TO.C,C6*%
X167238478Y-121178752D02*
X165824264Y-122592966D01*
X165824264Y-122592966D02*
X165753553Y-122522255D01*
X165753553Y-122522255D02*
X163561522Y-120330224D01*
X163561522Y-120330224D02*
X164975736Y-118916010D01*
X164975736Y-118916010D02*
X167238478Y-121178752D01*
%TO.C,R2*%
X181850000Y-138805113D02*
X178250000Y-138805113D01*
X181850000Y-136605113D02*
X181850000Y-138805113D01*
X178250000Y-136605113D02*
X181850000Y-136605113D01*
X178250000Y-138805113D02*
X178250000Y-136605113D01*
%TO.C,R5*%
X134800000Y-136900000D02*
X134800000Y-139100000D01*
X134800000Y-139100000D02*
X131200000Y-139100000D01*
X131200000Y-136900000D02*
X134800000Y-136900000D01*
X131200000Y-139100000D02*
X131200000Y-136900000D01*
%TO.C,R4*%
X138850000Y-136900000D02*
X138850000Y-139100000D01*
X135250000Y-139100000D02*
X135250000Y-136900000D01*
X135250000Y-136900000D02*
X138850000Y-136900000D01*
X138850000Y-139100000D02*
X135250000Y-139100000D01*
D17*
%TO.C,D2*%
X137002000Y-126168000D02*
X131898000Y-126168000D01*
X131898000Y-128832000D02*
X137275000Y-128832000D01*
D14*
%TO.C,J2*%
X124550000Y-123250000D02*
X124550000Y-125050000D01*
X125300000Y-121750000D02*
X125300000Y-115750000D01*
X124550000Y-121750000D02*
X125300000Y-121750000D01*
X124250000Y-124100000D02*
X124250000Y-125350000D01*
X125300000Y-112450000D02*
X124550000Y-112450000D01*
X129750000Y-113200000D02*
X129750000Y-118750000D01*
X125300000Y-114250000D02*
X125300000Y-112450000D01*
X124250000Y-125350000D02*
X125500000Y-125350000D01*
X129750000Y-124300000D02*
X129750000Y-118750000D01*
X124540000Y-112440000D02*
X124540000Y-125060000D01*
X124550000Y-114250000D02*
X125300000Y-114250000D01*
X124550000Y-115750000D02*
X124550000Y-121750000D01*
X125300000Y-125050000D02*
X125300000Y-123250000D01*
X126800000Y-124300000D02*
X129750000Y-124300000D01*
X124550000Y-125050000D02*
X125300000Y-125050000D01*
X124540000Y-125060000D02*
X130510000Y-125060000D01*
X125300000Y-115750000D02*
X124550000Y-115750000D01*
X130510000Y-112440000D02*
X124540000Y-112440000D01*
X126800000Y-113200000D02*
X129750000Y-113200000D01*
X124550000Y-112450000D02*
X124550000Y-114250000D01*
X126800000Y-112450000D02*
X126800000Y-113200000D01*
X126800000Y-125050000D02*
X126800000Y-124300000D01*
X130510000Y-125060000D02*
X130510000Y-112440000D01*
X125300000Y-123250000D02*
X124550000Y-123250000D01*
%TO.C,J1*%
X149800000Y-113300000D02*
X149800000Y-112550000D01*
X146500000Y-113300000D02*
X146500000Y-112550000D01*
X149810000Y-118510000D02*
X149810000Y-112540000D01*
X149810000Y-112540000D02*
X132190000Y-112540000D01*
X132200000Y-112550000D02*
X132200000Y-113300000D01*
X131900000Y-112250000D02*
X131900000Y-113500000D01*
X134000000Y-113300000D02*
X134000000Y-112550000D01*
X149800000Y-114800000D02*
X149050000Y-114800000D01*
X132950000Y-114800000D02*
X132950000Y-117750000D01*
X149800000Y-112550000D02*
X148000000Y-112550000D01*
X134000000Y-112550000D02*
X132200000Y-112550000D01*
X132950000Y-117750000D02*
X141000000Y-117750000D01*
X135500000Y-113300000D02*
X146500000Y-113300000D01*
X132200000Y-113300000D02*
X134000000Y-113300000D01*
X146500000Y-112550000D02*
X135500000Y-112550000D01*
X135500000Y-112550000D02*
X135500000Y-113300000D01*
X148000000Y-113300000D02*
X149800000Y-113300000D01*
X133150000Y-112250000D02*
X131900000Y-112250000D01*
X149050000Y-117750000D02*
X141000000Y-117750000D01*
X132190000Y-112540000D02*
X132190000Y-118510000D01*
X132200000Y-114800000D02*
X132950000Y-114800000D01*
X132190000Y-118510000D02*
X149810000Y-118510000D01*
X148000000Y-112550000D02*
X148000000Y-113300000D01*
X149050000Y-114800000D02*
X149050000Y-117750000D01*
%TO.C,C4*%
X142460000Y-129364888D02*
X140939000Y-129364888D01*
X146043000Y-129484888D02*
X144540000Y-129484888D01*
X142460000Y-129484888D02*
X140957000Y-129484888D01*
X142460000Y-130765888D02*
X141563000Y-130765888D01*
X142460000Y-130805888D02*
X141599000Y-130805888D01*
X142460000Y-129444888D02*
X140950000Y-129444888D01*
X142460000Y-130565888D02*
X141405000Y-130565888D01*
X145535000Y-130645888D02*
X144540000Y-130645888D01*
X142460000Y-131165888D02*
X142000000Y-131165888D01*
X145225000Y-126490113D02*
X144725000Y-126490113D01*
X146080000Y-129084888D02*
X140920000Y-129084888D01*
X144975000Y-126240113D02*
X144975000Y-126740113D01*
X142460000Y-130885888D02*
X141674000Y-130885888D01*
X146036000Y-129524888D02*
X144540000Y-129524888D01*
X142460000Y-130525888D02*
X141378000Y-130525888D01*
X142460000Y-131205888D02*
X142057000Y-131205888D01*
X142460000Y-131245888D02*
X142117000Y-131245888D01*
X144511000Y-131445888D02*
X142489000Y-131445888D01*
X142460000Y-130725888D02*
X141529000Y-130725888D01*
X146080000Y-129044888D02*
X140920000Y-129044888D01*
X142460000Y-130205888D02*
X141190000Y-130205888D01*
X145724000Y-130365888D02*
X144540000Y-130365888D01*
X142460000Y-131045888D02*
X141847000Y-131045888D01*
X145000000Y-131165888D02*
X144540000Y-131165888D01*
X145747000Y-130325888D02*
X144540000Y-130325888D01*
X142460000Y-130485888D02*
X141351000Y-130485888D01*
X142460000Y-131085888D02*
X141895000Y-131085888D01*
X145942000Y-129885888D02*
X144540000Y-129885888D01*
X142460000Y-130245888D02*
X141210000Y-130245888D01*
X145810000Y-130205888D02*
X144540000Y-130205888D01*
X143784000Y-131645888D02*
X143216000Y-131645888D01*
X145504000Y-130685888D02*
X144540000Y-130685888D01*
X142460000Y-130005888D02*
X141102000Y-130005888D01*
X142460000Y-130365888D02*
X141276000Y-130365888D01*
X145768000Y-130285888D02*
X144540000Y-130285888D01*
X145968000Y-129805888D02*
X144540000Y-129805888D01*
X145928000Y-129925888D02*
X144540000Y-129925888D01*
X146073000Y-129244888D02*
X140927000Y-129244888D01*
X142460000Y-129805888D02*
X141032000Y-129805888D01*
X145565000Y-130605888D02*
X144540000Y-130605888D01*
X142460000Y-130325888D02*
X141253000Y-130325888D01*
X145437000Y-130765888D02*
X144540000Y-130765888D01*
X145326000Y-130885888D02*
X144540000Y-130885888D01*
X144598000Y-131405888D02*
X142402000Y-131405888D01*
X145790000Y-130245888D02*
X144540000Y-130245888D01*
X145882000Y-130045888D02*
X144540000Y-130045888D01*
X144177000Y-131565888D02*
X142823000Y-131565888D01*
X144819000Y-131285888D02*
X144540000Y-131285888D01*
X142460000Y-131125888D02*
X141946000Y-131125888D01*
X142460000Y-130125888D02*
X141152000Y-130125888D01*
X142460000Y-129965888D02*
X141086000Y-129965888D01*
X145153000Y-131045888D02*
X144540000Y-131045888D01*
X142460000Y-130925888D02*
X141715000Y-130925888D01*
X142460000Y-130605888D02*
X141435000Y-130605888D01*
X146078000Y-129164888D02*
X140922000Y-129164888D01*
X142460000Y-129324888D02*
X140935000Y-129324888D01*
X142460000Y-129524888D02*
X140964000Y-129524888D01*
X145105000Y-131085888D02*
X144540000Y-131085888D01*
X142460000Y-129644888D02*
X140989000Y-129644888D01*
X146069000Y-129284888D02*
X144540000Y-129284888D01*
X145865000Y-130085888D02*
X144540000Y-130085888D01*
X142460000Y-130405888D02*
X141300000Y-130405888D01*
X142460000Y-131005888D02*
X141801000Y-131005888D01*
X144943000Y-131205888D02*
X144540000Y-131205888D01*
X142460000Y-130285888D02*
X141232000Y-130285888D01*
X145700000Y-130405888D02*
X144540000Y-130405888D01*
X142460000Y-129284888D02*
X140931000Y-129284888D01*
X144883000Y-131245888D02*
X144540000Y-131245888D01*
X144415000Y-131485888D02*
X142585000Y-131485888D01*
X142460000Y-130445888D02*
X141325000Y-130445888D01*
X142460000Y-130685888D02*
X141496000Y-130685888D01*
X145675000Y-130445888D02*
X144540000Y-130445888D01*
X142460000Y-130645888D02*
X141465000Y-130645888D01*
X144018000Y-131605888D02*
X142982000Y-131605888D01*
X142460000Y-129724888D02*
X141009000Y-129724888D01*
X145829000Y-130165888D02*
X144540000Y-130165888D01*
X144305000Y-131525888D02*
X142695000Y-131525888D01*
X145199000Y-131005888D02*
X144540000Y-131005888D01*
X145955000Y-129845888D02*
X144540000Y-129845888D01*
X145980000Y-129765888D02*
X144540000Y-129765888D01*
X146065000Y-129324888D02*
X144540000Y-129324888D01*
X144751000Y-131325888D02*
X144540000Y-131325888D01*
X146020000Y-129604888D02*
X144540000Y-129604888D01*
X145914000Y-129965888D02*
X144540000Y-129965888D01*
X146050000Y-129444888D02*
X144540000Y-129444888D01*
X145401000Y-130805888D02*
X144540000Y-130805888D01*
X146001000Y-129684888D02*
X144540000Y-129684888D01*
X146056000Y-129404888D02*
X144540000Y-129404888D01*
X142460000Y-129765888D02*
X141020000Y-129765888D01*
X146076000Y-129204888D02*
X140924000Y-129204888D01*
X144678000Y-131365888D02*
X142322000Y-131365888D01*
X142460000Y-129564888D02*
X140972000Y-129564888D01*
X146061000Y-129364888D02*
X144540000Y-129364888D01*
X142460000Y-129604888D02*
X140980000Y-129604888D01*
X142460000Y-129404888D02*
X140944000Y-129404888D01*
X146079000Y-129124888D02*
X140921000Y-129124888D01*
X142460000Y-130965888D02*
X141757000Y-130965888D01*
X145595000Y-130565888D02*
X144540000Y-130565888D01*
X145622000Y-130525888D02*
X144540000Y-130525888D01*
X145243000Y-130965888D02*
X144540000Y-130965888D01*
X145848000Y-130125888D02*
X144540000Y-130125888D01*
X145054000Y-131125888D02*
X144540000Y-131125888D01*
X142460000Y-129845888D02*
X141045000Y-129845888D01*
X142460000Y-130845888D02*
X141636000Y-130845888D01*
X142460000Y-131285888D02*
X142181000Y-131285888D01*
X145471000Y-130725888D02*
X144540000Y-130725888D01*
X145898000Y-130005888D02*
X144540000Y-130005888D01*
X145285000Y-130925888D02*
X144540000Y-130925888D01*
X142460000Y-131325888D02*
X142249000Y-131325888D01*
X146028000Y-129564888D02*
X144540000Y-129564888D01*
X145364000Y-130845888D02*
X144540000Y-130845888D01*
X142460000Y-130165888D02*
X141171000Y-130165888D01*
X142460000Y-130045888D02*
X141118000Y-130045888D01*
X142460000Y-129925888D02*
X141072000Y-129925888D01*
X142460000Y-129684888D02*
X140999000Y-129684888D01*
X142460000Y-130085888D02*
X141135000Y-130085888D01*
X146011000Y-129644888D02*
X144540000Y-129644888D01*
X145991000Y-129724888D02*
X144540000Y-129724888D01*
X145649000Y-130485888D02*
X144540000Y-130485888D01*
X142460000Y-129885888D02*
X141058000Y-129885888D01*
X146120000Y-129044888D02*
G75*
G03*
X146120000Y-129044888I-2620000J0D01*
G01*
%TO.C,Q1*%
X170000000Y-143560000D02*
X171675000Y-143560000D01*
X170000000Y-143560000D02*
X169350000Y-143560000D01*
X170000000Y-140440000D02*
X170650000Y-140440000D01*
X170000000Y-140440000D02*
X169350000Y-140440000D01*
D17*
%TO.C,D3*%
X184000000Y-135250000D02*
X184000000Y-135250000D01*
D18*
X184600000Y-136950000D02*
X184600000Y-138750000D01*
X183200000Y-136950000D02*
X183200000Y-138750000D01*
D17*
X183800000Y-135250000D02*
X183800000Y-135250000D01*
X184000000Y-135250000D02*
G75*
G03*
X183800000Y-135250000I-100000J0D01*
G01*
X183800000Y-135250000D02*
G75*
G03*
X184000000Y-135250000I100000J0D01*
G01*
%TO.C,D1*%
X131898000Y-125332000D02*
X137275000Y-125332000D01*
X137002000Y-122668000D02*
X131898000Y-122668000D01*
D14*
%TO.C,J6*%
X193275000Y-121350000D02*
X193275000Y-120100000D01*
X193275000Y-120100000D02*
X192025000Y-120100000D01*
X187775000Y-142250000D02*
X187775000Y-131700000D01*
X190725000Y-142250000D02*
X187775000Y-142250000D01*
X192975000Y-120400000D02*
X192225000Y-120400000D01*
X190725000Y-121150000D02*
X187775000Y-121150000D01*
X192975000Y-143000000D02*
X192975000Y-141200000D01*
X192225000Y-139700000D02*
X192975000Y-139700000D01*
X192225000Y-122200000D02*
X192975000Y-122200000D01*
X187015000Y-143010000D02*
X192985000Y-143010000D01*
X192975000Y-122200000D02*
X192975000Y-120400000D01*
X192975000Y-139700000D02*
X192975000Y-123700000D01*
X192225000Y-141200000D02*
X192225000Y-143000000D01*
X190725000Y-143000000D02*
X190725000Y-142250000D01*
X192225000Y-120400000D02*
X192225000Y-122200000D01*
X192975000Y-141200000D02*
X192225000Y-141200000D01*
X192985000Y-120390000D02*
X187015000Y-120390000D01*
X192975000Y-123700000D02*
X192225000Y-123700000D01*
X192225000Y-143000000D02*
X192975000Y-143000000D01*
X187015000Y-120390000D02*
X187015000Y-143010000D01*
X192225000Y-123700000D02*
X192225000Y-139700000D01*
X192985000Y-143010000D02*
X192985000Y-120390000D01*
X190725000Y-120400000D02*
X190725000Y-121150000D01*
X187775000Y-121150000D02*
X187775000Y-131700000D01*
D13*
%TO.C,R1*%
X178250000Y-136305113D02*
X178250000Y-134105113D01*
X181850000Y-136305113D02*
X178250000Y-136305113D01*
X178250000Y-134105113D02*
X181850000Y-134105113D01*
X181850000Y-134105113D02*
X181850000Y-136305113D01*
D14*
%TO.C,J3*%
X125250000Y-128250000D02*
X125250000Y-126450000D01*
X125250000Y-137250000D02*
X124500000Y-137250000D01*
X126750000Y-138300000D02*
X129700000Y-138300000D01*
X129700000Y-127200000D02*
X129700000Y-132750000D01*
X124500000Y-129750000D02*
X124500000Y-135750000D01*
X125250000Y-139050000D02*
X125250000Y-137250000D01*
X124500000Y-126450000D02*
X124500000Y-128250000D01*
X125250000Y-129750000D02*
X124500000Y-129750000D01*
X124490000Y-139060000D02*
X130460000Y-139060000D01*
X126750000Y-126450000D02*
X126750000Y-127200000D01*
X124200000Y-139350000D02*
X125450000Y-139350000D01*
X124200000Y-138100000D02*
X124200000Y-139350000D01*
X126750000Y-139050000D02*
X126750000Y-138300000D01*
X125250000Y-126450000D02*
X124500000Y-126450000D01*
X129700000Y-138300000D02*
X129700000Y-132750000D01*
X126750000Y-127200000D02*
X129700000Y-127200000D01*
X124490000Y-126440000D02*
X124490000Y-139060000D01*
X125250000Y-135750000D02*
X125250000Y-129750000D01*
X124500000Y-139050000D02*
X125250000Y-139050000D01*
X130460000Y-139060000D02*
X130460000Y-126440000D01*
X124500000Y-135750000D02*
X125250000Y-135750000D01*
X124500000Y-128250000D02*
X125250000Y-128250000D01*
X130460000Y-126440000D02*
X124490000Y-126440000D01*
X124500000Y-137250000D02*
X124500000Y-139050000D01*
D13*
%TO.C,R3*%
X160200000Y-137900000D02*
X163800000Y-137900000D01*
X160200000Y-140100000D02*
X160200000Y-137900000D01*
X163800000Y-140100000D02*
X160200000Y-140100000D01*
X163800000Y-137900000D02*
X163800000Y-140100000D01*
D14*
%TO.C,C3*%
X178909000Y-133442000D02*
X178909000Y-132040000D01*
X182304775Y-132725000D02*
X182304775Y-132225000D01*
X178349000Y-133175000D02*
X178349000Y-132040000D01*
X177949000Y-132864000D02*
X177949000Y-132040000D01*
X177629000Y-129960000D02*
X177629000Y-129500000D01*
X178709000Y-129960000D02*
X178709000Y-128635000D01*
X178229000Y-133095000D02*
X178229000Y-132040000D01*
X179510000Y-133569000D02*
X179510000Y-132040000D01*
X179630000Y-133578000D02*
X179630000Y-128422000D01*
X177669000Y-132554000D02*
X177669000Y-132040000D01*
X178029000Y-132937000D02*
X178029000Y-132040000D01*
X178829000Y-133414000D02*
X178829000Y-132040000D01*
X177589000Y-129960000D02*
X177589000Y-129557000D01*
X179670000Y-133579000D02*
X179670000Y-128421000D01*
X179029000Y-133480000D02*
X179029000Y-132040000D01*
X178869000Y-129960000D02*
X178869000Y-128572000D01*
X179430000Y-133561000D02*
X179430000Y-132040000D01*
X177749000Y-129960000D02*
X177749000Y-129347000D01*
X178149000Y-129960000D02*
X178149000Y-128965000D01*
X179470000Y-129960000D02*
X179470000Y-128435000D01*
X179270000Y-133536000D02*
X179270000Y-132040000D01*
X177469000Y-132251000D02*
X177469000Y-132040000D01*
X178429000Y-129960000D02*
X178429000Y-128776000D01*
X179110000Y-129960000D02*
X179110000Y-128499000D01*
X179350000Y-133550000D02*
X179350000Y-132040000D01*
X177869000Y-129960000D02*
X177869000Y-129215000D01*
X178949000Y-133455000D02*
X178949000Y-132040000D01*
X177949000Y-129960000D02*
X177949000Y-129136000D01*
X178229000Y-129960000D02*
X178229000Y-128905000D01*
X178749000Y-129960000D02*
X178749000Y-128618000D01*
X179029000Y-129960000D02*
X179029000Y-128520000D01*
X178069000Y-129960000D02*
X178069000Y-129029000D01*
X178149000Y-133035000D02*
X178149000Y-132040000D01*
X177669000Y-129960000D02*
X177669000Y-129446000D01*
X178629000Y-129960000D02*
X178629000Y-128671000D01*
X179110000Y-133501000D02*
X179110000Y-132040000D01*
X178589000Y-133310000D02*
X178589000Y-132040000D01*
X177309000Y-131915000D02*
X177309000Y-130085000D01*
X178549000Y-133290000D02*
X178549000Y-132040000D01*
X178029000Y-129960000D02*
X178029000Y-129063000D01*
X177429000Y-132178000D02*
X177429000Y-129822000D01*
X177909000Y-129960000D02*
X177909000Y-129174000D01*
X177229000Y-131677000D02*
X177229000Y-130323000D01*
X179550000Y-133573000D02*
X179550000Y-128427000D01*
X178869000Y-133428000D02*
X178869000Y-132040000D01*
X178709000Y-133365000D02*
X178709000Y-132040000D01*
X178669000Y-129960000D02*
X178669000Y-128652000D01*
X179230000Y-133528000D02*
X179230000Y-132040000D01*
X177469000Y-129960000D02*
X177469000Y-129749000D01*
X178789000Y-129960000D02*
X178789000Y-128602000D01*
X177989000Y-129960000D02*
X177989000Y-129099000D01*
X177629000Y-132500000D02*
X177629000Y-132040000D01*
X178189000Y-133065000D02*
X178189000Y-132040000D01*
X178269000Y-129960000D02*
X178269000Y-128878000D01*
X177549000Y-129960000D02*
X177549000Y-129617000D01*
X178509000Y-133268000D02*
X178509000Y-132040000D01*
X178749000Y-133382000D02*
X178749000Y-132040000D01*
X179070000Y-133491000D02*
X179070000Y-132040000D01*
X179310000Y-129960000D02*
X179310000Y-128457000D01*
X182554775Y-132475000D02*
X182054775Y-132475000D01*
X179230000Y-129960000D02*
X179230000Y-128472000D01*
X179070000Y-129960000D02*
X179070000Y-128509000D01*
X178629000Y-133329000D02*
X178629000Y-132040000D01*
X178309000Y-133149000D02*
X178309000Y-132040000D01*
X178589000Y-129960000D02*
X178589000Y-128690000D01*
X177709000Y-129960000D02*
X177709000Y-129395000D01*
X177829000Y-129960000D02*
X177829000Y-129257000D01*
X177269000Y-131805000D02*
X177269000Y-130195000D01*
X177789000Y-129960000D02*
X177789000Y-129301000D01*
X179390000Y-129960000D02*
X179390000Y-128444000D01*
X177749000Y-132653000D02*
X177749000Y-132040000D01*
X178069000Y-132971000D02*
X178069000Y-132040000D01*
X177189000Y-131518000D02*
X177189000Y-130482000D01*
X178469000Y-129960000D02*
X178469000Y-128753000D01*
X177989000Y-132901000D02*
X177989000Y-132040000D01*
X179510000Y-129960000D02*
X179510000Y-128431000D01*
X179150000Y-129960000D02*
X179150000Y-128489000D01*
X177829000Y-132743000D02*
X177829000Y-132040000D01*
X179390000Y-133556000D02*
X179390000Y-132040000D01*
X177549000Y-132383000D02*
X177549000Y-132040000D01*
X179350000Y-129960000D02*
X179350000Y-128450000D01*
X177509000Y-129960000D02*
X177509000Y-129681000D01*
X178549000Y-129960000D02*
X178549000Y-128710000D01*
X178509000Y-129960000D02*
X178509000Y-128732000D01*
X177789000Y-132699000D02*
X177789000Y-132040000D01*
X178349000Y-129960000D02*
X178349000Y-128825000D01*
X178469000Y-133247000D02*
X178469000Y-132040000D01*
X178949000Y-129960000D02*
X178949000Y-128545000D01*
X178269000Y-133122000D02*
X178269000Y-132040000D01*
X178989000Y-129960000D02*
X178989000Y-128532000D01*
X179270000Y-129960000D02*
X179270000Y-128464000D01*
X178669000Y-133348000D02*
X178669000Y-132040000D01*
X179470000Y-133565000D02*
X179470000Y-132040000D01*
X179430000Y-129960000D02*
X179430000Y-128439000D01*
X178109000Y-129960000D02*
X178109000Y-128996000D01*
X178109000Y-133004000D02*
X178109000Y-132040000D01*
X179190000Y-133520000D02*
X179190000Y-132040000D01*
X179710000Y-133580000D02*
X179710000Y-128420000D01*
X177869000Y-132785000D02*
X177869000Y-132040000D01*
X177709000Y-132605000D02*
X177709000Y-132040000D01*
X177389000Y-132098000D02*
X177389000Y-129902000D01*
X178989000Y-133468000D02*
X178989000Y-132040000D01*
X177349000Y-132011000D02*
X177349000Y-129989000D01*
X178389000Y-129960000D02*
X178389000Y-128800000D01*
X177149000Y-131284000D02*
X177149000Y-130716000D01*
X177509000Y-132319000D02*
X177509000Y-132040000D01*
X179590000Y-133576000D02*
X179590000Y-128424000D01*
X179310000Y-133543000D02*
X179310000Y-132040000D01*
X178189000Y-129960000D02*
X178189000Y-128935000D01*
X178909000Y-129960000D02*
X178909000Y-128558000D01*
X179150000Y-133511000D02*
X179150000Y-132040000D01*
X178829000Y-129960000D02*
X178829000Y-128586000D01*
X178429000Y-133224000D02*
X178429000Y-132040000D01*
X178389000Y-133200000D02*
X178389000Y-132040000D01*
X178309000Y-129960000D02*
X178309000Y-128851000D01*
X179750000Y-133580000D02*
X179750000Y-128420000D01*
X177909000Y-132826000D02*
X177909000Y-132040000D01*
X179190000Y-129960000D02*
X179190000Y-128480000D01*
X178789000Y-133398000D02*
X178789000Y-132040000D01*
X177589000Y-132443000D02*
X177589000Y-132040000D01*
X182370000Y-131000000D02*
G75*
G03*
X182370000Y-131000000I-2620000J0D01*
G01*
%TD*%
M02*
