%TF.GenerationSoftware,KiCad,Pcbnew,(6.0.5)*%
%TF.CreationDate,2022-06-13T21:30:09+05:30*%
%TF.ProjectId,pcb-dev-dsPIC30F3011,7063622d-6465-4762-9d64-735049433330,rev?*%
%TF.SameCoordinates,Original*%
%TF.FileFunction,Paste,Top*%
%TF.FilePolarity,Positive*%
%FSLAX46Y46*%
G04 Gerber Fmt 4.6, Leading zero omitted, Abs format (unit mm)*
G04 Created by KiCad (PCBNEW (6.0.5)) date 2022-06-13 21:30:09*
%MOMM*%
%LPD*%
G01*
G04 APERTURE LIST*
G04 Aperture macros list*
%AMRoundRect*
0 Rectangle with rounded corners*
0 $1 Rounding radius*
0 $2 $3 $4 $5 $6 $7 $8 $9 X,Y pos of 4 corners*
0 Add a 4 corners polygon primitive as box body*
4,1,4,$2,$3,$4,$5,$6,$7,$8,$9,$2,$3,0*
0 Add four circle primitives for the rounded corners*
1,1,$1+$1,$2,$3*
1,1,$1+$1,$4,$5*
1,1,$1+$1,$6,$7*
1,1,$1+$1,$8,$9*
0 Add four rect primitives between the rounded corners*
20,1,$1+$1,$2,$3,$4,$5,0*
20,1,$1+$1,$4,$5,$6,$7,0*
20,1,$1+$1,$6,$7,$8,$9,0*
20,1,$1+$1,$8,$9,$2,$3,0*%
%AMRotRect*
0 Rectangle, with rotation*
0 The origin of the aperture is its center*
0 $1 length*
0 $2 width*
0 $3 Rotation angle, in degrees counterclockwise*
0 Add horizontal line*
21,1,$1,$2,0,0,$3*%
G04 Aperture macros list end*
%ADD10R,1.100000X1.550000*%
%ADD11RoundRect,0.300000X-0.512652X-0.512653X-0.512653X-0.512652X0.512652X0.512653X0.512653X0.512652X0*%
%ADD12RoundRect,0.300000X0.512653X-0.512652X0.512652X-0.512653X-0.512653X0.512652X-0.512652X0.512653X0*%
%ADD13RotRect,1.060000X1.490000X225.000000*%
%ADD14RotRect,1.060000X1.490000X45.000000*%
%ADD15R,1.060000X1.490000*%
%ADD16RotRect,1.060000X1.490000X135.000000*%
%ADD17R,2.200000X1.550000*%
%ADD18RoundRect,0.150000X0.587500X0.150000X-0.587500X0.150000X-0.587500X-0.150000X0.587500X-0.150000X0*%
%ADD19R,1.650000X1.150000*%
G04 APERTURE END LIST*
D10*
%TO.C,R6*%
X169100000Y-139000000D03*
X171000000Y-139000000D03*
%TD*%
D11*
%TO.C,U1*%
X151713820Y-130356890D03*
X152279506Y-130922576D03*
X152845192Y-131488262D03*
X153410876Y-132053946D03*
X153976562Y-132619632D03*
X154542245Y-133185315D03*
X155107932Y-133751002D03*
X155673618Y-134316688D03*
X156239303Y-134882373D03*
X156804989Y-135448059D03*
X157370675Y-136013745D03*
D12*
X159774837Y-136013745D03*
X160340523Y-135448059D03*
X160906209Y-134882373D03*
X161471894Y-134316688D03*
X162037580Y-133751002D03*
X162603265Y-133185317D03*
X163168950Y-132619632D03*
X163734636Y-132053946D03*
X164300320Y-131488262D03*
X164866006Y-130922576D03*
X165431692Y-130356890D03*
D11*
X165431692Y-127952728D03*
X164866006Y-127387042D03*
X164300320Y-126821356D03*
X163734636Y-126255671D03*
X163168949Y-125689985D03*
X162603263Y-125124298D03*
X162037579Y-124558615D03*
X161471893Y-123992928D03*
X160906209Y-123427244D03*
X160340523Y-122861558D03*
X159774838Y-122295873D03*
D12*
X157370674Y-122295873D03*
X156804989Y-122861558D03*
X156239303Y-123427244D03*
X155673619Y-123992928D03*
X155107933Y-124558615D03*
X154542247Y-125124300D03*
X153976563Y-125689985D03*
X153410876Y-126255671D03*
X152845192Y-126821356D03*
X152279506Y-127387042D03*
X151713820Y-127952728D03*
%TD*%
D13*
%TO.C,C7*%
X166072756Y-135427244D03*
X164927244Y-136572756D03*
%TD*%
D14*
%TO.C,C5*%
X150427244Y-123072756D03*
X151572756Y-121927244D03*
%TD*%
D15*
%TO.C,C2*%
X154572756Y-119427244D03*
X152952756Y-119427244D03*
%TD*%
%TO.C,C1*%
X160952756Y-119427244D03*
X162572756Y-119427244D03*
%TD*%
D16*
%TO.C,C8*%
X152072756Y-136927244D03*
X150927244Y-135781732D03*
%TD*%
%TO.C,C6*%
X165972756Y-121327244D03*
X164827244Y-120181732D03*
%TD*%
D10*
%TO.C,R2*%
X179100000Y-137705113D03*
X181000000Y-137705113D03*
%TD*%
%TO.C,R5*%
X133950000Y-138000000D03*
X132050000Y-138000000D03*
%TD*%
%TO.C,R4*%
X138000000Y-138000000D03*
X136100000Y-138000000D03*
%TD*%
D17*
%TO.C,D2*%
X136500000Y-127500000D03*
X132400000Y-127500000D03*
%TD*%
D18*
%TO.C,Q1*%
X170937500Y-142950000D03*
X170937500Y-141050000D03*
X169062500Y-142000000D03*
%TD*%
D19*
%TO.C,D3*%
X183900000Y-136200000D03*
X183900000Y-139500000D03*
%TD*%
D17*
%TO.C,D1*%
X136500000Y-124000000D03*
X132400000Y-124000000D03*
%TD*%
D10*
%TO.C,R1*%
X179100000Y-135205113D03*
X181000000Y-135205113D03*
%TD*%
%TO.C,R3*%
X161050000Y-139000000D03*
X162950000Y-139000000D03*
%TD*%
M02*
