M48
; DRILL file {KiCad (6.0.5)} date Mon Jun 13 21:30:11 2022
; FORMAT={-:-/ absolute / inch / decimal}
; #@! TF.CreationDate,2022-06-13T21:30:11+05:30
; #@! TF.GenerationSoftware,Kicad,Pcbnew,(6.0.5)
; #@! TF.FileFunction,Plated,1,2,PTH
FMAT,2
INCH
; #@! TA.AperFunction,Plated,PTH,ViaDrill
T1C0.0157
; #@! TA.AperFunction,Plated,PTH,ComponentDrill
T2C0.0315
; #@! TA.AperFunction,Plated,PTH,ComponentDrill
T3C0.0374
; #@! TA.AperFunction,Plated,PTH,ComponentDrill
T4C0.0394
%
G90
G05
T1
X5.4528Y-5.374
X5.696Y-4.8552
X5.9055Y-5.3937
X5.9252Y-4.7441
X5.9843Y-4.7047
X6.0827Y-5.0492
X6.1378Y-5.185
X6.1378Y-5.0098
X6.1614Y-5.2165
X6.1693Y-4.9803
X6.1899Y-5.245
X6.2008Y-4.9508
X6.2179Y-5.2726
X6.25Y-5.2953
X6.252Y-4.8819
X6.2894Y-5.2639
X6.3185Y-5.2358
X6.378Y-5.0591
X6.4055Y-4.6417
X6.4567Y-4.685
X6.5157Y-5.4331
X6.6181Y-5.4724
X6.7815Y-5.5551
T2
X5.6496Y-5.0313
X5.6496Y-5.1297
X6.1071Y-4.5276
X6.2992Y-4.5276
X7.0276Y-5.1575
X7.126Y-5.1575
T3
X4.998Y-5.0787
X4.998Y-5.1772
X4.998Y-5.2756
X4.998Y-5.374
X5.0Y-4.5276
X5.0Y-4.626
X5.0Y-4.7244
X5.0Y-4.8228
X5.3051Y-4.5276
X5.4035Y-4.5276
X5.502Y-4.5276
X5.6004Y-4.5276
X5.6988Y-4.5276
X5.7972Y-4.5276
X6.624Y-4.5276
X6.7224Y-4.5276
X6.8209Y-4.5276
X6.9193Y-4.5276
X7.0177Y-4.5276
X7.1161Y-4.5276
X7.2146Y-4.5276
X7.313Y-4.5276
X7.4114Y-4.5276
X7.501Y-4.8406
X7.501Y-4.939
X7.501Y-5.0374
X7.501Y-5.1358
X7.501Y-5.2343
X7.501Y-5.3327
X7.501Y-5.4311
X7.501Y-5.5295
X7.5098Y-4.5276
T4
X5.0283Y-5.5906
X5.1283Y-5.5906
X5.2283Y-5.5906
X5.3283Y-5.5906
X5.4283Y-5.5906
X5.5283Y-5.5906
X5.6283Y-5.5906
X5.7283Y-5.5906
X5.8283Y-5.5906
X5.9283Y-5.5906
X6.0283Y-5.5906
X6.1283Y-5.5906
X6.2283Y-5.5906
X6.3283Y-5.5906
X6.4283Y-5.5906
X6.5283Y-5.5906
X6.94Y-5.3508
X6.94Y-5.4508
T0
M30
