%TF.GenerationSoftware,KiCad,Pcbnew,(6.0.5)*%
%TF.CreationDate,2022-06-13T21:30:09+05:30*%
%TF.ProjectId,pcb-dev-dsPIC30F3011,7063622d-6465-4762-9d64-735049433330,rev?*%
%TF.SameCoordinates,Original*%
%TF.FileFunction,Copper,L1,Top*%
%TF.FilePolarity,Positive*%
%FSLAX46Y46*%
G04 Gerber Fmt 4.6, Leading zero omitted, Abs format (unit mm)*
G04 Created by KiCad (PCBNEW (6.0.5)) date 2022-06-13 21:30:09*
%MOMM*%
%LPD*%
G01*
G04 APERTURE LIST*
G04 Aperture macros list*
%AMRoundRect*
0 Rectangle with rounded corners*
0 $1 Rounding radius*
0 $2 $3 $4 $5 $6 $7 $8 $9 X,Y pos of 4 corners*
0 Add a 4 corners polygon primitive as box body*
4,1,4,$2,$3,$4,$5,$6,$7,$8,$9,$2,$3,0*
0 Add four circle primitives for the rounded corners*
1,1,$1+$1,$2,$3*
1,1,$1+$1,$4,$5*
1,1,$1+$1,$6,$7*
1,1,$1+$1,$8,$9*
0 Add four rect primitives between the rounded corners*
20,1,$1+$1,$2,$3,$4,$5,0*
20,1,$1+$1,$4,$5,$6,$7,0*
20,1,$1+$1,$6,$7,$8,$9,0*
20,1,$1+$1,$8,$9,$2,$3,0*%
%AMRotRect*
0 Rectangle, with rotation*
0 The origin of the aperture is its center*
0 $1 length*
0 $2 width*
0 $3 Rotation angle, in degrees counterclockwise*
0 Add horizontal line*
21,1,$1,$2,0,0,$3*%
G04 Aperture macros list end*
%TA.AperFunction,SMDPad,CuDef*%
%ADD10R,1.100000X1.550000*%
%TD*%
%TA.AperFunction,ComponentPad*%
%ADD11C,1.500000*%
%TD*%
%TA.AperFunction,SMDPad,CuDef*%
%ADD12RoundRect,0.300000X-0.512652X-0.512653X-0.512653X-0.512652X0.512652X0.512653X0.512653X0.512652X0*%
%TD*%
%TA.AperFunction,SMDPad,CuDef*%
%ADD13RoundRect,0.300000X0.512653X-0.512652X0.512652X-0.512653X-0.512653X0.512652X-0.512652X0.512653X0*%
%TD*%
%TA.AperFunction,SMDPad,CuDef*%
%ADD14RotRect,1.060000X1.490000X225.000000*%
%TD*%
%TA.AperFunction,ComponentPad*%
%ADD15R,1.700000X1.700000*%
%TD*%
%TA.AperFunction,ComponentPad*%
%ADD16O,1.700000X1.700000*%
%TD*%
%TA.AperFunction,SMDPad,CuDef*%
%ADD17RotRect,1.060000X1.490000X45.000000*%
%TD*%
%TA.AperFunction,SMDPad,CuDef*%
%ADD18R,1.060000X1.490000*%
%TD*%
%TA.AperFunction,ComponentPad*%
%ADD19RoundRect,0.250000X-0.600000X-0.725000X0.600000X-0.725000X0.600000X0.725000X-0.600000X0.725000X0*%
%TD*%
%TA.AperFunction,ComponentPad*%
%ADD20O,1.700000X1.950000*%
%TD*%
%TA.AperFunction,SMDPad,CuDef*%
%ADD21RotRect,1.060000X1.490000X135.000000*%
%TD*%
%TA.AperFunction,SMDPad,CuDef*%
%ADD22R,2.200000X1.550000*%
%TD*%
%TA.AperFunction,ComponentPad*%
%ADD23RoundRect,0.250000X0.725000X-0.600000X0.725000X0.600000X-0.725000X0.600000X-0.725000X-0.600000X0*%
%TD*%
%TA.AperFunction,ComponentPad*%
%ADD24O,1.950000X1.700000*%
%TD*%
%TA.AperFunction,ComponentPad*%
%ADD25R,1.600000X1.600000*%
%TD*%
%TA.AperFunction,ComponentPad*%
%ADD26C,1.600000*%
%TD*%
%TA.AperFunction,SMDPad,CuDef*%
%ADD27RoundRect,0.150000X0.587500X0.150000X-0.587500X0.150000X-0.587500X-0.150000X0.587500X-0.150000X0*%
%TD*%
%TA.AperFunction,SMDPad,CuDef*%
%ADD28R,1.650000X1.150000*%
%TD*%
%TA.AperFunction,ComponentPad*%
%ADD29RoundRect,0.250000X-0.725000X0.600000X-0.725000X-0.600000X0.725000X-0.600000X0.725000X0.600000X0*%
%TD*%
%TA.AperFunction,ViaPad*%
%ADD30C,0.800000*%
%TD*%
%TA.AperFunction,Conductor*%
%ADD31C,0.400000*%
%TD*%
%TA.AperFunction,Conductor*%
%ADD32C,0.800000*%
%TD*%
G04 APERTURE END LIST*
D10*
%TO.P,R6,1*%
%TO.N,LCD_BACKLIGHT*%
X169100000Y-139000000D03*
%TO.P,R6,2*%
%TO.N,Net-(Q1-Pad1)*%
X171000000Y-139000000D03*
%TD*%
D11*
%TO.P,Y1,1,1*%
%TO.N,CLKIN*%
X160000000Y-115000000D03*
%TO.P,Y1,2,2*%
%TO.N,CLKOUT*%
X155120000Y-115000000D03*
%TD*%
D12*
%TO.P,U1,1,PGC/EMUC/U1RX/SDI1/SDA/RF2*%
%TO.N,PICkit4_PGC*%
X151713820Y-130356890D03*
%TO.P,U1,2,U2TX/CN18/RF5*%
%TO.N,UART2_TX*%
X152279506Y-130922576D03*
%TO.P,U1,3,U2RX/CN17/RF4*%
%TO.N,UART2_RX*%
X152845192Y-131488262D03*
%TO.P,U1,4,RF1*%
%TO.N,LCD_CS_RS*%
X153410876Y-132053946D03*
%TO.P,U1,5,RF0*%
%TO.N,LCD_WR_ENABLE*%
X153976562Y-132619632D03*
%TO.P,U1,6,VSS*%
%TO.N,GND*%
X154542245Y-133185315D03*
%TO.P,U1,7,VDD*%
%TO.N,+5V*%
X155107932Y-133751002D03*
%TO.P,U1,8,PWM3H/RE5*%
%TO.N,PWM3H*%
X155673618Y-134316688D03*
%TO.P,U1,9,PWM3L/RE4*%
%TO.N,PWM3L*%
X156239303Y-134882373D03*
%TO.P,U1,10,PWM2H/RE3*%
%TO.N,PWM2H*%
X156804989Y-135448059D03*
%TO.P,U1,11,PWM2L/RE2*%
%TO.N,PWM2L*%
X157370675Y-136013745D03*
D13*
%TO.P,U1,12,NC*%
%TO.N,unconnected-(U1-Pad12)*%
X159774837Y-136013745D03*
%TO.P,U1,13,NC*%
%TO.N,unconnected-(U1-Pad13)*%
X160340523Y-135448059D03*
%TO.P,U1,14,PWM1H/RE1*%
%TO.N,PWM1H*%
X160906209Y-134882373D03*
%TO.P,U1,15,PWM1L/RE0*%
%TO.N,PWM1L*%
X161471894Y-134316688D03*
%TO.P,U1,16,AVSS*%
%TO.N,GND*%
X162037580Y-133751002D03*
%TO.P,U1,17,AVDD*%
%TO.N,+5V*%
X162603265Y-133185317D03*
%TO.P,U1,18,~{MCLR}*%
%TO.N,PICkit4_MCLR*%
X163168950Y-132619632D03*
%TO.P,U1,19,EMUD3/AN0/VREF+/CN2/RB0*%
%TO.N,ADC0*%
X163734636Y-132053946D03*
%TO.P,U1,20,EMUC3/AN1/VREF-/CN3/RB1*%
%TO.N,ADC1*%
X164300320Y-131488262D03*
%TO.P,U1,21,~{SS1}/CN4RB2*%
%TO.N,ADC2*%
X164866006Y-130922576D03*
%TO.P,U1,22,AN3/INDX/CN5/RB3*%
%TO.N,ADC3*%
X165431692Y-130356890D03*
D12*
%TO.P,U1,23,AN4/QEA/IC7/CN6/RB4*%
%TO.N,ADC4*%
X165431692Y-127952728D03*
%TO.P,U1,24,AN5/QEB/IC8/CN7/RB5*%
%TO.N,ADC5*%
X164866006Y-127387042D03*
%TO.P,U1,25,AN6/OCFA/RB6*%
%TO.N,ADC6*%
X164300320Y-126821356D03*
%TO.P,U1,26,AN7/RB7*%
%TO.N,ADC7*%
X163734636Y-126255671D03*
%TO.P,U1,27,AN8/RB8*%
%TO.N,ADC8*%
X163168949Y-125689985D03*
%TO.P,U1,28,VDD*%
%TO.N,+5V*%
X162603263Y-125124298D03*
%TO.P,U1,29,VSS*%
%TO.N,GND*%
X162037579Y-124558615D03*
%TO.P,U1,30,OSC1/CLKI*%
%TO.N,CLKIN*%
X161471893Y-123992928D03*
%TO.P,U1,31,OSC2/CLKO/RC15*%
%TO.N,CLKOUT*%
X160906209Y-123427244D03*
%TO.P,U1,32,EMUD1/SOSCI/T2CK/U1ATX/CN1/RC13*%
%TO.N,unconnected-(U1-Pad32)*%
X160340523Y-122861558D03*
%TO.P,U1,33,NC*%
%TO.N,unconnected-(U1-Pad33)*%
X159774838Y-122295873D03*
D13*
%TO.P,U1,34,NC*%
%TO.N,unconnected-(U1-Pad34)*%
X157370674Y-122295873D03*
%TO.P,U1,35,EMUC1/SOSCO/T1CK/U1ARX/CN0/RC14*%
%TO.N,unconnected-(U1-Pad35)*%
X156804989Y-122861558D03*
%TO.P,U1,36,~{FLTA}/INT0RE8*%
%TO.N,FAULT*%
X156239303Y-123427244D03*
%TO.P,U1,37,EMUD2/OC2/IC2/INT2/RD1*%
%TO.N,LCD_DATA3*%
X155673619Y-123992928D03*
%TO.P,U1,38,OC4/RD3*%
%TO.N,LCD_DATA2*%
X155107933Y-124558615D03*
%TO.P,U1,39,VSS*%
%TO.N,GND*%
X154542247Y-125124300D03*
%TO.P,U1,40,VDD*%
%TO.N,+5V*%
X153976563Y-125689985D03*
%TO.P,U1,41,OC3/RD2*%
%TO.N,LCD_DATA1*%
X153410876Y-126255671D03*
%TO.P,U1,42,EMUC2/OC1/IC1/INT1/RD0*%
%TO.N,LCD_DATA0*%
X152845192Y-126821356D03*
%TO.P,U1,43,SCK1/RF6*%
%TO.N,LCD_BACKLIGHT*%
X152279506Y-127387042D03*
%TO.P,U1,44,PGD/EMUD/U1TX/SDO1/SCL/RF3*%
%TO.N,PICkit4_PGD*%
X151713820Y-127952728D03*
%TD*%
D14*
%TO.P,C7,1*%
%TO.N,+5V*%
X166072756Y-135427244D03*
%TO.P,C7,2*%
%TO.N,GND*%
X164927244Y-136572756D03*
%TD*%
D15*
%TO.P,JP1,1,A*%
%TO.N,Net-(JP1-Pad1)*%
X176275000Y-138450000D03*
D16*
%TO.P,JP1,2,B*%
%TO.N,PICkit4_MCLR*%
X176275000Y-135910000D03*
%TD*%
D17*
%TO.P,C5,1*%
%TO.N,+5V*%
X150427244Y-123072756D03*
%TO.P,C5,2*%
%TO.N,GND*%
X151572756Y-121927244D03*
%TD*%
D18*
%TO.P,C2,1*%
%TO.N,CLKOUT*%
X154572756Y-119427244D03*
%TO.P,C2,2*%
%TO.N,GND*%
X152952756Y-119427244D03*
%TD*%
%TO.P,C1,1*%
%TO.N,CLKIN*%
X160952756Y-119427244D03*
%TO.P,C1,2*%
%TO.N,GND*%
X162572756Y-119427244D03*
%TD*%
D19*
%TO.P,J4,1,Pin_1*%
%TO.N,ADC8*%
X168250000Y-115000000D03*
D20*
%TO.P,J4,2,Pin_2*%
%TO.N,ADC7*%
X170750000Y-115000000D03*
%TO.P,J4,3,Pin_3*%
%TO.N,ADC6*%
X173250000Y-115000000D03*
%TO.P,J4,4,Pin_4*%
%TO.N,ADC5*%
X175750000Y-115000000D03*
%TO.P,J4,5,Pin_5*%
%TO.N,ADC4*%
X178250000Y-115000000D03*
%TO.P,J4,6,Pin_6*%
%TO.N,ADC3*%
X180750000Y-115000000D03*
%TO.P,J4,7,Pin_7*%
%TO.N,ADC2*%
X183250000Y-115000000D03*
%TO.P,J4,8,Pin_8*%
%TO.N,ADC1*%
X185750000Y-115000000D03*
%TO.P,J4,9,Pin_9*%
%TO.N,ADC0*%
X188250000Y-115000000D03*
%TO.P,J4,10,Pin_10*%
%TO.N,GND*%
X190750000Y-115000000D03*
%TD*%
D21*
%TO.P,C8,1*%
%TO.N,+5V*%
X152072756Y-136927244D03*
%TO.P,C8,2*%
%TO.N,GND*%
X150927244Y-135781732D03*
%TD*%
%TO.P,C6,1*%
%TO.N,+5V*%
X165972756Y-121327244D03*
%TO.P,C6,2*%
%TO.N,GND*%
X164827244Y-120181732D03*
%TD*%
D10*
%TO.P,R2,1*%
%TO.N,Net-(JP1-Pad1)*%
X179100000Y-137705113D03*
%TO.P,R2,2*%
%TO.N,Net-(C3-Pad1)*%
X181000000Y-137705113D03*
%TD*%
%TO.P,R5,1*%
%TO.N,Net-(J5-Pad3)*%
X133950000Y-138000000D03*
%TO.P,R5,2*%
%TO.N,+5V*%
X132050000Y-138000000D03*
%TD*%
%TO.P,R4,1*%
%TO.N,GND*%
X138000000Y-138000000D03*
%TO.P,R4,2*%
%TO.N,Net-(J5-Pad3)*%
X136100000Y-138000000D03*
%TD*%
D22*
%TO.P,D2,1,K*%
%TO.N,+5V*%
X136500000Y-127500000D03*
%TO.P,D2,2,A*%
%TO.N,UART2_+5V*%
X132400000Y-127500000D03*
%TD*%
D23*
%TO.P,J2,1,Pin_1*%
%TO.N,UART1_+5V*%
X127000000Y-122500000D03*
D24*
%TO.P,J2,2,Pin_2*%
%TO.N,PICkit4_PGC*%
X127000000Y-120000000D03*
%TO.P,J2,3,Pin_3*%
%TO.N,PICkit4_PGD*%
X127000000Y-117500000D03*
%TO.P,J2,4,Pin_4*%
%TO.N,GND*%
X127000000Y-115000000D03*
%TD*%
D19*
%TO.P,J1,1,~{MCLR}/VPP*%
%TO.N,PICkit4_MCLR*%
X134750000Y-115000000D03*
D20*
%TO.P,J1,2,VDD*%
%TO.N,PICkit4_VDD*%
X137250000Y-115000000D03*
%TO.P,J1,3,VSS*%
%TO.N,GND*%
X139750000Y-115000000D03*
%TO.P,J1,4,PGD/ICSPDAT*%
%TO.N,PICkit4_PGD*%
X142250000Y-115000000D03*
%TO.P,J1,5,PGC/ICSPCLK*%
%TO.N,PICkit4_PGC*%
X144750000Y-115000000D03*
%TO.P,J1,6,PGM/LVP*%
%TO.N,unconnected-(J1-Pad6)*%
X147250000Y-115000000D03*
%TD*%
D25*
%TO.P,C4,1*%
%TO.N,+5V*%
X143500000Y-127794888D03*
D26*
%TO.P,C4,2*%
%TO.N,GND*%
X143500000Y-130294888D03*
%TD*%
D27*
%TO.P,Q1,1,B*%
%TO.N,Net-(Q1-Pad1)*%
X170937500Y-142950000D03*
%TO.P,Q1,2,E*%
%TO.N,GND*%
X170937500Y-141050000D03*
%TO.P,Q1,3,C*%
%TO.N,Net-(J5-Pad16)*%
X169062500Y-142000000D03*
%TD*%
D28*
%TO.P,D3,1,K*%
%TO.N,+5V*%
X183900000Y-136200000D03*
%TO.P,D3,2,A*%
%TO.N,Net-(C3-Pad1)*%
X183900000Y-139500000D03*
%TD*%
D22*
%TO.P,D1,1,K*%
%TO.N,+5V*%
X136500000Y-124000000D03*
%TO.P,D1,2,A*%
%TO.N,UART1_+5V*%
X132400000Y-124000000D03*
%TD*%
D29*
%TO.P,J6,1,Pin_1*%
%TO.N,FAULT*%
X190525000Y-122950000D03*
D24*
%TO.P,J6,2,Pin_2*%
%TO.N,PWM1L*%
X190525000Y-125450000D03*
%TO.P,J6,3,Pin_3*%
%TO.N,PWM1H*%
X190525000Y-127950000D03*
%TO.P,J6,4,Pin_4*%
%TO.N,PWM2L*%
X190525000Y-130450000D03*
%TO.P,J6,5,Pin_5*%
%TO.N,PWM2H*%
X190525000Y-132950000D03*
%TO.P,J6,6,Pin_6*%
%TO.N,PWM3L*%
X190525000Y-135450000D03*
%TO.P,J6,7,Pin_7*%
%TO.N,PWM3H*%
X190525000Y-137950000D03*
%TO.P,J6,8,Pin_8*%
%TO.N,GND*%
X190525000Y-140450000D03*
%TD*%
D10*
%TO.P,R1,1*%
%TO.N,+5V*%
X179100000Y-135205113D03*
%TO.P,R1,2*%
%TO.N,Net-(C3-Pad1)*%
X181000000Y-135205113D03*
%TD*%
D23*
%TO.P,J3,1,Pin_1*%
%TO.N,GND*%
X126950000Y-136500000D03*
D24*
%TO.P,J3,2,Pin_2*%
%TO.N,UART2_RX*%
X126950000Y-134000000D03*
%TO.P,J3,3,Pin_3*%
%TO.N,UART2_TX*%
X126950000Y-131500000D03*
%TO.P,J3,4,Pin_4*%
%TO.N,UART2_+5V*%
X126950000Y-129000000D03*
%TD*%
D10*
%TO.P,R3,1*%
%TO.N,+5V*%
X161050000Y-139000000D03*
%TO.P,R3,2*%
%TO.N,Net-(J5-Pad15)*%
X162950000Y-139000000D03*
%TD*%
D25*
%TO.P,C3,1*%
%TO.N,Net-(C3-Pad1)*%
X181000000Y-131000000D03*
D26*
%TO.P,C3,2*%
%TO.N,GND*%
X178500000Y-131000000D03*
%TD*%
D15*
%TO.P,J5,1,Pin_1*%
%TO.N,GND*%
X127720000Y-142000000D03*
D16*
%TO.P,J5,2,Pin_2*%
%TO.N,+5V*%
X130260000Y-142000000D03*
%TO.P,J5,3,Pin_3*%
%TO.N,Net-(J5-Pad3)*%
X132800000Y-142000000D03*
%TO.P,J5,4,Pin_4*%
%TO.N,LCD_CS_RS*%
X135340000Y-142000000D03*
%TO.P,J5,5,Pin_5*%
%TO.N,GND*%
X137880000Y-142000000D03*
%TO.P,J5,6,Pin_6*%
%TO.N,LCD_WR_ENABLE*%
X140420000Y-142000000D03*
%TO.P,J5,7,Pin_7*%
%TO.N,GND*%
X142960000Y-142000000D03*
%TO.P,J5,8,Pin_8*%
X145500000Y-142000000D03*
%TO.P,J5,9,Pin_9*%
X148040000Y-142000000D03*
%TO.P,J5,10,Pin_10*%
X150580000Y-142000000D03*
%TO.P,J5,11,Pin_11*%
%TO.N,LCD_DATA0*%
X153120000Y-142000000D03*
%TO.P,J5,12,Pin_12*%
%TO.N,LCD_DATA1*%
X155660000Y-142000000D03*
%TO.P,J5,13,Pin_13*%
%TO.N,LCD_DATA2*%
X158200000Y-142000000D03*
%TO.P,J5,14,Pin_14*%
%TO.N,LCD_DATA3*%
X160740000Y-142000000D03*
%TO.P,J5,15,Pin_15*%
%TO.N,Net-(J5-Pad15)*%
X163280000Y-142000000D03*
%TO.P,J5,16,Pin_16*%
%TO.N,Net-(J5-Pad16)*%
X165820000Y-142000000D03*
%TD*%
D30*
%TO.N,GND*%
X165500000Y-138000000D03*
X138500000Y-136500000D03*
X152000000Y-119500000D03*
X172250000Y-141100000D03*
X150000000Y-137000000D03*
X162700000Y-117900000D03*
X150500000Y-120500000D03*
X164000000Y-119000000D03*
%TO.N,PICkit4_MCLR*%
X162000000Y-128500000D03*
%TO.N,PICkit4_PGC*%
X144678465Y-123321535D03*
%TO.N,LCD_DATA0*%
X154500000Y-128250000D03*
%TO.N,LCD_DATA1*%
X155901000Y-127250000D03*
%TO.N,LCD_DATA2*%
X156700500Y-126500000D03*
%TO.N,LCD_DATA3*%
X157500000Y-125750000D03*
%TO.N,PWM1L*%
X160488996Y-132988996D03*
%TO.N,PWM1H*%
X159750000Y-133701977D03*
%TO.N,PWM2L*%
X158750000Y-134501477D03*
%TO.N,PWM2H*%
X157933711Y-133924695D03*
%TO.N,PWM3L*%
X157222281Y-133222647D03*
%TO.N,PWM3H*%
X156500000Y-132500000D03*
%TO.N,FAULT*%
X158800000Y-124000000D03*
%TO.N,LCD_BACKLIGHT*%
X155900000Y-131700000D03*
X168100000Y-139000000D03*
%TD*%
D31*
%TO.N,CLKIN*%
X160000000Y-115000000D02*
X160000000Y-118474488D01*
X160952756Y-120611380D02*
X160952756Y-119427244D01*
X162152205Y-121810829D02*
X160952756Y-120611380D01*
X161471893Y-123992928D02*
X162152205Y-123312616D01*
X162152205Y-123312616D02*
X162152205Y-121810829D01*
X160000000Y-118474488D02*
X160952756Y-119427244D01*
%TO.N,GND*%
X154542247Y-125124300D02*
X151572756Y-122154809D01*
D32*
X150500000Y-120854488D02*
X151572756Y-121927244D01*
D31*
X151810932Y-134898044D02*
X150927244Y-135781732D01*
X162037579Y-124558615D02*
X164000000Y-122596194D01*
X162037580Y-133751002D02*
X162105490Y-133751002D01*
D32*
X150500000Y-120500000D02*
X150500000Y-120854488D01*
D31*
X164000000Y-122596194D02*
X164000000Y-121008976D01*
X164000000Y-121008976D02*
X164827244Y-120181732D01*
D32*
X165500000Y-138000000D02*
X165500000Y-137145512D01*
X162700000Y-117900000D02*
X162700000Y-119300000D01*
X172200000Y-141050000D02*
X172250000Y-141100000D01*
D31*
X152829516Y-134898044D02*
X151810932Y-134898044D01*
D32*
X150000000Y-136708976D02*
X150927244Y-135781732D01*
D31*
X162105490Y-133751002D02*
X164927244Y-136572756D01*
D32*
X162700000Y-119300000D02*
X162572756Y-119427244D01*
X170937500Y-141050000D02*
X172200000Y-141050000D01*
X165500000Y-137145512D02*
X164927244Y-136572756D01*
X164827244Y-119827244D02*
X164000000Y-119000000D01*
X152880000Y-119500000D02*
X152952756Y-119427244D01*
X138500000Y-137500000D02*
X138000000Y-138000000D01*
D31*
X154542245Y-133185315D02*
X152829516Y-134898044D01*
D32*
X138500000Y-136500000D02*
X138500000Y-137500000D01*
X164827244Y-120181732D02*
X164827244Y-119827244D01*
D31*
X151572756Y-122154809D02*
X151572756Y-121927244D01*
D32*
X152000000Y-119500000D02*
X152880000Y-119500000D01*
X150000000Y-137000000D02*
X150000000Y-136708976D01*
D31*
%TO.N,CLKOUT*%
X161552695Y-122059155D02*
X158920784Y-119427244D01*
X155120000Y-118880000D02*
X154572756Y-119427244D01*
X161552695Y-122780758D02*
X161552695Y-122059155D01*
X160906209Y-123427244D02*
X161552695Y-122780758D01*
X155120000Y-115000000D02*
X155120000Y-118880000D01*
X158920784Y-119427244D02*
X154572756Y-119427244D01*
%TO.N,Net-(C3-Pad1)*%
X181000000Y-135205113D02*
X181000000Y-131000000D01*
X181000000Y-137705113D02*
X182105113Y-137705113D01*
X181000000Y-135205113D02*
X181000000Y-137705113D01*
X182105113Y-137705113D02*
X183900000Y-139500000D01*
%TO.N,+5V*%
X164612627Y-133967115D02*
X166072756Y-135427244D01*
X155107932Y-133751002D02*
X155107932Y-133892068D01*
X162603265Y-133185317D02*
X163385063Y-133967115D01*
X162603263Y-125124298D02*
X165972756Y-121754805D01*
X163385063Y-133967115D02*
X164612627Y-133967115D01*
X155107932Y-133892068D02*
X152072756Y-136927244D01*
X151359334Y-123072756D02*
X150427244Y-123072756D01*
X153976563Y-125689985D02*
X151359334Y-123072756D01*
X165972756Y-121754805D02*
X165972756Y-121327244D01*
D32*
%TO.N,UART1_+5V*%
X128500000Y-124000000D02*
X127000000Y-122500000D01*
X132400000Y-124000000D02*
X128500000Y-124000000D01*
%TO.N,UART2_+5V*%
X132400000Y-127500000D02*
X128450000Y-127500000D01*
X128450000Y-127500000D02*
X126950000Y-129000000D01*
D31*
%TO.N,PICkit4_MCLR*%
X173732604Y-133367604D02*
X176275000Y-135910000D01*
X162522464Y-129022464D02*
X162000000Y-128500000D01*
X163168950Y-132619632D02*
X163916922Y-133367604D01*
X163168950Y-132619632D02*
X162522464Y-131973146D01*
X163916922Y-133367604D02*
X173732604Y-133367604D01*
X162522464Y-131973146D02*
X162522464Y-129022464D01*
%TO.N,PICkit4_PGD*%
X140000000Y-117500000D02*
X150452728Y-127952728D01*
X142250000Y-115000000D02*
X142250000Y-119750000D01*
X140000000Y-117500000D02*
X127000000Y-117500000D01*
X151713820Y-127952728D02*
X150452728Y-127952728D01*
%TO.N,PICkit4_PGC*%
X141356930Y-120000000D02*
X127000000Y-120000000D01*
X141356930Y-120000000D02*
X144678465Y-123321535D01*
X144678465Y-123321535D02*
X151713820Y-130356890D01*
%TO.N,UART2_RX*%
X151233943Y-133099511D02*
X128400489Y-133099511D01*
X152845192Y-131488262D02*
X151233943Y-133099511D01*
X128400489Y-133099511D02*
X127500000Y-134000000D01*
X127500000Y-134000000D02*
X126950000Y-134000000D01*
%TO.N,UART2_TX*%
X150844183Y-132500000D02*
X127950000Y-132500000D01*
X152279506Y-130922576D02*
X152279506Y-131064677D01*
X127950000Y-132500000D02*
X126950000Y-131500000D01*
X152279506Y-131064677D02*
X150844183Y-132500000D01*
%TO.N,ADC0*%
X164448783Y-132768093D02*
X167231907Y-132768093D01*
X167231907Y-132768093D02*
X181000000Y-119000000D01*
X188250000Y-115550000D02*
X188250000Y-115000000D01*
X163734636Y-132053946D02*
X164448783Y-132768093D01*
X181000000Y-119000000D02*
X184800000Y-119000000D01*
X184800000Y-119000000D02*
X188250000Y-115550000D01*
%TO.N,ADC1*%
X182349511Y-118400489D02*
X185750000Y-115000000D01*
X166983591Y-132168573D02*
X180751675Y-118400489D01*
X164300320Y-131488262D02*
X164980631Y-132168573D01*
X164980631Y-132168573D02*
X166983591Y-132168573D01*
X180751675Y-118400489D02*
X182349511Y-118400489D01*
%TO.N,ADC2*%
X166680938Y-131569062D02*
X183250000Y-115000000D01*
X164866006Y-130922576D02*
X165512492Y-131569062D01*
X165512492Y-131569062D02*
X166680938Y-131569062D01*
%TO.N,ADC3*%
X180750000Y-116489180D02*
X180750000Y-115000000D01*
X165431692Y-130356890D02*
X166882290Y-130356890D01*
X166882290Y-130356890D02*
X180750000Y-116489180D01*
%TO.N,ADC4*%
X165431692Y-127952728D02*
X168438616Y-127952728D01*
X178250000Y-118141344D02*
X178250000Y-115000000D01*
X168438616Y-127952728D02*
X178250000Y-118141344D01*
%TO.N,ADC5*%
X165954517Y-126298531D02*
X169244977Y-126298531D01*
X175750000Y-119793508D02*
X175750000Y-115000000D01*
X169244977Y-126298531D02*
X175750000Y-119793508D01*
X164866006Y-127387042D02*
X165954517Y-126298531D01*
%TO.N,ADC6*%
X164300320Y-126821356D02*
X165422655Y-125699021D01*
X168996651Y-125699021D02*
X173250000Y-121445672D01*
X165422655Y-125699021D02*
X168996651Y-125699021D01*
X173250000Y-121445672D02*
X173250000Y-115000000D01*
%TO.N,ADC7*%
X163734636Y-126255671D02*
X164890796Y-125099511D01*
X170750000Y-123097836D02*
X170750000Y-115000000D01*
X168748325Y-125099511D02*
X170750000Y-123097836D01*
X164890796Y-125099511D02*
X168748325Y-125099511D01*
%TO.N,ADC8*%
X168500000Y-115250000D02*
X168500000Y-123500000D01*
X167500000Y-124500000D02*
X168500000Y-123500000D01*
X164358934Y-124500000D02*
X167500000Y-124500000D01*
X163168949Y-125689985D02*
X164358934Y-124500000D01*
X168250000Y-115000000D02*
X168500000Y-115250000D01*
%TO.N,Net-(J5-Pad3)*%
X133950000Y-140850000D02*
X132800000Y-142000000D01*
X133950000Y-138000000D02*
X133950000Y-140850000D01*
X133950000Y-138000000D02*
X136100000Y-138000000D01*
%TO.N,LCD_CS_RS*%
X153410876Y-132053946D02*
X151765801Y-133699021D01*
X151765801Y-133699021D02*
X147800979Y-133699021D01*
X137340000Y-140000000D02*
X135340000Y-142000000D01*
X141500000Y-140000000D02*
X137340000Y-140000000D01*
X147800979Y-133699021D02*
X141500000Y-140000000D01*
%TO.N,LCD_WR_ENABLE*%
X148121468Y-134298532D02*
X152297662Y-134298532D01*
X140420000Y-142000000D02*
X148121468Y-134298532D01*
X152297662Y-134298532D02*
X153976562Y-132619632D01*
%TO.N,LCD_DATA0*%
X154273836Y-128250000D02*
X154500000Y-128250000D01*
X152845192Y-126821356D02*
X154273836Y-128250000D01*
%TO.N,LCD_DATA1*%
X154405205Y-127250000D02*
X155901000Y-127250000D01*
X153410876Y-126255671D02*
X154405205Y-127250000D01*
%TO.N,LCD_DATA2*%
X155107933Y-124558615D02*
X156700500Y-126151182D01*
X156700500Y-126151182D02*
X156700500Y-126500000D01*
%TO.N,LCD_DATA3*%
X155673619Y-123992928D02*
X155742928Y-123992928D01*
X155742928Y-123992928D02*
X157500000Y-125750000D01*
D32*
%TO.N,Net-(J5-Pad15)*%
X163280000Y-142000000D02*
X163280000Y-139330000D01*
X163280000Y-139330000D02*
X162950000Y-139000000D01*
%TO.N,Net-(J5-Pad16)*%
X169062500Y-142000000D02*
X165820000Y-142000000D01*
D31*
%TO.N,PWM1L*%
X161471894Y-134316688D02*
X160488996Y-133333790D01*
X160488996Y-133333790D02*
X160488996Y-132988996D01*
%TO.N,PWM1H*%
X160906209Y-134882373D02*
X159750000Y-133726164D01*
X159750000Y-133726164D02*
X159750000Y-133701977D01*
%TO.N,PWM2L*%
X157370675Y-136013745D02*
X158750000Y-134634420D01*
X158750000Y-134634420D02*
X158750000Y-134501477D01*
%TO.N,PWM2H*%
X156804989Y-135448059D02*
X157933711Y-134319337D01*
X157933711Y-134319337D02*
X157933711Y-133924695D01*
%TO.N,PWM3L*%
X157134210Y-133310718D02*
X157222281Y-133222647D01*
X156239303Y-134882373D02*
X157134210Y-133987466D01*
X157134210Y-133987466D02*
X157134210Y-133310718D01*
%TO.N,PWM3H*%
X156320104Y-132679896D02*
X156500000Y-132500000D01*
X156320104Y-133670202D02*
X156320104Y-132679896D01*
X155673618Y-134316688D02*
X156320104Y-133670202D01*
%TO.N,FAULT*%
X156885788Y-124073729D02*
X158726271Y-124073729D01*
X158726271Y-124073729D02*
X158800000Y-124000000D01*
X156239303Y-123427244D02*
X156885788Y-124073729D01*
%TO.N,Net-(JP1-Pad1)*%
X179100000Y-137705113D02*
X177019887Y-137705113D01*
X177019887Y-137705113D02*
X176275000Y-138450000D01*
%TO.N,Net-(Q1-Pad1)*%
X173250000Y-142250000D02*
X172550000Y-142950000D01*
X172550000Y-142950000D02*
X170937500Y-142950000D01*
X172500000Y-139000000D02*
X173250000Y-139750000D01*
X173250000Y-139750000D02*
X173250000Y-142250000D01*
X171000000Y-139000000D02*
X172500000Y-139000000D01*
%TO.N,LCD_BACKLIGHT*%
X169100000Y-139000000D02*
X168100000Y-139000000D01*
X155900000Y-131007536D02*
X155900000Y-131700000D01*
X152279506Y-127387042D02*
X155900000Y-131007536D01*
%TD*%
%TA.AperFunction,Conductor*%
%TO.N,+5V*%
G36*
X193433621Y-112528502D02*
G01*
X193480114Y-112582158D01*
X193491500Y-112634500D01*
X193491500Y-143365500D01*
X193471498Y-143433621D01*
X193417842Y-143480114D01*
X193365500Y-143491500D01*
X173314661Y-143491500D01*
X173246540Y-143471498D01*
X173200047Y-143417842D01*
X173189943Y-143347568D01*
X173219437Y-143282988D01*
X173225566Y-143276404D01*
X173405266Y-143096705D01*
X173730536Y-142771435D01*
X173736801Y-142765582D01*
X173774664Y-142732552D01*
X173774665Y-142732551D01*
X173780385Y-142727561D01*
X173817136Y-142675271D01*
X173821028Y-142670029D01*
X173860476Y-142619718D01*
X173863600Y-142612799D01*
X173864988Y-142610507D01*
X173873357Y-142595835D01*
X173874622Y-142593475D01*
X173878990Y-142587261D01*
X173902203Y-142527723D01*
X173904759Y-142521642D01*
X173913714Y-142501811D01*
X173931045Y-142463427D01*
X173932430Y-142455954D01*
X173933234Y-142453388D01*
X173937855Y-142437165D01*
X173938520Y-142434573D01*
X173941282Y-142427491D01*
X173949622Y-142364139D01*
X173950654Y-142357623D01*
X173960911Y-142302281D01*
X173962295Y-142294814D01*
X173958709Y-142232620D01*
X173958500Y-142225367D01*
X173958500Y-139778912D01*
X173958792Y-139770342D01*
X173962209Y-139720224D01*
X173962209Y-139720220D01*
X173962725Y-139712648D01*
X173951738Y-139649697D01*
X173950776Y-139643175D01*
X173944014Y-139587298D01*
X173943102Y-139579758D01*
X173940419Y-139572657D01*
X173939778Y-139570048D01*
X173935315Y-139553738D01*
X173934549Y-139551202D01*
X173933243Y-139543716D01*
X173927761Y-139531226D01*
X173907557Y-139485202D01*
X173905064Y-139479093D01*
X173885173Y-139426452D01*
X173885172Y-139426451D01*
X173882487Y-139419344D01*
X173878183Y-139413081D01*
X173876946Y-139410715D01*
X173868701Y-139395903D01*
X173867368Y-139393649D01*
X173864315Y-139386695D01*
X173825413Y-139335998D01*
X173821541Y-139330668D01*
X173789661Y-139284280D01*
X173789656Y-139284275D01*
X173785357Y-139278019D01*
X173778731Y-139272115D01*
X173738830Y-139236565D01*
X173733554Y-139231584D01*
X173021450Y-138519480D01*
X173015596Y-138513215D01*
X172992963Y-138487271D01*
X172977561Y-138469615D01*
X172925280Y-138432871D01*
X172919986Y-138428939D01*
X172911649Y-138422402D01*
X172869718Y-138389524D01*
X172862802Y-138386401D01*
X172860516Y-138385017D01*
X172845835Y-138376643D01*
X172843475Y-138375378D01*
X172837261Y-138371010D01*
X172830182Y-138368250D01*
X172830180Y-138368249D01*
X172777725Y-138347798D01*
X172771656Y-138345247D01*
X172713427Y-138318955D01*
X172705960Y-138317571D01*
X172703405Y-138316770D01*
X172687152Y-138312141D01*
X172684572Y-138311478D01*
X172677491Y-138308718D01*
X172669960Y-138307727D01*
X172669958Y-138307726D01*
X172640339Y-138303827D01*
X172614139Y-138300378D01*
X172607641Y-138299348D01*
X172544814Y-138287704D01*
X172537234Y-138288141D01*
X172537233Y-138288141D01*
X172482608Y-138291291D01*
X172475354Y-138291500D01*
X172183884Y-138291500D01*
X172115763Y-138271498D01*
X172069270Y-138217842D01*
X172059174Y-138176793D01*
X172058500Y-138176866D01*
X172058131Y-138173469D01*
X172051745Y-138114684D01*
X172000615Y-137978295D01*
X171913261Y-137861739D01*
X171796705Y-137774385D01*
X171660316Y-137723255D01*
X171598134Y-137716500D01*
X170401866Y-137716500D01*
X170339684Y-137723255D01*
X170203295Y-137774385D01*
X170196110Y-137779770D01*
X170196108Y-137779771D01*
X170125565Y-137832640D01*
X170059058Y-137857488D01*
X169989676Y-137842435D01*
X169974435Y-137832640D01*
X169903892Y-137779771D01*
X169903890Y-137779770D01*
X169896705Y-137774385D01*
X169760316Y-137723255D01*
X169698134Y-137716500D01*
X168501866Y-137716500D01*
X168439684Y-137723255D01*
X168303295Y-137774385D01*
X168186739Y-137861739D01*
X168099385Y-137978295D01*
X168096233Y-137986703D01*
X168085726Y-138014730D01*
X168043084Y-138071494D01*
X167993941Y-138093747D01*
X167951750Y-138102715D01*
X167817712Y-138131206D01*
X167811682Y-138133891D01*
X167811681Y-138133891D01*
X167649278Y-138206197D01*
X167649276Y-138206198D01*
X167643248Y-138208882D01*
X167637907Y-138212762D01*
X167637906Y-138212763D01*
X167628499Y-138219598D01*
X167488747Y-138321134D01*
X167484326Y-138326044D01*
X167484325Y-138326045D01*
X167395227Y-138424999D01*
X167360960Y-138463056D01*
X167265473Y-138628444D01*
X167206458Y-138810072D01*
X167205768Y-138816633D01*
X167205768Y-138816635D01*
X167198550Y-138885316D01*
X167186496Y-139000000D01*
X167187186Y-139006565D01*
X167205490Y-139180715D01*
X167206458Y-139189928D01*
X167265473Y-139371556D01*
X167268776Y-139377278D01*
X167268777Y-139377279D01*
X167288486Y-139411416D01*
X167360960Y-139536944D01*
X167365378Y-139541851D01*
X167365379Y-139541852D01*
X167376081Y-139553738D01*
X167488747Y-139678866D01*
X167643248Y-139791118D01*
X167649276Y-139793802D01*
X167649278Y-139793803D01*
X167811681Y-139866109D01*
X167817712Y-139868794D01*
X167929729Y-139892604D01*
X167993941Y-139906253D01*
X168056415Y-139939982D01*
X168085726Y-139985270D01*
X168099385Y-140021705D01*
X168186739Y-140138261D01*
X168303295Y-140225615D01*
X168439684Y-140276745D01*
X168501866Y-140283500D01*
X169698134Y-140283500D01*
X169702746Y-140282999D01*
X169721166Y-140280998D01*
X169791049Y-140293526D01*
X169843065Y-140341847D01*
X169860699Y-140410619D01*
X169834334Y-140483487D01*
X169831156Y-140487584D01*
X169825547Y-140493193D01*
X169740855Y-140636399D01*
X169738644Y-140644010D01*
X169738643Y-140644012D01*
X169730171Y-140673173D01*
X169694438Y-140796169D01*
X169691500Y-140833498D01*
X169691500Y-141065500D01*
X169671498Y-141133621D01*
X169617842Y-141180114D01*
X169565500Y-141191500D01*
X169512897Y-141191500D01*
X169449898Y-141174620D01*
X169434056Y-141165473D01*
X169252428Y-141106458D01*
X169245867Y-141105768D01*
X169245865Y-141105768D01*
X169192611Y-141100171D01*
X169110110Y-141091500D01*
X166885856Y-141091500D01*
X166817735Y-141071498D01*
X166792662Y-141050299D01*
X166753148Y-141006873D01*
X166753145Y-141006870D01*
X166749670Y-141003051D01*
X166661454Y-140933382D01*
X166578414Y-140867800D01*
X166578410Y-140867798D01*
X166574359Y-140864598D01*
X166538028Y-140844542D01*
X166462011Y-140802579D01*
X166378789Y-140756638D01*
X166373920Y-140754914D01*
X166373916Y-140754912D01*
X166173087Y-140683795D01*
X166173083Y-140683794D01*
X166168212Y-140682069D01*
X166163119Y-140681162D01*
X166163116Y-140681161D01*
X165953373Y-140643800D01*
X165953367Y-140643799D01*
X165948284Y-140642894D01*
X165874452Y-140641992D01*
X165730081Y-140640228D01*
X165730079Y-140640228D01*
X165724911Y-140640165D01*
X165504091Y-140673955D01*
X165291756Y-140743357D01*
X165093607Y-140846507D01*
X165089474Y-140849610D01*
X165089471Y-140849612D01*
X164919100Y-140977530D01*
X164914965Y-140980635D01*
X164760629Y-141142138D01*
X164653201Y-141299621D01*
X164598293Y-141344621D01*
X164527768Y-141352792D01*
X164464021Y-141321538D01*
X164443324Y-141297054D01*
X164362822Y-141172617D01*
X164362820Y-141172614D01*
X164360014Y-141168277D01*
X164355852Y-141163703D01*
X164221307Y-141015839D01*
X164190255Y-140951993D01*
X164188500Y-140931039D01*
X164188500Y-139411416D01*
X164190051Y-139391704D01*
X164190845Y-139386695D01*
X164192252Y-139377809D01*
X164191713Y-139367513D01*
X164188673Y-139309519D01*
X164188500Y-139302925D01*
X164188500Y-139282390D01*
X164188027Y-139277888D01*
X164186353Y-139261957D01*
X164185836Y-139255384D01*
X164182603Y-139193696D01*
X164182603Y-139193695D01*
X164182257Y-139187096D01*
X164178616Y-139173508D01*
X164175012Y-139154061D01*
X164174233Y-139146644D01*
X164174232Y-139146640D01*
X164173542Y-139140072D01*
X164152402Y-139075009D01*
X164150529Y-139068685D01*
X164134539Y-139009010D01*
X164134538Y-139009006D01*
X164132829Y-139002630D01*
X164126440Y-138990092D01*
X164118875Y-138971826D01*
X164116569Y-138964728D01*
X164116568Y-138964726D01*
X164114527Y-138958444D01*
X164080335Y-138899220D01*
X164077188Y-138893426D01*
X164049127Y-138838352D01*
X164049125Y-138838349D01*
X164046129Y-138832469D01*
X164037267Y-138821526D01*
X164026080Y-138805251D01*
X164025382Y-138804041D01*
X164008500Y-138741040D01*
X164008500Y-138176866D01*
X164001745Y-138114684D01*
X163950615Y-137978295D01*
X163863261Y-137861739D01*
X163746705Y-137774385D01*
X163610316Y-137723255D01*
X163548134Y-137716500D01*
X162351866Y-137716500D01*
X162289684Y-137723255D01*
X162153295Y-137774385D01*
X162130392Y-137791550D01*
X162075148Y-137832953D01*
X162008642Y-137857801D01*
X161939259Y-137842748D01*
X161924018Y-137832953D01*
X161853648Y-137780214D01*
X161838054Y-137771676D01*
X161717606Y-137726522D01*
X161702351Y-137722895D01*
X161651486Y-137717369D01*
X161644672Y-137717000D01*
X161322115Y-137717000D01*
X161306876Y-137721475D01*
X161305671Y-137722865D01*
X161304000Y-137730548D01*
X161304000Y-140264884D01*
X161308475Y-140280123D01*
X161309865Y-140281328D01*
X161317548Y-140282999D01*
X161644669Y-140282999D01*
X161651490Y-140282629D01*
X161702352Y-140277105D01*
X161717604Y-140273479D01*
X161838054Y-140228324D01*
X161853648Y-140219786D01*
X161924018Y-140167047D01*
X161990524Y-140142199D01*
X162059907Y-140157252D01*
X162075148Y-140167047D01*
X162153295Y-140225615D01*
X162161703Y-140228767D01*
X162289684Y-140276745D01*
X162288458Y-140280016D01*
X162336405Y-140307490D01*
X162369144Y-140370487D01*
X162371500Y-140394738D01*
X162371500Y-140933737D01*
X162351498Y-141001858D01*
X162336594Y-141020788D01*
X162255849Y-141105283D01*
X162220629Y-141142138D01*
X162113201Y-141299621D01*
X162058293Y-141344621D01*
X161987768Y-141352792D01*
X161924021Y-141321538D01*
X161903324Y-141297054D01*
X161822822Y-141172617D01*
X161822820Y-141172614D01*
X161820014Y-141168277D01*
X161669670Y-141003051D01*
X161665619Y-140999852D01*
X161665615Y-140999848D01*
X161498414Y-140867800D01*
X161498410Y-140867798D01*
X161494359Y-140864598D01*
X161458028Y-140844542D01*
X161382011Y-140802579D01*
X161298789Y-140756638D01*
X161293920Y-140754914D01*
X161293916Y-140754912D01*
X161093087Y-140683795D01*
X161093083Y-140683794D01*
X161088212Y-140682069D01*
X161083119Y-140681162D01*
X161083116Y-140681161D01*
X160873373Y-140643800D01*
X160873367Y-140643799D01*
X160868284Y-140642894D01*
X160794452Y-140641992D01*
X160650081Y-140640228D01*
X160650079Y-140640228D01*
X160644911Y-140640165D01*
X160424091Y-140673955D01*
X160211756Y-140743357D01*
X160013607Y-140846507D01*
X160009474Y-140849610D01*
X160009471Y-140849612D01*
X159839100Y-140977530D01*
X159834965Y-140980635D01*
X159680629Y-141142138D01*
X159573201Y-141299621D01*
X159518293Y-141344621D01*
X159447768Y-141352792D01*
X159384021Y-141321538D01*
X159363324Y-141297054D01*
X159282822Y-141172617D01*
X159282820Y-141172614D01*
X159280014Y-141168277D01*
X159129670Y-141003051D01*
X159125619Y-140999852D01*
X159125615Y-140999848D01*
X158958414Y-140867800D01*
X158958410Y-140867798D01*
X158954359Y-140864598D01*
X158918028Y-140844542D01*
X158842011Y-140802579D01*
X158758789Y-140756638D01*
X158753920Y-140754914D01*
X158753916Y-140754912D01*
X158553087Y-140683795D01*
X158553083Y-140683794D01*
X158548212Y-140682069D01*
X158543119Y-140681162D01*
X158543116Y-140681161D01*
X158333373Y-140643800D01*
X158333367Y-140643799D01*
X158328284Y-140642894D01*
X158254452Y-140641992D01*
X158110081Y-140640228D01*
X158110079Y-140640228D01*
X158104911Y-140640165D01*
X157884091Y-140673955D01*
X157671756Y-140743357D01*
X157473607Y-140846507D01*
X157469474Y-140849610D01*
X157469471Y-140849612D01*
X157299100Y-140977530D01*
X157294965Y-140980635D01*
X157140629Y-141142138D01*
X157033201Y-141299621D01*
X156978293Y-141344621D01*
X156907768Y-141352792D01*
X156844021Y-141321538D01*
X156823324Y-141297054D01*
X156742822Y-141172617D01*
X156742820Y-141172614D01*
X156740014Y-141168277D01*
X156589670Y-141003051D01*
X156585619Y-140999852D01*
X156585615Y-140999848D01*
X156418414Y-140867800D01*
X156418410Y-140867798D01*
X156414359Y-140864598D01*
X156378028Y-140844542D01*
X156302011Y-140802579D01*
X156218789Y-140756638D01*
X156213920Y-140754914D01*
X156213916Y-140754912D01*
X156013087Y-140683795D01*
X156013083Y-140683794D01*
X156008212Y-140682069D01*
X156003119Y-140681162D01*
X156003116Y-140681161D01*
X155793373Y-140643800D01*
X155793367Y-140643799D01*
X155788284Y-140642894D01*
X155714452Y-140641992D01*
X155570081Y-140640228D01*
X155570079Y-140640228D01*
X155564911Y-140640165D01*
X155344091Y-140673955D01*
X155131756Y-140743357D01*
X154933607Y-140846507D01*
X154929474Y-140849610D01*
X154929471Y-140849612D01*
X154759100Y-140977530D01*
X154754965Y-140980635D01*
X154600629Y-141142138D01*
X154493201Y-141299621D01*
X154438293Y-141344621D01*
X154367768Y-141352792D01*
X154304021Y-141321538D01*
X154283324Y-141297054D01*
X154202822Y-141172617D01*
X154202820Y-141172614D01*
X154200014Y-141168277D01*
X154049670Y-141003051D01*
X154045619Y-140999852D01*
X154045615Y-140999848D01*
X153878414Y-140867800D01*
X153878410Y-140867798D01*
X153874359Y-140864598D01*
X153838028Y-140844542D01*
X153762011Y-140802579D01*
X153678789Y-140756638D01*
X153673920Y-140754914D01*
X153673916Y-140754912D01*
X153473087Y-140683795D01*
X153473083Y-140683794D01*
X153468212Y-140682069D01*
X153463119Y-140681162D01*
X153463116Y-140681161D01*
X153253373Y-140643800D01*
X153253367Y-140643799D01*
X153248284Y-140642894D01*
X153174452Y-140641992D01*
X153030081Y-140640228D01*
X153030079Y-140640228D01*
X153024911Y-140640165D01*
X152804091Y-140673955D01*
X152591756Y-140743357D01*
X152393607Y-140846507D01*
X152389474Y-140849610D01*
X152389471Y-140849612D01*
X152219100Y-140977530D01*
X152214965Y-140980635D01*
X152060629Y-141142138D01*
X151953201Y-141299621D01*
X151898293Y-141344621D01*
X151827768Y-141352792D01*
X151764021Y-141321538D01*
X151743324Y-141297054D01*
X151662822Y-141172617D01*
X151662820Y-141172614D01*
X151660014Y-141168277D01*
X151509670Y-141003051D01*
X151505619Y-140999852D01*
X151505615Y-140999848D01*
X151338414Y-140867800D01*
X151338410Y-140867798D01*
X151334359Y-140864598D01*
X151298028Y-140844542D01*
X151222011Y-140802579D01*
X151138789Y-140756638D01*
X151133920Y-140754914D01*
X151133916Y-140754912D01*
X150933087Y-140683795D01*
X150933083Y-140683794D01*
X150928212Y-140682069D01*
X150923119Y-140681162D01*
X150923116Y-140681161D01*
X150713373Y-140643800D01*
X150713367Y-140643799D01*
X150708284Y-140642894D01*
X150634452Y-140641992D01*
X150490081Y-140640228D01*
X150490079Y-140640228D01*
X150484911Y-140640165D01*
X150264091Y-140673955D01*
X150051756Y-140743357D01*
X149853607Y-140846507D01*
X149849474Y-140849610D01*
X149849471Y-140849612D01*
X149679100Y-140977530D01*
X149674965Y-140980635D01*
X149520629Y-141142138D01*
X149413201Y-141299621D01*
X149358293Y-141344621D01*
X149287768Y-141352792D01*
X149224021Y-141321538D01*
X149203324Y-141297054D01*
X149122822Y-141172617D01*
X149122820Y-141172614D01*
X149120014Y-141168277D01*
X148969670Y-141003051D01*
X148965619Y-140999852D01*
X148965615Y-140999848D01*
X148798414Y-140867800D01*
X148798410Y-140867798D01*
X148794359Y-140864598D01*
X148758028Y-140844542D01*
X148682011Y-140802579D01*
X148598789Y-140756638D01*
X148593920Y-140754914D01*
X148593916Y-140754912D01*
X148393087Y-140683795D01*
X148393083Y-140683794D01*
X148388212Y-140682069D01*
X148383119Y-140681162D01*
X148383116Y-140681161D01*
X148173373Y-140643800D01*
X148173367Y-140643799D01*
X148168284Y-140642894D01*
X148094452Y-140641992D01*
X147950081Y-140640228D01*
X147950079Y-140640228D01*
X147944911Y-140640165D01*
X147724091Y-140673955D01*
X147511756Y-140743357D01*
X147313607Y-140846507D01*
X147309474Y-140849610D01*
X147309471Y-140849612D01*
X147139100Y-140977530D01*
X147134965Y-140980635D01*
X146980629Y-141142138D01*
X146873201Y-141299621D01*
X146818293Y-141344621D01*
X146747768Y-141352792D01*
X146684021Y-141321538D01*
X146663324Y-141297054D01*
X146582822Y-141172617D01*
X146582820Y-141172614D01*
X146580014Y-141168277D01*
X146429670Y-141003051D01*
X146425619Y-140999852D01*
X146425615Y-140999848D01*
X146258414Y-140867800D01*
X146258410Y-140867798D01*
X146254359Y-140864598D01*
X146218028Y-140844542D01*
X146142011Y-140802579D01*
X146058789Y-140756638D01*
X146053920Y-140754914D01*
X146053916Y-140754912D01*
X145853087Y-140683795D01*
X145853083Y-140683794D01*
X145848212Y-140682069D01*
X145843119Y-140681162D01*
X145843116Y-140681161D01*
X145633373Y-140643800D01*
X145633367Y-140643799D01*
X145628284Y-140642894D01*
X145554452Y-140641992D01*
X145410081Y-140640228D01*
X145410079Y-140640228D01*
X145404911Y-140640165D01*
X145184091Y-140673955D01*
X144971756Y-140743357D01*
X144773607Y-140846507D01*
X144769474Y-140849610D01*
X144769471Y-140849612D01*
X144599100Y-140977530D01*
X144594965Y-140980635D01*
X144440629Y-141142138D01*
X144333201Y-141299621D01*
X144278293Y-141344621D01*
X144207768Y-141352792D01*
X144144021Y-141321538D01*
X144123324Y-141297054D01*
X144042822Y-141172617D01*
X144042820Y-141172614D01*
X144040014Y-141168277D01*
X143889670Y-141003051D01*
X143885619Y-140999852D01*
X143885615Y-140999848D01*
X143718414Y-140867800D01*
X143718410Y-140867798D01*
X143714359Y-140864598D01*
X143678028Y-140844542D01*
X143602011Y-140802579D01*
X143518789Y-140756638D01*
X143513920Y-140754914D01*
X143513916Y-140754912D01*
X143313087Y-140683795D01*
X143313083Y-140683794D01*
X143308212Y-140682069D01*
X143303119Y-140681162D01*
X143303116Y-140681161D01*
X143093373Y-140643800D01*
X143093367Y-140643799D01*
X143088284Y-140642894D01*
X143081801Y-140642815D01*
X143081290Y-140642658D01*
X143077961Y-140642343D01*
X143078026Y-140641656D01*
X143013930Y-140621985D01*
X142968093Y-140567767D01*
X142958846Y-140497375D01*
X142989123Y-140433158D01*
X142994241Y-140427729D01*
X143602301Y-139819669D01*
X159992001Y-139819669D01*
X159992371Y-139826490D01*
X159997895Y-139877352D01*
X160001521Y-139892604D01*
X160046676Y-140013054D01*
X160055214Y-140028649D01*
X160131715Y-140130724D01*
X160144276Y-140143285D01*
X160246351Y-140219786D01*
X160261946Y-140228324D01*
X160382394Y-140273478D01*
X160397649Y-140277105D01*
X160448514Y-140282631D01*
X160455328Y-140283000D01*
X160777885Y-140283000D01*
X160793124Y-140278525D01*
X160794329Y-140277135D01*
X160796000Y-140269452D01*
X160796000Y-139272115D01*
X160791525Y-139256876D01*
X160790135Y-139255671D01*
X160782452Y-139254000D01*
X160010116Y-139254000D01*
X159994877Y-139258475D01*
X159993672Y-139259865D01*
X159992001Y-139267548D01*
X159992001Y-139819669D01*
X143602301Y-139819669D01*
X144694086Y-138727885D01*
X159992000Y-138727885D01*
X159996475Y-138743124D01*
X159997865Y-138744329D01*
X160005548Y-138746000D01*
X160777885Y-138746000D01*
X160793124Y-138741525D01*
X160794329Y-138740135D01*
X160796000Y-138732452D01*
X160796000Y-137735116D01*
X160791525Y-137719877D01*
X160790135Y-137718672D01*
X160782452Y-137717001D01*
X160455331Y-137717001D01*
X160448510Y-137717371D01*
X160397648Y-137722895D01*
X160382396Y-137726521D01*
X160261946Y-137771676D01*
X160246351Y-137780214D01*
X160144276Y-137856715D01*
X160131715Y-137869276D01*
X160055214Y-137971351D01*
X160046676Y-137986946D01*
X160001522Y-138107394D01*
X159997895Y-138122649D01*
X159992369Y-138173514D01*
X159992000Y-138180328D01*
X159992000Y-138727885D01*
X144694086Y-138727885D01*
X145427986Y-137993985D01*
X151371555Y-137993985D01*
X151371686Y-137995818D01*
X151375937Y-138002433D01*
X151593102Y-138219598D01*
X151598186Y-138224160D01*
X151638059Y-138256220D01*
X151651409Y-138264442D01*
X151768514Y-138317686D01*
X151785569Y-138322673D01*
X151911839Y-138340756D01*
X151929617Y-138340756D01*
X152055887Y-138322673D01*
X152072942Y-138317686D01*
X152190045Y-138264443D01*
X152203398Y-138256220D01*
X152243279Y-138224154D01*
X152248343Y-138219610D01*
X152614319Y-137853633D01*
X152621930Y-137839695D01*
X152621798Y-137837859D01*
X152617549Y-137831247D01*
X152085568Y-137299266D01*
X152071624Y-137291652D01*
X152069791Y-137291783D01*
X152063176Y-137296034D01*
X151379169Y-137980041D01*
X151371555Y-137993985D01*
X145427986Y-137993985D01*
X145594601Y-137827370D01*
X148378034Y-135043937D01*
X148440346Y-135009911D01*
X148467129Y-135007032D01*
X149929093Y-135007032D01*
X149997214Y-135027034D01*
X150043707Y-135080690D01*
X150053811Y-135150964D01*
X150024317Y-135215544D01*
X150018188Y-135222127D01*
X149632083Y-135608232D01*
X149629943Y-135610894D01*
X149597839Y-135650822D01*
X149597837Y-135650825D01*
X149592890Y-135656978D01*
X149589622Y-135664166D01*
X149545436Y-135761350D01*
X149532603Y-135789574D01*
X149521506Y-135867059D01*
X149492051Y-135931652D01*
X149485875Y-135938288D01*
X149415168Y-136008995D01*
X149400135Y-136021836D01*
X149388747Y-136030110D01*
X149384327Y-136035019D01*
X149342984Y-136080935D01*
X149338443Y-136085720D01*
X149323928Y-136100235D01*
X149321860Y-136102789D01*
X149311006Y-136116192D01*
X149306722Y-136121207D01*
X149265381Y-136167121D01*
X149265377Y-136167126D01*
X149260960Y-136172032D01*
X149257660Y-136177748D01*
X149257657Y-136177752D01*
X149253927Y-136184213D01*
X149242727Y-136200509D01*
X149233871Y-136211446D01*
X149214860Y-136248757D01*
X149202815Y-136272397D01*
X149199669Y-136278191D01*
X149165473Y-136337420D01*
X149163432Y-136343702D01*
X149163431Y-136343704D01*
X149161125Y-136350802D01*
X149153560Y-136369068D01*
X149147171Y-136381606D01*
X149134307Y-136429617D01*
X149129469Y-136447671D01*
X149127600Y-136453979D01*
X149106458Y-136519048D01*
X149105768Y-136525613D01*
X149105766Y-136525622D01*
X149104985Y-136533051D01*
X149101383Y-136552485D01*
X149100458Y-136555939D01*
X149097743Y-136566073D01*
X149097398Y-136572664D01*
X149097397Y-136572668D01*
X149094164Y-136634360D01*
X149093647Y-136640934D01*
X149093469Y-136642632D01*
X149091500Y-136661366D01*
X149091500Y-136681902D01*
X149091327Y-136688496D01*
X149088300Y-136746256D01*
X149087748Y-136756786D01*
X149088780Y-136763301D01*
X149089949Y-136770681D01*
X149091500Y-136790393D01*
X149091500Y-136945784D01*
X149090810Y-136958955D01*
X149086496Y-137000000D01*
X149087186Y-137006565D01*
X149102516Y-137152422D01*
X149103401Y-137160838D01*
X149106458Y-137189928D01*
X149165473Y-137371556D01*
X149260960Y-137536944D01*
X149265378Y-137541851D01*
X149265379Y-137541852D01*
X149274396Y-137551866D01*
X149388747Y-137678866D01*
X149543248Y-137791118D01*
X149549276Y-137793802D01*
X149549278Y-137793803D01*
X149694591Y-137858500D01*
X149717712Y-137868794D01*
X149811112Y-137888647D01*
X149898056Y-137907128D01*
X149898061Y-137907128D01*
X149904513Y-137908500D01*
X150095487Y-137908500D01*
X150101939Y-137907128D01*
X150101944Y-137907128D01*
X150188888Y-137888647D01*
X150282288Y-137868794D01*
X150305409Y-137858500D01*
X150450722Y-137793803D01*
X150450724Y-137793802D01*
X150456752Y-137791118D01*
X150611253Y-137678866D01*
X150731408Y-137545421D01*
X150791853Y-137508181D01*
X150862836Y-137509533D01*
X150914138Y-137540635D01*
X150994339Y-137620835D01*
X151008277Y-137628446D01*
X151010113Y-137628314D01*
X151016725Y-137624065D01*
X151712414Y-136928376D01*
X152437164Y-136928376D01*
X152437295Y-136930209D01*
X152441546Y-136936824D01*
X152973525Y-137468803D01*
X152987469Y-137476417D01*
X152989302Y-137476286D01*
X152995917Y-137472035D01*
X153365110Y-137102842D01*
X153369672Y-137097758D01*
X153401732Y-137057885D01*
X153409954Y-137044535D01*
X153463198Y-136927430D01*
X153468185Y-136910375D01*
X153486268Y-136784105D01*
X153486268Y-136766327D01*
X153468185Y-136640057D01*
X153463198Y-136623002D01*
X153409955Y-136505899D01*
X153401732Y-136492546D01*
X153369666Y-136452665D01*
X153365122Y-136447601D01*
X153151173Y-136233653D01*
X153137235Y-136226042D01*
X153135399Y-136226174D01*
X153128787Y-136230423D01*
X152444778Y-136914432D01*
X152437164Y-136928376D01*
X151712414Y-136928376D01*
X152766343Y-135874447D01*
X152773957Y-135860503D01*
X152773826Y-135858670D01*
X152769575Y-135852055D01*
X152741182Y-135823662D01*
X152707156Y-135761350D01*
X152712221Y-135690535D01*
X152754768Y-135633699D01*
X152821288Y-135608888D01*
X152838846Y-135608859D01*
X152859291Y-135610253D01*
X152859295Y-135610253D01*
X152866868Y-135610769D01*
X152874345Y-135609464D01*
X152874346Y-135609464D01*
X152900824Y-135604843D01*
X152929819Y-135599782D01*
X152936337Y-135598821D01*
X152999758Y-135591146D01*
X153006859Y-135588463D01*
X153009468Y-135587822D01*
X153025778Y-135583359D01*
X153028314Y-135582594D01*
X153035800Y-135581287D01*
X153094316Y-135555600D01*
X153100420Y-135553109D01*
X153153064Y-135533217D01*
X153153065Y-135533216D01*
X153160172Y-135530531D01*
X153166435Y-135526227D01*
X153168801Y-135524990D01*
X153183613Y-135516745D01*
X153185867Y-135515412D01*
X153192821Y-135512359D01*
X153243518Y-135473457D01*
X153248848Y-135469585D01*
X153295236Y-135437705D01*
X153295241Y-135437700D01*
X153301497Y-135433401D01*
X153307149Y-135427058D01*
X153342951Y-135386874D01*
X153347932Y-135381598D01*
X154149428Y-134580102D01*
X154211740Y-134546076D01*
X154282555Y-134551141D01*
X154339391Y-134593688D01*
X154364202Y-134660208D01*
X154363738Y-134683241D01*
X154347351Y-134829341D01*
X154344835Y-134829059D01*
X154328134Y-134885939D01*
X154311231Y-134906913D01*
X154242757Y-134975387D01*
X154235997Y-134987767D01*
X154241251Y-134994786D01*
X154250593Y-134999262D01*
X154322093Y-135024160D01*
X154379847Y-135065452D01*
X154399648Y-135101714D01*
X154407024Y-135122895D01*
X154423709Y-135170807D01*
X154427221Y-135180893D01*
X154430952Y-135186863D01*
X154430952Y-135186864D01*
X154445984Y-135210920D01*
X154523341Y-135334717D01*
X154526530Y-135338297D01*
X154652009Y-135463776D01*
X154655589Y-135466965D01*
X154809413Y-135563085D01*
X154816065Y-135565401D01*
X154816068Y-135565403D01*
X154887989Y-135590449D01*
X154945743Y-135631742D01*
X154965542Y-135668002D01*
X154990588Y-135739923D01*
X154992906Y-135746578D01*
X155089026Y-135900402D01*
X155092215Y-135903982D01*
X155217694Y-136029461D01*
X155221274Y-136032650D01*
X155375098Y-136128770D01*
X155453679Y-136156135D01*
X155511428Y-136197424D01*
X155531226Y-136233679D01*
X155558592Y-136312264D01*
X155654712Y-136466088D01*
X155657901Y-136469668D01*
X155783380Y-136595147D01*
X155786960Y-136598336D01*
X155940784Y-136694456D01*
X156019365Y-136721821D01*
X156077114Y-136763110D01*
X156096912Y-136799365D01*
X156124278Y-136877950D01*
X156220398Y-137031774D01*
X156223587Y-137035354D01*
X156349066Y-137160833D01*
X156352646Y-137164022D01*
X156506470Y-137260142D01*
X156677767Y-137319794D01*
X156684764Y-137320579D01*
X156684765Y-137320579D01*
X156851023Y-137339227D01*
X156858022Y-137340012D01*
X156865021Y-137339227D01*
X157031279Y-137320579D01*
X157031280Y-137320579D01*
X157038277Y-137319794D01*
X157044929Y-137317477D01*
X157044931Y-137317477D01*
X157119089Y-137291652D01*
X157209573Y-137260142D01*
X157363397Y-137164022D01*
X157366978Y-137160833D01*
X158483661Y-136044150D01*
X158545973Y-136010124D01*
X158616788Y-136015189D01*
X158661851Y-136044150D01*
X159778534Y-137160833D01*
X159782115Y-137164022D01*
X159935939Y-137260142D01*
X160026423Y-137291652D01*
X160100581Y-137317477D01*
X160100583Y-137317477D01*
X160107235Y-137319794D01*
X160114232Y-137320579D01*
X160114233Y-137320579D01*
X160280491Y-137339227D01*
X160287490Y-137340012D01*
X160294489Y-137339227D01*
X160460747Y-137320579D01*
X160460748Y-137320579D01*
X160467745Y-137319794D01*
X160639042Y-137260142D01*
X160792866Y-137164022D01*
X160796446Y-137160833D01*
X160921925Y-137035354D01*
X160925114Y-137031774D01*
X161021234Y-136877950D01*
X161048599Y-136799369D01*
X161089888Y-136741620D01*
X161126143Y-136721822D01*
X161204728Y-136694456D01*
X161358552Y-136598336D01*
X161362132Y-136595147D01*
X161487611Y-136469668D01*
X161490800Y-136466088D01*
X161586920Y-136312264D01*
X161614285Y-136233683D01*
X161655574Y-136175934D01*
X161691829Y-136156136D01*
X161770414Y-136128770D01*
X161924238Y-136032650D01*
X161927818Y-136029461D01*
X162053297Y-135903982D01*
X162056486Y-135900402D01*
X162152606Y-135746578D01*
X162154924Y-135739923D01*
X162179970Y-135668002D01*
X162221263Y-135610248D01*
X162257523Y-135590449D01*
X162329444Y-135565403D01*
X162329447Y-135565401D01*
X162336099Y-135563085D01*
X162489923Y-135466965D01*
X162493503Y-135463776D01*
X162565804Y-135391475D01*
X162628117Y-135357450D01*
X162698932Y-135362516D01*
X162743994Y-135391476D01*
X163502657Y-136150139D01*
X163536683Y-136212451D01*
X163534583Y-136272188D01*
X163532603Y-136276542D01*
X163511954Y-136420728D01*
X163513227Y-136429617D01*
X163531318Y-136555939D01*
X163532603Y-136564914D01*
X163536317Y-136573082D01*
X163536317Y-136573083D01*
X163546349Y-136595147D01*
X163592890Y-136697510D01*
X163597837Y-136703663D01*
X163597839Y-136703666D01*
X163614312Y-136724154D01*
X163632083Y-136746256D01*
X164554595Y-137668768D01*
X164588621Y-137731080D01*
X164591500Y-137757863D01*
X164591500Y-137945784D01*
X164590810Y-137958955D01*
X164586496Y-138000000D01*
X164587186Y-138006565D01*
X164591500Y-138047610D01*
X164599954Y-138128041D01*
X164606458Y-138189928D01*
X164608498Y-138196205D01*
X164608498Y-138196207D01*
X164625285Y-138247871D01*
X164665473Y-138371556D01*
X164668776Y-138377278D01*
X164668777Y-138377279D01*
X164694829Y-138422402D01*
X164760960Y-138536944D01*
X164765378Y-138541851D01*
X164765379Y-138541852D01*
X164883231Y-138672740D01*
X164888747Y-138678866D01*
X164954747Y-138726818D01*
X165029804Y-138781350D01*
X165043248Y-138791118D01*
X165049276Y-138793802D01*
X165049278Y-138793803D01*
X165183190Y-138853424D01*
X165217712Y-138868794D01*
X165311113Y-138888647D01*
X165398056Y-138907128D01*
X165398061Y-138907128D01*
X165404513Y-138908500D01*
X165595487Y-138908500D01*
X165601939Y-138907128D01*
X165601944Y-138907128D01*
X165688887Y-138888647D01*
X165782288Y-138868794D01*
X165816810Y-138853424D01*
X165950722Y-138793803D01*
X165950724Y-138793802D01*
X165956752Y-138791118D01*
X165970197Y-138781350D01*
X166045253Y-138726818D01*
X166111253Y-138678866D01*
X166116769Y-138672740D01*
X166234621Y-138541852D01*
X166234622Y-138541851D01*
X166239040Y-138536944D01*
X166305171Y-138422402D01*
X166331223Y-138377279D01*
X166331224Y-138377278D01*
X166334527Y-138371556D01*
X166393542Y-138189928D01*
X166400047Y-138128041D01*
X166408500Y-138047610D01*
X166412814Y-138006565D01*
X166413504Y-138000000D01*
X166409190Y-137958955D01*
X166408500Y-137945784D01*
X166408500Y-137226928D01*
X166410051Y-137207216D01*
X166411220Y-137199836D01*
X166412252Y-137193321D01*
X166411731Y-137183365D01*
X166408673Y-137125031D01*
X166408500Y-137118437D01*
X166408500Y-137097902D01*
X166406353Y-137077472D01*
X166405836Y-137070897D01*
X166402603Y-137009208D01*
X166402603Y-137009207D01*
X166402257Y-137002608D01*
X166398616Y-136989020D01*
X166395012Y-136969573D01*
X166394233Y-136962156D01*
X166394232Y-136962152D01*
X166393542Y-136955584D01*
X166387447Y-136936824D01*
X166387156Y-136935928D01*
X166385130Y-136864960D01*
X166421795Y-136804163D01*
X166454839Y-136782294D01*
X166494101Y-136764443D01*
X166507454Y-136756220D01*
X166547335Y-136724154D01*
X166552399Y-136719610D01*
X166766347Y-136505661D01*
X166773958Y-136491723D01*
X166773826Y-136489887D01*
X166769577Y-136483275D01*
X165714678Y-135428376D01*
X166437164Y-135428376D01*
X166437295Y-135430209D01*
X166441546Y-135436824D01*
X167125553Y-136120831D01*
X167139497Y-136128445D01*
X167141330Y-136128314D01*
X167147945Y-136124063D01*
X167365110Y-135906898D01*
X167369672Y-135901814D01*
X167401732Y-135861941D01*
X167409954Y-135848591D01*
X167463198Y-135731486D01*
X167468185Y-135714431D01*
X167486268Y-135588161D01*
X167486268Y-135570383D01*
X167468185Y-135444113D01*
X167463198Y-135427058D01*
X167409955Y-135309955D01*
X167401732Y-135296602D01*
X167369666Y-135256721D01*
X167365122Y-135251657D01*
X166999145Y-134885681D01*
X166985207Y-134878070D01*
X166983371Y-134878202D01*
X166976759Y-134882451D01*
X166444778Y-135414432D01*
X166437164Y-135428376D01*
X165714678Y-135428376D01*
X165019959Y-134733657D01*
X165006015Y-134726043D01*
X165004182Y-134726174D01*
X164997567Y-134730425D01*
X164780402Y-134947590D01*
X164775840Y-134952674D01*
X164743780Y-134992547D01*
X164735557Y-135005899D01*
X164694156Y-135096957D01*
X164647753Y-135150691D01*
X164579666Y-135170807D01*
X164511512Y-135150919D01*
X164490360Y-135133902D01*
X163627796Y-134271338D01*
X163593770Y-134209026D01*
X163598835Y-134138211D01*
X163641382Y-134081375D01*
X163707902Y-134056564D01*
X163739364Y-134059402D01*
X163739432Y-134058886D01*
X163787401Y-134065201D01*
X163802783Y-134067226D01*
X163809299Y-134068258D01*
X163840453Y-134074032D01*
X163872108Y-134079899D01*
X163879688Y-134079462D01*
X163879689Y-134079462D01*
X163934302Y-134076313D01*
X163941555Y-134076104D01*
X165347697Y-134076104D01*
X165415818Y-134096106D01*
X165462311Y-134149762D01*
X165472415Y-134220036D01*
X165442921Y-134284616D01*
X165436792Y-134291199D01*
X165379166Y-134348825D01*
X165371554Y-134362765D01*
X165371686Y-134364601D01*
X165375935Y-134371213D01*
X166059944Y-135055222D01*
X166073888Y-135062836D01*
X166075721Y-135062705D01*
X166082336Y-135058454D01*
X166614315Y-134526475D01*
X166621929Y-134512531D01*
X166621798Y-134510698D01*
X166617547Y-134504083D01*
X166404663Y-134291199D01*
X166370637Y-134228887D01*
X166375702Y-134158072D01*
X166418249Y-134101236D01*
X166484769Y-134076425D01*
X166493758Y-134076104D01*
X173386944Y-134076104D01*
X173455065Y-134096106D01*
X173476039Y-134113009D01*
X174902252Y-135539222D01*
X174936278Y-135601534D01*
X174936914Y-135651235D01*
X174935989Y-135654570D01*
X174912251Y-135876695D01*
X174912548Y-135881848D01*
X174912548Y-135881851D01*
X174918011Y-135976590D01*
X174925110Y-136099715D01*
X174926247Y-136104761D01*
X174926248Y-136104767D01*
X174946119Y-136192939D01*
X174974222Y-136317639D01*
X175014346Y-136416453D01*
X175051876Y-136508878D01*
X175058266Y-136524616D01*
X175080852Y-136561473D01*
X175167988Y-136703666D01*
X175174987Y-136715088D01*
X175178367Y-136718990D01*
X175182840Y-136724154D01*
X175321250Y-136883938D01*
X175327095Y-136888791D01*
X175329981Y-136891187D01*
X175369616Y-136950090D01*
X175371113Y-137021071D01*
X175333997Y-137081593D01*
X175293725Y-137106112D01*
X175249613Y-137122649D01*
X175178295Y-137149385D01*
X175061739Y-137236739D01*
X174974385Y-137353295D01*
X174923255Y-137489684D01*
X174916500Y-137551866D01*
X174916500Y-139348134D01*
X174923255Y-139410316D01*
X174974385Y-139546705D01*
X175061739Y-139663261D01*
X175178295Y-139750615D01*
X175314684Y-139801745D01*
X175376866Y-139808500D01*
X177173134Y-139808500D01*
X177235316Y-139801745D01*
X177371705Y-139750615D01*
X177488261Y-139663261D01*
X177575615Y-139546705D01*
X177626745Y-139410316D01*
X177633500Y-139348134D01*
X177633500Y-138539613D01*
X177653502Y-138471492D01*
X177707158Y-138424999D01*
X177759500Y-138413613D01*
X177916116Y-138413613D01*
X177984237Y-138433615D01*
X178030730Y-138487271D01*
X178040826Y-138528320D01*
X178041500Y-138528247D01*
X178048255Y-138590429D01*
X178099385Y-138726818D01*
X178186739Y-138843374D01*
X178303295Y-138930728D01*
X178439684Y-138981858D01*
X178501866Y-138988613D01*
X179698134Y-138988613D01*
X179760316Y-138981858D01*
X179896705Y-138930728D01*
X179926364Y-138908500D01*
X179974435Y-138872473D01*
X180040942Y-138847625D01*
X180110324Y-138862678D01*
X180125565Y-138872473D01*
X180173636Y-138908500D01*
X180203295Y-138930728D01*
X180339684Y-138981858D01*
X180401866Y-138988613D01*
X181598134Y-138988613D01*
X181660316Y-138981858D01*
X181796705Y-138930728D01*
X181913261Y-138843374D01*
X181966679Y-138772098D01*
X182023536Y-138729584D01*
X182094355Y-138724558D01*
X182156599Y-138758569D01*
X182529595Y-139131565D01*
X182563621Y-139193877D01*
X182566500Y-139220660D01*
X182566500Y-140123134D01*
X182573255Y-140185316D01*
X182624385Y-140321705D01*
X182711739Y-140438261D01*
X182828295Y-140525615D01*
X182964684Y-140576745D01*
X183026866Y-140583500D01*
X184773134Y-140583500D01*
X184835316Y-140576745D01*
X184971705Y-140525615D01*
X185088261Y-140438261D01*
X185127598Y-140385774D01*
X189038102Y-140385774D01*
X189038302Y-140391103D01*
X189038302Y-140391105D01*
X189039035Y-140410619D01*
X189046751Y-140616158D01*
X189047846Y-140621377D01*
X189061044Y-140684280D01*
X189094093Y-140841791D01*
X189096051Y-140846750D01*
X189096052Y-140846752D01*
X189175348Y-141047540D01*
X189178776Y-141056221D01*
X189181543Y-141060780D01*
X189181544Y-141060783D01*
X189249407Y-141172617D01*
X189298377Y-141253317D01*
X189301874Y-141257347D01*
X189388438Y-141357103D01*
X189449477Y-141427445D01*
X189453608Y-141430832D01*
X189623627Y-141570240D01*
X189623633Y-141570244D01*
X189627755Y-141573624D01*
X189632391Y-141576263D01*
X189632394Y-141576265D01*
X189741422Y-141638327D01*
X189828114Y-141687675D01*
X190044825Y-141766337D01*
X190050074Y-141767286D01*
X190050077Y-141767287D01*
X190267608Y-141806623D01*
X190267615Y-141806624D01*
X190271692Y-141807361D01*
X190289414Y-141808197D01*
X190294356Y-141808430D01*
X190294363Y-141808430D01*
X190295844Y-141808500D01*
X190707890Y-141808500D01*
X190774809Y-141802822D01*
X190874409Y-141794371D01*
X190874413Y-141794370D01*
X190879720Y-141793920D01*
X190884875Y-141792582D01*
X190884881Y-141792581D01*
X191097703Y-141737343D01*
X191097707Y-141737342D01*
X191102872Y-141736001D01*
X191107738Y-141733809D01*
X191107741Y-141733808D01*
X191308202Y-141643507D01*
X191313075Y-141641312D01*
X191504319Y-141512559D01*
X191671135Y-141353424D01*
X191808754Y-141168458D01*
X191819964Y-141146411D01*
X191892851Y-141003051D01*
X191913240Y-140962949D01*
X191923149Y-140931039D01*
X191980024Y-140747871D01*
X191981607Y-140742773D01*
X191985854Y-140710728D01*
X192011198Y-140519511D01*
X192011198Y-140519506D01*
X192011898Y-140514226D01*
X192011266Y-140497375D01*
X192004137Y-140307490D01*
X192003249Y-140283842D01*
X191955907Y-140058209D01*
X191938170Y-140013297D01*
X191873185Y-139848744D01*
X191873184Y-139848742D01*
X191871224Y-139843779D01*
X191858697Y-139823134D01*
X191754390Y-139651243D01*
X191751623Y-139646683D01*
X191662273Y-139543716D01*
X191604023Y-139476588D01*
X191604021Y-139476586D01*
X191600523Y-139472555D01*
X191558970Y-139438484D01*
X191426373Y-139329760D01*
X191426367Y-139329756D01*
X191422245Y-139326376D01*
X191390750Y-139308448D01*
X191341445Y-139257368D01*
X191327583Y-139187738D01*
X191353566Y-139121667D01*
X191382716Y-139094427D01*
X191409697Y-139076262D01*
X191504319Y-139012559D01*
X191510603Y-139006565D01*
X191597769Y-138923412D01*
X191671135Y-138853424D01*
X191693672Y-138823134D01*
X191805568Y-138672740D01*
X191808754Y-138668458D01*
X191913240Y-138462949D01*
X191922580Y-138432872D01*
X191980024Y-138247871D01*
X191981607Y-138242773D01*
X191985517Y-138213273D01*
X192011198Y-138019511D01*
X192011198Y-138019506D01*
X192011898Y-138014226D01*
X192011611Y-138006565D01*
X192006039Y-137858163D01*
X192003249Y-137783842D01*
X191955907Y-137558209D01*
X191953014Y-137550884D01*
X191873185Y-137348744D01*
X191873184Y-137348742D01*
X191871224Y-137343779D01*
X191834343Y-137283000D01*
X191771795Y-137179926D01*
X191751623Y-137146683D01*
X191732834Y-137125031D01*
X191604023Y-136976588D01*
X191604021Y-136976586D01*
X191600523Y-136972555D01*
X191545489Y-136927430D01*
X191426373Y-136829760D01*
X191426367Y-136829756D01*
X191422245Y-136826376D01*
X191390750Y-136808448D01*
X191341445Y-136757368D01*
X191327583Y-136687738D01*
X191353566Y-136621667D01*
X191382716Y-136594427D01*
X191418642Y-136570240D01*
X191504319Y-136512559D01*
X191510603Y-136506565D01*
X191634911Y-136387980D01*
X191671135Y-136353424D01*
X191808754Y-136168458D01*
X191827756Y-136131085D01*
X191878314Y-136031644D01*
X191913240Y-135962949D01*
X191915637Y-135955232D01*
X191980024Y-135747871D01*
X191981607Y-135742773D01*
X191985363Y-135714431D01*
X192011198Y-135519511D01*
X192011198Y-135519506D01*
X192011898Y-135514226D01*
X192011655Y-135507737D01*
X192003449Y-135289173D01*
X192003249Y-135283842D01*
X192000469Y-135270590D01*
X191957002Y-135063428D01*
X191955907Y-135058209D01*
X191950271Y-135043937D01*
X191873185Y-134848744D01*
X191873184Y-134848742D01*
X191871224Y-134843779D01*
X191849117Y-134807347D01*
X191754390Y-134651243D01*
X191751623Y-134646683D01*
X191705729Y-134593795D01*
X191604023Y-134476588D01*
X191604021Y-134476586D01*
X191600523Y-134472555D01*
X191508075Y-134396752D01*
X191426373Y-134329760D01*
X191426367Y-134329756D01*
X191422245Y-134326376D01*
X191390750Y-134308448D01*
X191341445Y-134257368D01*
X191327583Y-134187738D01*
X191353566Y-134121667D01*
X191382716Y-134094427D01*
X191423119Y-134067226D01*
X191504319Y-134012559D01*
X191532866Y-133985327D01*
X191593772Y-133927225D01*
X191671135Y-133853424D01*
X191808754Y-133668458D01*
X191847131Y-133592977D01*
X191910822Y-133467704D01*
X191913240Y-133462949D01*
X191916264Y-133453212D01*
X191980024Y-133247871D01*
X191981607Y-133242773D01*
X191991153Y-133170751D01*
X192011198Y-133019511D01*
X192011198Y-133019506D01*
X192011898Y-133014226D01*
X192008904Y-132934461D01*
X192003873Y-132800476D01*
X192003249Y-132783842D01*
X191955907Y-132558209D01*
X191925349Y-132480832D01*
X191873185Y-132348744D01*
X191873184Y-132348742D01*
X191871224Y-132343779D01*
X191856726Y-132319886D01*
X191754390Y-132151243D01*
X191751623Y-132146683D01*
X191728644Y-132120202D01*
X191604023Y-131976588D01*
X191604021Y-131976586D01*
X191600523Y-131972555D01*
X191508075Y-131896752D01*
X191426373Y-131829760D01*
X191426367Y-131829756D01*
X191422245Y-131826376D01*
X191390750Y-131808448D01*
X191341445Y-131757368D01*
X191327583Y-131687738D01*
X191353566Y-131621667D01*
X191382716Y-131594427D01*
X191418908Y-131570061D01*
X191504319Y-131512559D01*
X191509972Y-131507167D01*
X191585897Y-131434737D01*
X191671135Y-131353424D01*
X191685705Y-131333842D01*
X191765145Y-131227071D01*
X191808754Y-131168458D01*
X191815436Y-131155317D01*
X191873843Y-131040438D01*
X191913240Y-130962949D01*
X191916753Y-130951637D01*
X191980024Y-130747871D01*
X191981607Y-130742773D01*
X191993443Y-130653473D01*
X192011198Y-130519511D01*
X192011198Y-130519506D01*
X192011898Y-130514226D01*
X192011143Y-130494101D01*
X192005942Y-130355573D01*
X192003249Y-130283842D01*
X191955907Y-130058209D01*
X191953611Y-130052395D01*
X191873185Y-129848744D01*
X191873184Y-129848742D01*
X191871224Y-129843779D01*
X191849117Y-129807347D01*
X191754390Y-129651243D01*
X191751623Y-129646683D01*
X191736091Y-129628784D01*
X191604023Y-129476588D01*
X191604021Y-129476586D01*
X191600523Y-129472555D01*
X191508075Y-129396752D01*
X191426373Y-129329760D01*
X191426367Y-129329756D01*
X191422245Y-129326376D01*
X191390750Y-129308448D01*
X191341445Y-129257368D01*
X191327583Y-129187738D01*
X191353566Y-129121667D01*
X191382716Y-129094427D01*
X191431667Y-129061471D01*
X191504319Y-129012559D01*
X191516075Y-129001345D01*
X191602481Y-128918917D01*
X191671135Y-128853424D01*
X191685705Y-128833842D01*
X191786675Y-128698133D01*
X191808754Y-128668458D01*
X191816549Y-128653128D01*
X191868735Y-128550483D01*
X191913240Y-128462949D01*
X191920389Y-128439928D01*
X191980024Y-128247871D01*
X191981607Y-128242773D01*
X191992958Y-128157128D01*
X192011198Y-128019511D01*
X192011198Y-128019506D01*
X192011898Y-128014226D01*
X192010180Y-127968448D01*
X192003449Y-127789173D01*
X192003249Y-127783842D01*
X191955907Y-127558209D01*
X191947299Y-127536413D01*
X191873185Y-127348744D01*
X191873184Y-127348742D01*
X191871224Y-127343779D01*
X191839269Y-127291118D01*
X191754390Y-127151243D01*
X191751623Y-127146683D01*
X191664755Y-127046576D01*
X191604023Y-126976588D01*
X191604021Y-126976586D01*
X191600523Y-126972555D01*
X191530535Y-126915168D01*
X191426373Y-126829760D01*
X191426367Y-126829756D01*
X191422245Y-126826376D01*
X191390750Y-126808448D01*
X191341445Y-126757368D01*
X191327583Y-126687738D01*
X191353566Y-126621667D01*
X191382716Y-126594427D01*
X191424205Y-126566495D01*
X191504319Y-126512559D01*
X191521248Y-126496410D01*
X191604728Y-126416773D01*
X191671135Y-126353424D01*
X191808754Y-126168458D01*
X191820219Y-126145909D01*
X191888114Y-126012368D01*
X191913240Y-125962949D01*
X191915041Y-125957151D01*
X191980024Y-125747871D01*
X191981607Y-125742773D01*
X191985723Y-125711717D01*
X192011198Y-125519511D01*
X192011198Y-125519506D01*
X192011898Y-125514226D01*
X192003249Y-125283842D01*
X191955907Y-125058209D01*
X191938169Y-125013293D01*
X191873185Y-124848744D01*
X191873184Y-124848742D01*
X191871224Y-124843779D01*
X191864472Y-124832651D01*
X191767982Y-124673641D01*
X191751623Y-124646683D01*
X191664755Y-124546576D01*
X191604023Y-124476588D01*
X191604021Y-124476586D01*
X191600523Y-124472555D01*
X191564880Y-124443330D01*
X191524886Y-124384671D01*
X191522954Y-124313701D01*
X191559698Y-124252952D01*
X191578468Y-124238752D01*
X191718120Y-124152332D01*
X191724348Y-124148478D01*
X191849305Y-124023303D01*
X191870264Y-123989302D01*
X191938275Y-123878968D01*
X191938276Y-123878966D01*
X191942115Y-123872738D01*
X191974879Y-123773957D01*
X191995632Y-123711389D01*
X191995632Y-123711387D01*
X191997797Y-123704861D01*
X192008500Y-123600400D01*
X192008500Y-122299600D01*
X192003409Y-122250534D01*
X191998238Y-122200692D01*
X191998237Y-122200688D01*
X191997526Y-122193834D01*
X191994440Y-122184582D01*
X191943868Y-122033002D01*
X191941550Y-122026054D01*
X191848478Y-121875652D01*
X191723303Y-121750695D01*
X191714290Y-121745139D01*
X191578968Y-121661725D01*
X191578966Y-121661724D01*
X191572738Y-121657885D01*
X191455186Y-121618895D01*
X191411389Y-121604368D01*
X191411387Y-121604368D01*
X191404861Y-121602203D01*
X191398025Y-121601503D01*
X191398022Y-121601502D01*
X191354969Y-121597091D01*
X191300400Y-121591500D01*
X189749600Y-121591500D01*
X189746354Y-121591837D01*
X189746350Y-121591837D01*
X189650692Y-121601762D01*
X189650688Y-121601763D01*
X189643834Y-121602474D01*
X189637298Y-121604655D01*
X189637296Y-121604655D01*
X189594614Y-121618895D01*
X189476054Y-121658450D01*
X189325652Y-121751522D01*
X189200695Y-121876697D01*
X189196855Y-121882927D01*
X189196854Y-121882928D01*
X189119588Y-122008277D01*
X189107885Y-122027262D01*
X189091743Y-122075930D01*
X189055705Y-122184582D01*
X189052203Y-122195139D01*
X189041500Y-122299600D01*
X189041500Y-123600400D01*
X189041837Y-123603646D01*
X189041837Y-123603650D01*
X189051629Y-123698022D01*
X189052474Y-123706166D01*
X189108450Y-123873946D01*
X189201522Y-124024348D01*
X189326697Y-124149305D01*
X189472340Y-124239081D01*
X189519832Y-124291852D01*
X189531256Y-124361924D01*
X189502982Y-124427048D01*
X189493195Y-124437510D01*
X189466267Y-124463198D01*
X189378865Y-124546576D01*
X189241246Y-124731542D01*
X189238830Y-124736293D01*
X189238828Y-124736297D01*
X189209591Y-124793803D01*
X189136760Y-124937051D01*
X189135178Y-124942145D01*
X189135177Y-124942148D01*
X189095126Y-125071134D01*
X189068393Y-125157227D01*
X189067692Y-125162516D01*
X189043607Y-125344241D01*
X189038102Y-125385774D01*
X189038302Y-125391103D01*
X189038302Y-125391105D01*
X189039243Y-125416165D01*
X189046751Y-125616158D01*
X189094093Y-125841791D01*
X189096051Y-125846750D01*
X189096052Y-125846752D01*
X189165413Y-126022383D01*
X189178776Y-126056221D01*
X189181543Y-126060780D01*
X189181544Y-126060783D01*
X189232272Y-126144380D01*
X189298377Y-126253317D01*
X189301874Y-126257347D01*
X189402696Y-126373534D01*
X189449477Y-126427445D01*
X189453608Y-126430832D01*
X189623627Y-126570240D01*
X189623633Y-126570244D01*
X189627755Y-126573624D01*
X189659250Y-126591552D01*
X189708555Y-126642632D01*
X189722417Y-126712262D01*
X189696434Y-126778333D01*
X189667284Y-126805573D01*
X189665577Y-126806722D01*
X189545681Y-126887441D01*
X189541824Y-126891120D01*
X189541822Y-126891122D01*
X189487023Y-126943398D01*
X189378865Y-127046576D01*
X189241246Y-127231542D01*
X189238830Y-127236293D01*
X189238828Y-127236297D01*
X189212929Y-127287237D01*
X189136760Y-127437051D01*
X189135178Y-127442145D01*
X189135177Y-127442148D01*
X189095253Y-127570723D01*
X189068393Y-127657227D01*
X189067692Y-127662516D01*
X189043604Y-127844263D01*
X189038102Y-127885774D01*
X189038302Y-127891103D01*
X189038302Y-127891105D01*
X189039930Y-127934461D01*
X189046751Y-128116158D01*
X189094093Y-128341791D01*
X189096051Y-128346750D01*
X189096052Y-128346752D01*
X189160142Y-128509036D01*
X189178776Y-128556221D01*
X189181543Y-128560780D01*
X189181544Y-128560783D01*
X189229347Y-128639560D01*
X189298377Y-128753317D01*
X189301874Y-128757347D01*
X189442077Y-128918917D01*
X189449477Y-128927445D01*
X189453608Y-128930832D01*
X189623627Y-129070240D01*
X189623633Y-129070244D01*
X189627755Y-129073624D01*
X189659250Y-129091552D01*
X189708555Y-129142632D01*
X189722417Y-129212262D01*
X189696434Y-129278333D01*
X189667284Y-129305573D01*
X189545681Y-129387441D01*
X189541824Y-129391120D01*
X189541822Y-129391122D01*
X189520852Y-129411127D01*
X189378865Y-129546576D01*
X189375682Y-129550854D01*
X189330571Y-129611485D01*
X189241246Y-129731542D01*
X189238830Y-129736293D01*
X189238828Y-129736297D01*
X189218243Y-129776786D01*
X189136760Y-129937051D01*
X189135178Y-129942145D01*
X189135177Y-129942148D01*
X189097024Y-130065020D01*
X189068393Y-130157227D01*
X189067692Y-130162516D01*
X189039348Y-130376376D01*
X189038102Y-130385774D01*
X189046751Y-130616158D01*
X189094093Y-130841791D01*
X189096051Y-130846750D01*
X189096052Y-130846752D01*
X189170758Y-131035917D01*
X189178776Y-131056221D01*
X189181543Y-131060780D01*
X189181544Y-131060783D01*
X189249482Y-131172740D01*
X189298377Y-131253317D01*
X189301874Y-131257347D01*
X189428411Y-131403168D01*
X189449477Y-131427445D01*
X189458370Y-131434737D01*
X189623627Y-131570240D01*
X189623633Y-131570244D01*
X189627755Y-131573624D01*
X189659250Y-131591552D01*
X189708555Y-131642632D01*
X189722417Y-131712262D01*
X189696434Y-131778333D01*
X189667284Y-131805573D01*
X189545681Y-131887441D01*
X189541824Y-131891120D01*
X189541822Y-131891122D01*
X189513946Y-131917715D01*
X189378865Y-132046576D01*
X189375682Y-132050854D01*
X189325106Y-132118830D01*
X189241246Y-132231542D01*
X189238830Y-132236293D01*
X189238828Y-132236297D01*
X189191949Y-132328502D01*
X189136760Y-132437051D01*
X189135178Y-132442145D01*
X189135177Y-132442148D01*
X189091952Y-132581354D01*
X189068393Y-132657227D01*
X189067692Y-132662516D01*
X189041866Y-132857376D01*
X189038102Y-132885774D01*
X189046751Y-133116158D01*
X189094093Y-133341791D01*
X189096051Y-133346750D01*
X189096052Y-133346752D01*
X189161332Y-133512049D01*
X189178776Y-133556221D01*
X189298377Y-133753317D01*
X189301874Y-133757347D01*
X189436165Y-133912104D01*
X189449477Y-133927445D01*
X189491030Y-133961516D01*
X189623627Y-134070240D01*
X189623633Y-134070244D01*
X189627755Y-134073624D01*
X189659250Y-134091552D01*
X189708555Y-134142632D01*
X189722417Y-134212262D01*
X189696434Y-134278333D01*
X189667284Y-134305573D01*
X189545681Y-134387441D01*
X189541824Y-134391120D01*
X189541822Y-134391122D01*
X189499273Y-134431712D01*
X189378865Y-134546576D01*
X189375682Y-134550854D01*
X189319790Y-134625975D01*
X189241246Y-134731542D01*
X189238830Y-134736293D01*
X189238828Y-134736297D01*
X189189003Y-134834296D01*
X189136760Y-134937051D01*
X189135178Y-134942145D01*
X189135177Y-134942148D01*
X189091560Y-135082617D01*
X189068393Y-135157227D01*
X189067692Y-135162516D01*
X189040014Y-135371351D01*
X189038102Y-135385774D01*
X189038302Y-135391103D01*
X189038302Y-135391105D01*
X189040292Y-135444113D01*
X189046751Y-135616158D01*
X189047846Y-135621377D01*
X189070422Y-135728975D01*
X189094093Y-135841791D01*
X189096051Y-135846750D01*
X189096052Y-135846752D01*
X189165197Y-136021836D01*
X189178776Y-136056221D01*
X189181543Y-136060780D01*
X189181544Y-136060783D01*
X189243998Y-136163703D01*
X189298377Y-136253317D01*
X189301874Y-136257347D01*
X189439939Y-136416453D01*
X189449477Y-136427445D01*
X189481863Y-136454000D01*
X189623627Y-136570240D01*
X189623633Y-136570244D01*
X189627755Y-136573624D01*
X189659250Y-136591552D01*
X189708555Y-136642632D01*
X189722417Y-136712262D01*
X189696434Y-136778333D01*
X189667284Y-136805573D01*
X189545681Y-136887441D01*
X189541824Y-136891120D01*
X189541822Y-136891122D01*
X189521640Y-136910375D01*
X189378865Y-137046576D01*
X189375682Y-137050854D01*
X189343112Y-137094630D01*
X189241246Y-137231542D01*
X189238830Y-137236293D01*
X189238828Y-137236297D01*
X189206813Y-137299266D01*
X189136760Y-137437051D01*
X189135178Y-137442145D01*
X189135177Y-137442148D01*
X189079693Y-137620835D01*
X189068393Y-137657227D01*
X189067692Y-137662516D01*
X189040171Y-137870166D01*
X189038102Y-137885774D01*
X189046751Y-138116158D01*
X189094093Y-138341791D01*
X189096051Y-138346750D01*
X189096052Y-138346752D01*
X189163064Y-138516435D01*
X189178776Y-138556221D01*
X189298377Y-138753317D01*
X189301874Y-138757347D01*
X189419244Y-138892604D01*
X189449477Y-138927445D01*
X189453608Y-138930832D01*
X189623627Y-139070240D01*
X189623633Y-139070244D01*
X189627755Y-139073624D01*
X189659250Y-139091552D01*
X189708555Y-139142632D01*
X189722417Y-139212262D01*
X189696434Y-139278333D01*
X189667284Y-139305573D01*
X189545681Y-139387441D01*
X189541824Y-139391120D01*
X189541822Y-139391122D01*
X189520549Y-139411416D01*
X189378865Y-139546576D01*
X189241246Y-139731542D01*
X189238830Y-139736293D01*
X189238828Y-139736297D01*
X189196440Y-139819669D01*
X189136760Y-139937051D01*
X189135178Y-139942145D01*
X189135177Y-139942148D01*
X189096869Y-140065520D01*
X189068393Y-140157227D01*
X189067692Y-140162516D01*
X189046594Y-140321705D01*
X189038102Y-140385774D01*
X185127598Y-140385774D01*
X185175615Y-140321705D01*
X185226745Y-140185316D01*
X185233500Y-140123134D01*
X185233500Y-138876866D01*
X185226745Y-138814684D01*
X185175615Y-138678295D01*
X185088261Y-138561739D01*
X184971705Y-138474385D01*
X184835316Y-138423255D01*
X184773134Y-138416500D01*
X183870661Y-138416500D01*
X183802540Y-138396498D01*
X183781571Y-138379600D01*
X182896295Y-137494324D01*
X182862271Y-137432014D01*
X182867335Y-137361199D01*
X182909882Y-137304363D01*
X182976402Y-137279552D01*
X182998998Y-137279968D01*
X183023512Y-137282631D01*
X183030328Y-137283000D01*
X183627885Y-137283000D01*
X183643124Y-137278525D01*
X183644329Y-137277135D01*
X183646000Y-137269452D01*
X183646000Y-137264884D01*
X184154000Y-137264884D01*
X184158475Y-137280123D01*
X184159865Y-137281328D01*
X184167548Y-137282999D01*
X184769669Y-137282999D01*
X184776490Y-137282629D01*
X184827352Y-137277105D01*
X184842604Y-137273479D01*
X184963054Y-137228324D01*
X184978649Y-137219786D01*
X185080724Y-137143285D01*
X185093285Y-137130724D01*
X185169786Y-137028649D01*
X185178324Y-137013054D01*
X185223478Y-136892606D01*
X185227105Y-136877351D01*
X185232631Y-136826486D01*
X185233000Y-136819672D01*
X185233000Y-136472115D01*
X185228525Y-136456876D01*
X185227135Y-136455671D01*
X185219452Y-136454000D01*
X184172115Y-136454000D01*
X184156876Y-136458475D01*
X184155671Y-136459865D01*
X184154000Y-136467548D01*
X184154000Y-137264884D01*
X183646000Y-137264884D01*
X183646000Y-136472115D01*
X183641525Y-136456876D01*
X183640135Y-136455671D01*
X183632452Y-136454000D01*
X182585116Y-136454000D01*
X182569877Y-136458475D01*
X182568672Y-136459865D01*
X182567001Y-136467548D01*
X182567001Y-136819669D01*
X182567371Y-136826490D01*
X182572895Y-136877352D01*
X182576521Y-136892603D01*
X182581067Y-136904730D01*
X182586250Y-136975537D01*
X182552330Y-137037906D01*
X182490075Y-137072035D01*
X182417318Y-137066354D01*
X182382817Y-137052903D01*
X182376769Y-137050360D01*
X182318540Y-137024068D01*
X182311073Y-137022684D01*
X182308518Y-137021883D01*
X182292265Y-137017254D01*
X182289685Y-137016591D01*
X182282604Y-137013831D01*
X182275073Y-137012840D01*
X182275071Y-137012839D01*
X182245452Y-137008940D01*
X182219252Y-137005491D01*
X182212766Y-137004464D01*
X182168326Y-136996227D01*
X182160940Y-136994858D01*
X182097606Y-136962776D01*
X182061670Y-136901545D01*
X182058716Y-136881956D01*
X182058500Y-136881979D01*
X182055839Y-136857488D01*
X182051745Y-136819797D01*
X182000615Y-136683408D01*
X181913261Y-136566852D01*
X181898698Y-136555938D01*
X181856185Y-136499079D01*
X181851160Y-136428261D01*
X181885220Y-136365967D01*
X181898694Y-136354292D01*
X181913261Y-136343374D01*
X182000615Y-136226818D01*
X182051745Y-136090429D01*
X182058500Y-136028247D01*
X182058500Y-135927885D01*
X182567000Y-135927885D01*
X182571475Y-135943124D01*
X182572865Y-135944329D01*
X182580548Y-135946000D01*
X183627885Y-135946000D01*
X183643124Y-135941525D01*
X183644329Y-135940135D01*
X183646000Y-135932452D01*
X183646000Y-135927885D01*
X184154000Y-135927885D01*
X184158475Y-135943124D01*
X184159865Y-135944329D01*
X184167548Y-135946000D01*
X185214884Y-135946000D01*
X185230123Y-135941525D01*
X185231328Y-135940135D01*
X185232999Y-135932452D01*
X185232999Y-135580331D01*
X185232629Y-135573510D01*
X185227105Y-135522648D01*
X185223479Y-135507396D01*
X185178324Y-135386946D01*
X185169786Y-135371351D01*
X185093285Y-135269276D01*
X185080724Y-135256715D01*
X184978649Y-135180214D01*
X184963054Y-135171676D01*
X184842606Y-135126522D01*
X184827351Y-135122895D01*
X184776486Y-135117369D01*
X184769672Y-135117000D01*
X184172115Y-135117000D01*
X184156876Y-135121475D01*
X184155671Y-135122865D01*
X184154000Y-135130548D01*
X184154000Y-135927885D01*
X183646000Y-135927885D01*
X183646000Y-135135116D01*
X183641525Y-135119877D01*
X183640135Y-135118672D01*
X183632452Y-135117001D01*
X183030331Y-135117001D01*
X183023510Y-135117371D01*
X182972648Y-135122895D01*
X182957396Y-135126521D01*
X182836946Y-135171676D01*
X182821351Y-135180214D01*
X182719276Y-135256715D01*
X182706715Y-135269276D01*
X182630214Y-135371351D01*
X182621676Y-135386946D01*
X182576522Y-135507394D01*
X182572895Y-135522649D01*
X182567369Y-135573514D01*
X182567000Y-135580328D01*
X182567000Y-135927885D01*
X182058500Y-135927885D01*
X182058500Y-134381979D01*
X182051745Y-134319797D01*
X182000615Y-134183408D01*
X181913261Y-134066852D01*
X181796705Y-133979498D01*
X181788296Y-133976346D01*
X181780425Y-133972036D01*
X181781336Y-133970372D01*
X181733510Y-133934450D01*
X181708807Y-133867889D01*
X181708500Y-133859104D01*
X181708500Y-132434500D01*
X181728502Y-132366379D01*
X181782158Y-132319886D01*
X181834500Y-132308500D01*
X181848134Y-132308500D01*
X181910316Y-132301745D01*
X182046705Y-132250615D01*
X182163261Y-132163261D01*
X182250615Y-132046705D01*
X182301745Y-131910316D01*
X182308500Y-131848134D01*
X182308500Y-130151866D01*
X182301745Y-130089684D01*
X182250615Y-129953295D01*
X182163261Y-129836739D01*
X182046705Y-129749385D01*
X181910316Y-129698255D01*
X181848134Y-129691500D01*
X180151866Y-129691500D01*
X180089684Y-129698255D01*
X179953295Y-129749385D01*
X179836739Y-129836739D01*
X179749385Y-129953295D01*
X179698255Y-130089684D01*
X179696309Y-130088954D01*
X179666455Y-130141205D01*
X179603497Y-130174021D01*
X179532793Y-130167591D01*
X179490000Y-130139502D01*
X179344300Y-129993802D01*
X179339792Y-129990645D01*
X179339789Y-129990643D01*
X179211718Y-129900967D01*
X179156749Y-129862477D01*
X179151767Y-129860154D01*
X179151762Y-129860151D01*
X178954225Y-129768039D01*
X178954224Y-129768039D01*
X178949243Y-129765716D01*
X178943935Y-129764294D01*
X178943933Y-129764293D01*
X178733402Y-129707881D01*
X178733400Y-129707881D01*
X178728087Y-129706457D01*
X178500000Y-129686502D01*
X178271913Y-129706457D01*
X178266600Y-129707881D01*
X178266598Y-129707881D01*
X178056067Y-129764293D01*
X178056065Y-129764294D01*
X178050757Y-129765716D01*
X178045776Y-129768039D01*
X178045775Y-129768039D01*
X177848238Y-129860151D01*
X177848233Y-129860154D01*
X177843251Y-129862477D01*
X177788282Y-129900967D01*
X177660211Y-129990643D01*
X177660208Y-129990645D01*
X177655700Y-129993802D01*
X177493802Y-130155700D01*
X177490645Y-130160208D01*
X177490643Y-130160211D01*
X177436402Y-130237675D01*
X177362477Y-130343251D01*
X177360154Y-130348233D01*
X177360151Y-130348238D01*
X177281226Y-130517495D01*
X177265716Y-130550757D01*
X177264294Y-130556065D01*
X177264293Y-130556067D01*
X177207881Y-130766598D01*
X177206457Y-130771913D01*
X177186502Y-131000000D01*
X177206457Y-131228087D01*
X177207881Y-131233400D01*
X177207881Y-131233402D01*
X177258795Y-131423412D01*
X177265716Y-131449243D01*
X177268039Y-131454224D01*
X177268039Y-131454225D01*
X177360151Y-131651762D01*
X177360154Y-131651767D01*
X177362477Y-131656749D01*
X177393485Y-131701033D01*
X177481319Y-131826472D01*
X177493802Y-131844300D01*
X177655700Y-132006198D01*
X177660208Y-132009355D01*
X177660211Y-132009357D01*
X177713550Y-132046705D01*
X177843251Y-132137523D01*
X177848233Y-132139846D01*
X177848238Y-132139849D01*
X178045775Y-132231961D01*
X178050757Y-132234284D01*
X178056065Y-132235706D01*
X178056067Y-132235707D01*
X178266598Y-132292119D01*
X178266600Y-132292119D01*
X178271913Y-132293543D01*
X178500000Y-132313498D01*
X178728087Y-132293543D01*
X178733400Y-132292119D01*
X178733402Y-132292119D01*
X178943933Y-132235707D01*
X178943935Y-132235706D01*
X178949243Y-132234284D01*
X178954225Y-132231961D01*
X179151762Y-132139849D01*
X179151767Y-132139846D01*
X179156749Y-132137523D01*
X179286450Y-132046705D01*
X179339789Y-132009357D01*
X179339792Y-132009355D01*
X179344300Y-132006198D01*
X179490000Y-131860498D01*
X179552312Y-131826472D01*
X179623127Y-131831537D01*
X179679963Y-131874084D01*
X179697132Y-131910737D01*
X179698255Y-131910316D01*
X179749385Y-132046705D01*
X179836739Y-132163261D01*
X179953295Y-132250615D01*
X180089684Y-132301745D01*
X180151866Y-132308500D01*
X180165500Y-132308500D01*
X180233621Y-132328502D01*
X180280114Y-132382158D01*
X180291500Y-132434500D01*
X180291500Y-133859104D01*
X180271498Y-133927225D01*
X180217842Y-133973718D01*
X180212306Y-133976016D01*
X180211704Y-133976345D01*
X180203295Y-133979498D01*
X180159182Y-134012559D01*
X180125148Y-134038066D01*
X180058642Y-134062914D01*
X179989259Y-134047861D01*
X179974018Y-134038066D01*
X179903648Y-133985327D01*
X179888054Y-133976789D01*
X179767606Y-133931635D01*
X179752351Y-133928008D01*
X179701486Y-133922482D01*
X179694672Y-133922113D01*
X179372115Y-133922113D01*
X179356876Y-133926588D01*
X179355671Y-133927978D01*
X179354000Y-133935661D01*
X179354000Y-135333113D01*
X179333998Y-135401234D01*
X179280342Y-135447727D01*
X179228000Y-135459113D01*
X178060116Y-135459113D01*
X178044877Y-135463588D01*
X178043672Y-135464978D01*
X178042001Y-135472661D01*
X178042001Y-136024782D01*
X178042371Y-136031603D01*
X178047895Y-136082465D01*
X178051521Y-136097717D01*
X178096676Y-136218167D01*
X178105214Y-136233762D01*
X178181715Y-136335837D01*
X178194274Y-136348396D01*
X178201718Y-136353975D01*
X178244232Y-136410835D01*
X178249257Y-136481654D01*
X178215197Y-136543947D01*
X178201715Y-136555628D01*
X178193921Y-136561469D01*
X178193919Y-136561471D01*
X178186739Y-136566852D01*
X178099385Y-136683408D01*
X178048255Y-136819797D01*
X178041500Y-136881979D01*
X178040361Y-136881855D01*
X178018289Y-136944347D01*
X177962206Y-136987881D01*
X177916116Y-136996613D01*
X177412357Y-136996613D01*
X177344236Y-136976611D01*
X177297743Y-136922955D01*
X177287639Y-136852681D01*
X177314045Y-136794171D01*
X177313096Y-136793489D01*
X177440435Y-136616277D01*
X177443453Y-136612077D01*
X177451819Y-136595151D01*
X177540136Y-136416453D01*
X177540137Y-136416451D01*
X177542430Y-136411811D01*
X177601519Y-136217327D01*
X177605865Y-136203023D01*
X177605865Y-136203021D01*
X177607370Y-136198069D01*
X177636529Y-135976590D01*
X177637051Y-135955232D01*
X177638074Y-135913365D01*
X177638074Y-135913361D01*
X177638156Y-135910000D01*
X177619852Y-135687361D01*
X177565431Y-135470702D01*
X177476354Y-135265840D01*
X177401861Y-135150691D01*
X177357822Y-135082617D01*
X177357820Y-135082614D01*
X177355014Y-135078277D01*
X177222820Y-134932998D01*
X178042000Y-134932998D01*
X178046475Y-134948237D01*
X178047865Y-134949442D01*
X178055548Y-134951113D01*
X178827885Y-134951113D01*
X178843124Y-134946638D01*
X178844329Y-134945248D01*
X178846000Y-134937565D01*
X178846000Y-133940229D01*
X178841525Y-133924990D01*
X178840135Y-133923785D01*
X178832452Y-133922114D01*
X178505331Y-133922114D01*
X178498510Y-133922484D01*
X178447648Y-133928008D01*
X178432396Y-133931634D01*
X178311946Y-133976789D01*
X178296351Y-133985327D01*
X178194276Y-134061828D01*
X178181715Y-134074389D01*
X178105214Y-134176464D01*
X178096676Y-134192059D01*
X178051522Y-134312507D01*
X178047895Y-134327762D01*
X178042369Y-134378627D01*
X178042000Y-134385441D01*
X178042000Y-134932998D01*
X177222820Y-134932998D01*
X177204670Y-134913051D01*
X177200619Y-134909852D01*
X177200615Y-134909848D01*
X177033414Y-134777800D01*
X177033410Y-134777798D01*
X177029359Y-134774598D01*
X176833789Y-134666638D01*
X176828920Y-134664914D01*
X176828916Y-134664912D01*
X176628087Y-134593795D01*
X176628083Y-134593794D01*
X176623212Y-134592069D01*
X176618119Y-134591162D01*
X176618116Y-134591161D01*
X176408373Y-134553800D01*
X176408367Y-134553799D01*
X176403284Y-134552894D01*
X176329452Y-134551992D01*
X176185081Y-134550228D01*
X176185079Y-134550228D01*
X176179911Y-134550165D01*
X176015059Y-134575391D01*
X175944698Y-134565923D01*
X175906906Y-134539936D01*
X174254054Y-132887084D01*
X174248200Y-132880819D01*
X174222266Y-132851091D01*
X174210165Y-132837219D01*
X174157884Y-132800475D01*
X174152590Y-132796543D01*
X174108297Y-132761813D01*
X174102322Y-132757128D01*
X174095406Y-132754005D01*
X174093120Y-132752621D01*
X174078439Y-132744247D01*
X174076079Y-132742982D01*
X174069865Y-132738614D01*
X174062786Y-132735854D01*
X174062784Y-132735853D01*
X174010329Y-132715402D01*
X174004260Y-132712851D01*
X173946031Y-132686559D01*
X173938564Y-132685175D01*
X173936009Y-132684374D01*
X173919756Y-132679745D01*
X173917176Y-132679082D01*
X173910095Y-132676322D01*
X173902564Y-132675331D01*
X173902562Y-132675330D01*
X173872943Y-132671431D01*
X173846743Y-132667982D01*
X173840245Y-132666952D01*
X173777418Y-132655308D01*
X173769838Y-132655745D01*
X173769837Y-132655745D01*
X173715212Y-132658895D01*
X173707958Y-132659104D01*
X168647056Y-132659104D01*
X168578935Y-132639102D01*
X168532442Y-132585446D01*
X168522338Y-132515172D01*
X168551832Y-132450592D01*
X168557961Y-132444009D01*
X181256565Y-119745405D01*
X181318877Y-119711379D01*
X181345660Y-119708500D01*
X184771088Y-119708500D01*
X184779658Y-119708792D01*
X184829776Y-119712209D01*
X184829780Y-119712209D01*
X184837352Y-119712725D01*
X184844829Y-119711420D01*
X184844830Y-119711420D01*
X184886336Y-119704176D01*
X184900303Y-119701738D01*
X184906821Y-119700777D01*
X184970242Y-119693102D01*
X184977343Y-119690419D01*
X184979952Y-119689778D01*
X184996262Y-119685315D01*
X184998798Y-119684550D01*
X185006284Y-119683243D01*
X185064800Y-119657556D01*
X185070904Y-119655065D01*
X185123548Y-119635173D01*
X185123549Y-119635172D01*
X185130656Y-119632487D01*
X185136919Y-119628183D01*
X185139285Y-119626946D01*
X185154097Y-119618701D01*
X185156351Y-119617368D01*
X185163305Y-119614315D01*
X185214002Y-119575413D01*
X185219332Y-119571541D01*
X185265720Y-119539661D01*
X185265725Y-119539656D01*
X185271981Y-119535357D01*
X185313436Y-119488829D01*
X185318416Y-119483554D01*
X188285154Y-116516816D01*
X188347466Y-116482790D01*
X188369522Y-116480000D01*
X188373310Y-116479858D01*
X188416158Y-116478249D01*
X188438802Y-116473498D01*
X188610650Y-116437441D01*
X188641791Y-116430907D01*
X188646750Y-116428949D01*
X188646752Y-116428948D01*
X188851256Y-116348185D01*
X188851258Y-116348184D01*
X188856221Y-116346224D01*
X188885705Y-116328333D01*
X189048757Y-116229390D01*
X189048756Y-116229390D01*
X189053317Y-116226623D01*
X189093134Y-116192072D01*
X189223412Y-116079023D01*
X189223414Y-116079021D01*
X189227445Y-116075523D01*
X189294500Y-115993744D01*
X189370240Y-115901373D01*
X189370244Y-115901367D01*
X189373624Y-115897245D01*
X189391552Y-115865750D01*
X189442632Y-115816445D01*
X189512262Y-115802583D01*
X189578333Y-115828566D01*
X189605573Y-115857716D01*
X189687441Y-115979319D01*
X189691120Y-115983176D01*
X189691122Y-115983178D01*
X189747234Y-116041998D01*
X189846576Y-116146135D01*
X190031542Y-116283754D01*
X190036293Y-116286170D01*
X190036297Y-116286172D01*
X190134296Y-116335997D01*
X190237051Y-116388240D01*
X190242145Y-116389822D01*
X190242148Y-116389823D01*
X190442020Y-116451885D01*
X190457227Y-116456607D01*
X190462516Y-116457308D01*
X190680489Y-116486198D01*
X190680494Y-116486198D01*
X190685774Y-116486898D01*
X190691103Y-116486698D01*
X190691105Y-116486698D01*
X190800966Y-116482574D01*
X190916158Y-116478249D01*
X190938802Y-116473498D01*
X191110650Y-116437441D01*
X191141791Y-116430907D01*
X191146750Y-116428949D01*
X191146752Y-116428948D01*
X191351256Y-116348185D01*
X191351258Y-116348184D01*
X191356221Y-116346224D01*
X191385705Y-116328333D01*
X191548757Y-116229390D01*
X191548756Y-116229390D01*
X191553317Y-116226623D01*
X191593134Y-116192072D01*
X191723412Y-116079023D01*
X191723414Y-116079021D01*
X191727445Y-116075523D01*
X191794500Y-115993744D01*
X191870240Y-115901373D01*
X191870244Y-115901367D01*
X191873624Y-115897245D01*
X191876740Y-115891772D01*
X191972958Y-115722740D01*
X191987675Y-115696886D01*
X192066337Y-115480175D01*
X192067287Y-115474923D01*
X192106623Y-115257392D01*
X192106624Y-115257385D01*
X192107361Y-115253308D01*
X192108500Y-115229156D01*
X192108500Y-114817110D01*
X192093920Y-114645280D01*
X192092582Y-114640125D01*
X192092581Y-114640119D01*
X192037343Y-114427297D01*
X192037342Y-114427293D01*
X192036001Y-114422128D01*
X192025468Y-114398744D01*
X191943507Y-114216798D01*
X191941312Y-114211925D01*
X191812559Y-114020681D01*
X191753918Y-113959209D01*
X191724725Y-113928608D01*
X191653424Y-113853865D01*
X191468458Y-113716246D01*
X191463707Y-113713830D01*
X191463703Y-113713828D01*
X191325135Y-113643377D01*
X191262949Y-113611760D01*
X191257855Y-113610178D01*
X191257852Y-113610177D01*
X191047871Y-113544976D01*
X191042773Y-113543393D01*
X191037484Y-113542692D01*
X190819511Y-113513802D01*
X190819506Y-113513802D01*
X190814226Y-113513102D01*
X190808897Y-113513302D01*
X190808895Y-113513302D01*
X190699034Y-113517426D01*
X190583842Y-113521751D01*
X190578623Y-113522846D01*
X190556566Y-113527474D01*
X190358209Y-113569093D01*
X190353250Y-113571051D01*
X190353248Y-113571052D01*
X190148744Y-113651815D01*
X190148742Y-113651816D01*
X190143779Y-113653776D01*
X190139220Y-113656543D01*
X190139217Y-113656544D01*
X190044535Y-113713999D01*
X189946683Y-113773377D01*
X189942653Y-113776874D01*
X189796592Y-113903619D01*
X189772555Y-113924477D01*
X189769168Y-113928608D01*
X189629760Y-114098627D01*
X189629756Y-114098633D01*
X189626376Y-114102755D01*
X189608448Y-114134250D01*
X189557368Y-114183555D01*
X189487738Y-114197417D01*
X189421667Y-114171434D01*
X189394427Y-114142284D01*
X189365035Y-114098627D01*
X189312559Y-114020681D01*
X189253918Y-113959209D01*
X189224725Y-113928608D01*
X189153424Y-113853865D01*
X188968458Y-113716246D01*
X188963707Y-113713830D01*
X188963703Y-113713828D01*
X188825135Y-113643377D01*
X188762949Y-113611760D01*
X188757855Y-113610178D01*
X188757852Y-113610177D01*
X188547871Y-113544976D01*
X188542773Y-113543393D01*
X188537484Y-113542692D01*
X188319511Y-113513802D01*
X188319506Y-113513802D01*
X188314226Y-113513102D01*
X188308897Y-113513302D01*
X188308895Y-113513302D01*
X188199034Y-113517426D01*
X188083842Y-113521751D01*
X188078623Y-113522846D01*
X188056566Y-113527474D01*
X187858209Y-113569093D01*
X187853250Y-113571051D01*
X187853248Y-113571052D01*
X187648744Y-113651815D01*
X187648742Y-113651816D01*
X187643779Y-113653776D01*
X187639220Y-113656543D01*
X187639217Y-113656544D01*
X187544535Y-113713999D01*
X187446683Y-113773377D01*
X187442653Y-113776874D01*
X187296592Y-113903619D01*
X187272555Y-113924477D01*
X187269168Y-113928608D01*
X187129760Y-114098627D01*
X187129756Y-114098633D01*
X187126376Y-114102755D01*
X187108448Y-114134250D01*
X187057368Y-114183555D01*
X186987738Y-114197417D01*
X186921667Y-114171434D01*
X186894427Y-114142284D01*
X186865035Y-114098627D01*
X186812559Y-114020681D01*
X186753918Y-113959209D01*
X186724725Y-113928608D01*
X186653424Y-113853865D01*
X186468458Y-113716246D01*
X186463707Y-113713830D01*
X186463703Y-113713828D01*
X186325135Y-113643377D01*
X186262949Y-113611760D01*
X186257855Y-113610178D01*
X186257852Y-113610177D01*
X186047871Y-113544976D01*
X186042773Y-113543393D01*
X186037484Y-113542692D01*
X185819511Y-113513802D01*
X185819506Y-113513802D01*
X185814226Y-113513102D01*
X185808897Y-113513302D01*
X185808895Y-113513302D01*
X185699034Y-113517426D01*
X185583842Y-113521751D01*
X185578623Y-113522846D01*
X185556566Y-113527474D01*
X185358209Y-113569093D01*
X185353250Y-113571051D01*
X185353248Y-113571052D01*
X185148744Y-113651815D01*
X185148742Y-113651816D01*
X185143779Y-113653776D01*
X185139220Y-113656543D01*
X185139217Y-113656544D01*
X185044535Y-113713999D01*
X184946683Y-113773377D01*
X184942653Y-113776874D01*
X184796592Y-113903619D01*
X184772555Y-113924477D01*
X184769168Y-113928608D01*
X184629760Y-114098627D01*
X184629756Y-114098633D01*
X184626376Y-114102755D01*
X184608448Y-114134250D01*
X184557368Y-114183555D01*
X184487738Y-114197417D01*
X184421667Y-114171434D01*
X184394427Y-114142284D01*
X184365035Y-114098627D01*
X184312559Y-114020681D01*
X184253918Y-113959209D01*
X184224725Y-113928608D01*
X184153424Y-113853865D01*
X183968458Y-113716246D01*
X183963707Y-113713830D01*
X183963703Y-113713828D01*
X183825135Y-113643377D01*
X183762949Y-113611760D01*
X183757855Y-113610178D01*
X183757852Y-113610177D01*
X183547871Y-113544976D01*
X183542773Y-113543393D01*
X183537484Y-113542692D01*
X183319511Y-113513802D01*
X183319506Y-113513802D01*
X183314226Y-113513102D01*
X183308897Y-113513302D01*
X183308895Y-113513302D01*
X183199034Y-113517426D01*
X183083842Y-113521751D01*
X183078623Y-113522846D01*
X183056566Y-113527474D01*
X182858209Y-113569093D01*
X182853250Y-113571051D01*
X182853248Y-113571052D01*
X182648744Y-113651815D01*
X182648742Y-113651816D01*
X182643779Y-113653776D01*
X182639220Y-113656543D01*
X182639217Y-113656544D01*
X182544535Y-113713999D01*
X182446683Y-113773377D01*
X182442653Y-113776874D01*
X182296592Y-113903619D01*
X182272555Y-113924477D01*
X182269168Y-113928608D01*
X182129760Y-114098627D01*
X182129756Y-114098633D01*
X182126376Y-114102755D01*
X182108448Y-114134250D01*
X182057368Y-114183555D01*
X181987738Y-114197417D01*
X181921667Y-114171434D01*
X181894427Y-114142284D01*
X181865035Y-114098627D01*
X181812559Y-114020681D01*
X181753918Y-113959209D01*
X181724725Y-113928608D01*
X181653424Y-113853865D01*
X181468458Y-113716246D01*
X181463707Y-113713830D01*
X181463703Y-113713828D01*
X181325135Y-113643377D01*
X181262949Y-113611760D01*
X181257855Y-113610178D01*
X181257852Y-113610177D01*
X181047871Y-113544976D01*
X181042773Y-113543393D01*
X181037484Y-113542692D01*
X180819511Y-113513802D01*
X180819506Y-113513802D01*
X180814226Y-113513102D01*
X180808897Y-113513302D01*
X180808895Y-113513302D01*
X180699034Y-113517426D01*
X180583842Y-113521751D01*
X180578623Y-113522846D01*
X180556566Y-113527474D01*
X180358209Y-113569093D01*
X180353250Y-113571051D01*
X180353248Y-113571052D01*
X180148744Y-113651815D01*
X180148742Y-113651816D01*
X180143779Y-113653776D01*
X180139220Y-113656543D01*
X180139217Y-113656544D01*
X180044535Y-113713999D01*
X179946683Y-113773377D01*
X179942653Y-113776874D01*
X179796592Y-113903619D01*
X179772555Y-113924477D01*
X179769168Y-113928608D01*
X179629760Y-114098627D01*
X179629756Y-114098633D01*
X179626376Y-114102755D01*
X179608448Y-114134250D01*
X179557368Y-114183555D01*
X179487738Y-114197417D01*
X179421667Y-114171434D01*
X179394427Y-114142284D01*
X179365035Y-114098627D01*
X179312559Y-114020681D01*
X179253918Y-113959209D01*
X179224725Y-113928608D01*
X179153424Y-113853865D01*
X178968458Y-113716246D01*
X178963707Y-113713830D01*
X178963703Y-113713828D01*
X178825135Y-113643377D01*
X178762949Y-113611760D01*
X178757855Y-113610178D01*
X178757852Y-113610177D01*
X178547871Y-113544976D01*
X178542773Y-113543393D01*
X178537484Y-113542692D01*
X178319511Y-113513802D01*
X178319506Y-113513802D01*
X178314226Y-113513102D01*
X178308897Y-113513302D01*
X178308895Y-113513302D01*
X178199034Y-113517426D01*
X178083842Y-113521751D01*
X178078623Y-113522846D01*
X178056566Y-113527474D01*
X177858209Y-113569093D01*
X177853250Y-113571051D01*
X177853248Y-113571052D01*
X177648744Y-113651815D01*
X177648742Y-113651816D01*
X177643779Y-113653776D01*
X177639220Y-113656543D01*
X177639217Y-113656544D01*
X177544535Y-113713999D01*
X177446683Y-113773377D01*
X177442653Y-113776874D01*
X177296592Y-113903619D01*
X177272555Y-113924477D01*
X177269168Y-113928608D01*
X177129760Y-114098627D01*
X177129756Y-114098633D01*
X177126376Y-114102755D01*
X177108448Y-114134250D01*
X177057368Y-114183555D01*
X176987738Y-114197417D01*
X176921667Y-114171434D01*
X176894427Y-114142284D01*
X176865035Y-114098627D01*
X176812559Y-114020681D01*
X176753918Y-113959209D01*
X176724725Y-113928608D01*
X176653424Y-113853865D01*
X176468458Y-113716246D01*
X176463707Y-113713830D01*
X176463703Y-113713828D01*
X176325135Y-113643377D01*
X176262949Y-113611760D01*
X176257855Y-113610178D01*
X176257852Y-113610177D01*
X176047871Y-113544976D01*
X176042773Y-113543393D01*
X176037484Y-113542692D01*
X175819511Y-113513802D01*
X175819506Y-113513802D01*
X175814226Y-113513102D01*
X175808897Y-113513302D01*
X175808895Y-113513302D01*
X175699034Y-113517426D01*
X175583842Y-113521751D01*
X175578623Y-113522846D01*
X175556566Y-113527474D01*
X175358209Y-113569093D01*
X175353250Y-113571051D01*
X175353248Y-113571052D01*
X175148744Y-113651815D01*
X175148742Y-113651816D01*
X175143779Y-113653776D01*
X175139220Y-113656543D01*
X175139217Y-113656544D01*
X175044535Y-113713999D01*
X174946683Y-113773377D01*
X174942653Y-113776874D01*
X174796592Y-113903619D01*
X174772555Y-113924477D01*
X174769168Y-113928608D01*
X174629760Y-114098627D01*
X174629756Y-114098633D01*
X174626376Y-114102755D01*
X174608448Y-114134250D01*
X174557368Y-114183555D01*
X174487738Y-114197417D01*
X174421667Y-114171434D01*
X174394427Y-114142284D01*
X174365035Y-114098627D01*
X174312559Y-114020681D01*
X174253918Y-113959209D01*
X174224725Y-113928608D01*
X174153424Y-113853865D01*
X173968458Y-113716246D01*
X173963707Y-113713830D01*
X173963703Y-113713828D01*
X173825135Y-113643377D01*
X173762949Y-113611760D01*
X173757855Y-113610178D01*
X173757852Y-113610177D01*
X173547871Y-113544976D01*
X173542773Y-113543393D01*
X173537484Y-113542692D01*
X173319511Y-113513802D01*
X173319506Y-113513802D01*
X173314226Y-113513102D01*
X173308897Y-113513302D01*
X173308895Y-113513302D01*
X173199034Y-113517426D01*
X173083842Y-113521751D01*
X173078623Y-113522846D01*
X173056566Y-113527474D01*
X172858209Y-113569093D01*
X172853250Y-113571051D01*
X172853248Y-113571052D01*
X172648744Y-113651815D01*
X172648742Y-113651816D01*
X172643779Y-113653776D01*
X172639220Y-113656543D01*
X172639217Y-113656544D01*
X172544535Y-113713999D01*
X172446683Y-113773377D01*
X172442653Y-113776874D01*
X172296592Y-113903619D01*
X172272555Y-113924477D01*
X172269168Y-113928608D01*
X172129760Y-114098627D01*
X172129756Y-114098633D01*
X172126376Y-114102755D01*
X172108448Y-114134250D01*
X172057368Y-114183555D01*
X171987738Y-114197417D01*
X171921667Y-114171434D01*
X171894427Y-114142284D01*
X171865035Y-114098627D01*
X171812559Y-114020681D01*
X171753918Y-113959209D01*
X171724725Y-113928608D01*
X171653424Y-113853865D01*
X171468458Y-113716246D01*
X171463707Y-113713830D01*
X171463703Y-113713828D01*
X171325135Y-113643377D01*
X171262949Y-113611760D01*
X171257855Y-113610178D01*
X171257852Y-113610177D01*
X171047871Y-113544976D01*
X171042773Y-113543393D01*
X171037484Y-113542692D01*
X170819511Y-113513802D01*
X170819506Y-113513802D01*
X170814226Y-113513102D01*
X170808897Y-113513302D01*
X170808895Y-113513302D01*
X170699034Y-113517426D01*
X170583842Y-113521751D01*
X170578623Y-113522846D01*
X170556566Y-113527474D01*
X170358209Y-113569093D01*
X170353250Y-113571051D01*
X170353248Y-113571052D01*
X170148744Y-113651815D01*
X170148742Y-113651816D01*
X170143779Y-113653776D01*
X170139220Y-113656543D01*
X170139217Y-113656544D01*
X170044535Y-113713999D01*
X169946683Y-113773377D01*
X169942653Y-113776874D01*
X169796592Y-113903619D01*
X169772555Y-113924477D01*
X169743330Y-113960120D01*
X169684671Y-114000114D01*
X169613701Y-114002046D01*
X169552952Y-113965302D01*
X169538752Y-113946532D01*
X169452332Y-113806880D01*
X169448478Y-113800652D01*
X169323303Y-113675695D01*
X169293654Y-113657419D01*
X169178968Y-113586725D01*
X169178966Y-113586724D01*
X169172738Y-113582885D01*
X169092995Y-113556436D01*
X169011389Y-113529368D01*
X169011387Y-113529368D01*
X169004861Y-113527203D01*
X168998025Y-113526503D01*
X168998022Y-113526502D01*
X168954969Y-113522091D01*
X168900400Y-113516500D01*
X167599600Y-113516500D01*
X167596354Y-113516837D01*
X167596350Y-113516837D01*
X167500692Y-113526762D01*
X167500688Y-113526763D01*
X167493834Y-113527474D01*
X167487298Y-113529655D01*
X167487296Y-113529655D01*
X167448220Y-113542692D01*
X167326054Y-113583450D01*
X167175652Y-113676522D01*
X167050695Y-113801697D01*
X167046855Y-113807927D01*
X167046854Y-113807928D01*
X166972466Y-113928608D01*
X166957885Y-113952262D01*
X166936472Y-114016822D01*
X166906432Y-114107390D01*
X166902203Y-114120139D01*
X166891500Y-114224600D01*
X166891500Y-115766005D01*
X166871498Y-115834126D01*
X166817842Y-115880619D01*
X166758761Y-115889774D01*
X166758663Y-115891772D01*
X166754643Y-115891575D01*
X166754626Y-115891575D01*
X166753101Y-115891500D01*
X166597154Y-115891500D01*
X166439434Y-115906548D01*
X166236466Y-115966092D01*
X166231139Y-115968836D01*
X166231138Y-115968836D01*
X166053751Y-116060196D01*
X166053748Y-116060198D01*
X166048420Y-116062942D01*
X165882080Y-116193604D01*
X165878148Y-116198135D01*
X165878145Y-116198138D01*
X165803500Y-116284159D01*
X165743448Y-116353363D01*
X165740448Y-116358549D01*
X165740445Y-116358553D01*
X165669113Y-116481855D01*
X165637527Y-116536454D01*
X165568139Y-116736271D01*
X165567278Y-116742206D01*
X165567278Y-116742208D01*
X165548603Y-116871010D01*
X165537787Y-116945604D01*
X165547567Y-117156899D01*
X165597125Y-117362534D01*
X165684674Y-117555087D01*
X165711484Y-117592882D01*
X165781786Y-117691989D01*
X165807054Y-117727611D01*
X165959850Y-117873881D01*
X166137548Y-117988620D01*
X166143114Y-117990863D01*
X166328168Y-118065442D01*
X166328171Y-118065443D01*
X166333737Y-118067686D01*
X166541337Y-118108228D01*
X166546899Y-118108500D01*
X166702846Y-118108500D01*
X166860566Y-118093452D01*
X167063534Y-118033908D01*
X167108698Y-118010647D01*
X167246249Y-117939804D01*
X167246252Y-117939802D01*
X167251580Y-117937058D01*
X167417920Y-117806396D01*
X167421852Y-117801865D01*
X167421855Y-117801862D01*
X167552617Y-117651172D01*
X167552618Y-117651170D01*
X167556552Y-117646637D01*
X167559557Y-117641443D01*
X167562923Y-117636724D01*
X167618766Y-117592882D01*
X167689447Y-117586192D01*
X167752525Y-117618776D01*
X167787973Y-117680290D01*
X167791500Y-117709895D01*
X167791500Y-123154338D01*
X167771498Y-123222459D01*
X167754596Y-123243433D01*
X167243435Y-123754595D01*
X167181122Y-123788620D01*
X167154339Y-123791500D01*
X164387856Y-123791500D01*
X164379286Y-123791208D01*
X164329158Y-123787790D01*
X164329154Y-123787790D01*
X164321582Y-123787274D01*
X164314105Y-123788579D01*
X164314104Y-123788579D01*
X164299041Y-123791208D01*
X164258620Y-123798263D01*
X164252102Y-123799224D01*
X164188692Y-123806898D01*
X164181591Y-123809581D01*
X164178982Y-123810222D01*
X164162672Y-123814685D01*
X164160136Y-123815450D01*
X164152650Y-123816757D01*
X164145693Y-123819811D01*
X164104465Y-123837909D01*
X164034050Y-123846975D01*
X163969911Y-123816533D01*
X163932412Y-123756247D01*
X163933460Y-123685258D01*
X163964724Y-123633441D01*
X164480528Y-123117637D01*
X164486793Y-123111783D01*
X164524664Y-123078746D01*
X164524665Y-123078745D01*
X164530385Y-123073755D01*
X164567136Y-123021465D01*
X164571028Y-123016223D01*
X164610476Y-122965912D01*
X164613600Y-122958993D01*
X164614988Y-122956701D01*
X164623357Y-122942029D01*
X164624622Y-122939669D01*
X164628990Y-122933455D01*
X164652203Y-122873917D01*
X164654759Y-122867836D01*
X164659781Y-122856715D01*
X164681045Y-122809621D01*
X164682430Y-122802148D01*
X164683234Y-122799582D01*
X164687855Y-122783359D01*
X164688520Y-122780767D01*
X164691282Y-122773685D01*
X164697998Y-122722673D01*
X164699622Y-122710333D01*
X164700654Y-122703817D01*
X164710911Y-122648475D01*
X164712295Y-122641008D01*
X164708709Y-122578814D01*
X164708500Y-122571561D01*
X164708500Y-122393985D01*
X165271555Y-122393985D01*
X165271686Y-122395818D01*
X165275937Y-122402433D01*
X165493102Y-122619598D01*
X165498186Y-122624160D01*
X165538059Y-122656220D01*
X165551409Y-122664442D01*
X165668514Y-122717686D01*
X165685569Y-122722673D01*
X165811839Y-122740756D01*
X165829617Y-122740756D01*
X165955887Y-122722673D01*
X165972942Y-122717686D01*
X166090045Y-122664443D01*
X166103398Y-122656220D01*
X166143279Y-122624154D01*
X166148343Y-122619610D01*
X166514319Y-122253633D01*
X166521930Y-122239695D01*
X166521798Y-122237859D01*
X166517549Y-122231247D01*
X165985568Y-121699266D01*
X165971624Y-121691652D01*
X165969791Y-121691783D01*
X165963176Y-121696034D01*
X165279169Y-122380041D01*
X165271555Y-122393985D01*
X164708500Y-122393985D01*
X164708500Y-122131720D01*
X164728502Y-122063599D01*
X164782158Y-122017106D01*
X164852432Y-122007002D01*
X164894886Y-122021133D01*
X164908278Y-122028446D01*
X164910113Y-122028314D01*
X164916725Y-122024065D01*
X165612414Y-121328376D01*
X166337164Y-121328376D01*
X166337295Y-121330209D01*
X166341546Y-121336824D01*
X166873525Y-121868803D01*
X166887469Y-121876417D01*
X166889302Y-121876286D01*
X166895917Y-121872035D01*
X167265110Y-121502842D01*
X167269672Y-121497758D01*
X167301732Y-121457885D01*
X167309954Y-121444535D01*
X167363198Y-121327430D01*
X167368185Y-121310375D01*
X167386268Y-121184105D01*
X167386268Y-121166327D01*
X167368185Y-121040057D01*
X167363198Y-121023002D01*
X167309955Y-120905899D01*
X167301732Y-120892546D01*
X167269666Y-120852665D01*
X167265122Y-120847601D01*
X167051173Y-120633653D01*
X167037235Y-120626042D01*
X167035399Y-120626174D01*
X167028787Y-120630423D01*
X166344778Y-121314432D01*
X166337164Y-121328376D01*
X165612414Y-121328376D01*
X166666343Y-120274447D01*
X166673957Y-120260503D01*
X166673826Y-120258670D01*
X166669575Y-120252055D01*
X166452410Y-120034890D01*
X166447326Y-120030328D01*
X166407453Y-119998268D01*
X166394103Y-119990046D01*
X166279916Y-119938129D01*
X166226183Y-119891726D01*
X166217366Y-119875579D01*
X166164866Y-119760110D01*
X166161598Y-119752922D01*
X166156651Y-119746769D01*
X166156649Y-119746766D01*
X166129309Y-119712763D01*
X166122405Y-119704176D01*
X165304800Y-118886571D01*
X165269544Y-118858224D01*
X165262210Y-118852327D01*
X165262207Y-118852325D01*
X165256054Y-118847378D01*
X165195431Y-118819815D01*
X165131627Y-118790805D01*
X165131626Y-118790805D01*
X165123458Y-118787091D01*
X165104839Y-118784425D01*
X165040244Y-118754970D01*
X165033606Y-118748793D01*
X164661557Y-118376744D01*
X164657016Y-118371959D01*
X164615675Y-118326045D01*
X164615674Y-118326044D01*
X164611253Y-118321134D01*
X164600887Y-118313602D01*
X164555924Y-118280935D01*
X164550691Y-118276919D01*
X164502667Y-118238030D01*
X164502662Y-118238027D01*
X164497530Y-118233871D01*
X164484993Y-118227483D01*
X164468136Y-118217153D01*
X164462093Y-118212762D01*
X164462090Y-118212760D01*
X164456752Y-118208882D01*
X164450724Y-118206198D01*
X164450722Y-118206197D01*
X164394249Y-118181054D01*
X164388296Y-118178214D01*
X164333253Y-118150168D01*
X164333249Y-118150166D01*
X164327370Y-118147171D01*
X164320992Y-118145462D01*
X164313779Y-118143529D01*
X164295147Y-118136931D01*
X164288319Y-118133891D01*
X164288317Y-118133890D01*
X164282288Y-118131206D01*
X164224152Y-118118848D01*
X164215390Y-118116986D01*
X164208978Y-118115447D01*
X164149280Y-118099451D01*
X164149274Y-118099450D01*
X164142903Y-118097743D01*
X164136313Y-118097398D01*
X164136309Y-118097397D01*
X164128857Y-118097007D01*
X164109252Y-118094426D01*
X164095487Y-118091500D01*
X164027074Y-118091500D01*
X164020480Y-118091327D01*
X163958782Y-118088093D01*
X163958777Y-118088093D01*
X163952190Y-118087748D01*
X163938292Y-118089949D01*
X163918583Y-118091500D01*
X163904513Y-118091500D01*
X163837586Y-118105726D01*
X163831135Y-118106922D01*
X163765329Y-118117344D01*
X163765328Y-118117344D01*
X163764254Y-118117514D01*
X163763569Y-118117623D01*
X163763518Y-118117301D01*
X163696141Y-118115701D01*
X163637343Y-118075910D01*
X163609392Y-118010647D01*
X163608500Y-117995682D01*
X163608500Y-117954216D01*
X163609190Y-117941045D01*
X163612814Y-117906565D01*
X163613504Y-117900000D01*
X163605562Y-117824435D01*
X163594232Y-117716635D01*
X163594232Y-117716633D01*
X163593542Y-117710072D01*
X163534527Y-117528444D01*
X163439040Y-117363056D01*
X163311253Y-117221134D01*
X163156752Y-117108882D01*
X163150724Y-117106198D01*
X163150722Y-117106197D01*
X162988319Y-117033891D01*
X162988318Y-117033891D01*
X162982288Y-117031206D01*
X162888888Y-117011353D01*
X162801944Y-116992872D01*
X162801939Y-116992872D01*
X162795487Y-116991500D01*
X162604513Y-116991500D01*
X162598061Y-116992872D01*
X162598056Y-116992872D01*
X162511112Y-117011353D01*
X162417712Y-117031206D01*
X162411682Y-117033891D01*
X162411681Y-117033891D01*
X162249278Y-117106197D01*
X162249276Y-117106198D01*
X162243248Y-117108882D01*
X162088747Y-117221134D01*
X161960960Y-117363056D01*
X161865473Y-117528444D01*
X161806458Y-117710072D01*
X161805768Y-117716633D01*
X161805768Y-117716635D01*
X161794438Y-117824435D01*
X161786496Y-117900000D01*
X161787186Y-117906565D01*
X161790810Y-117941045D01*
X161791500Y-117954216D01*
X161791500Y-118073088D01*
X161771498Y-118141209D01*
X161717842Y-118187702D01*
X161647568Y-118197806D01*
X161621270Y-118191070D01*
X161612286Y-118187702D01*
X161593072Y-118180499D01*
X161530890Y-118173744D01*
X160834500Y-118173744D01*
X160766379Y-118153742D01*
X160719886Y-118100086D01*
X160708500Y-118047744D01*
X160708500Y-116105839D01*
X160728502Y-116037718D01*
X160762229Y-116002626D01*
X160807527Y-115970908D01*
X160807529Y-115970906D01*
X160812038Y-115967749D01*
X160967749Y-115812038D01*
X160974370Y-115802583D01*
X161090899Y-115636162D01*
X161090900Y-115636160D01*
X161094056Y-115631653D01*
X161096379Y-115626671D01*
X161096382Y-115626666D01*
X161184795Y-115437061D01*
X161187120Y-115432076D01*
X161244115Y-115219371D01*
X161263307Y-115000000D01*
X161244115Y-114780629D01*
X161187120Y-114567924D01*
X161121545Y-114427297D01*
X161096382Y-114373334D01*
X161096379Y-114373329D01*
X161094056Y-114368347D01*
X161074148Y-114339915D01*
X160970908Y-114192473D01*
X160970906Y-114192470D01*
X160967749Y-114187962D01*
X160812038Y-114032251D01*
X160803951Y-114026588D01*
X160707724Y-113959209D01*
X160631654Y-113905944D01*
X160432076Y-113812880D01*
X160219371Y-113755885D01*
X160000000Y-113736693D01*
X159780629Y-113755885D01*
X159567924Y-113812880D01*
X159486857Y-113850682D01*
X159373334Y-113903618D01*
X159373329Y-113903621D01*
X159368347Y-113905944D01*
X159363840Y-113909100D01*
X159363838Y-113909101D01*
X159192473Y-114029092D01*
X159192470Y-114029094D01*
X159187962Y-114032251D01*
X159032251Y-114187962D01*
X159029094Y-114192470D01*
X159029092Y-114192473D01*
X158925852Y-114339915D01*
X158905944Y-114368347D01*
X158903621Y-114373329D01*
X158903618Y-114373334D01*
X158878455Y-114427297D01*
X158812880Y-114567924D01*
X158755885Y-114780629D01*
X158736693Y-115000000D01*
X158755885Y-115219371D01*
X158812880Y-115432076D01*
X158815205Y-115437061D01*
X158903618Y-115626666D01*
X158903621Y-115626671D01*
X158905944Y-115631653D01*
X158909100Y-115636160D01*
X158909101Y-115636162D01*
X159025631Y-115802583D01*
X159032251Y-115812038D01*
X159187962Y-115967749D01*
X159192471Y-115970906D01*
X159192473Y-115970908D01*
X159237771Y-116002626D01*
X159282099Y-116058084D01*
X159291500Y-116105839D01*
X159291500Y-118445576D01*
X159291208Y-118454146D01*
X159289620Y-118477445D01*
X159287275Y-118511840D01*
X159288580Y-118519317D01*
X159288580Y-118519318D01*
X159298261Y-118574787D01*
X159299219Y-118581277D01*
X159303146Y-118613721D01*
X159291472Y-118683748D01*
X159243789Y-118736350D01*
X159175238Y-118754822D01*
X159140741Y-118749147D01*
X159134211Y-118746199D01*
X159126744Y-118744815D01*
X159124189Y-118744014D01*
X159107936Y-118739385D01*
X159105356Y-118738722D01*
X159098275Y-118735962D01*
X159090744Y-118734971D01*
X159090742Y-118734970D01*
X159061123Y-118731071D01*
X159034923Y-118727622D01*
X159028425Y-118726592D01*
X158965598Y-118714948D01*
X158958018Y-118715385D01*
X158958017Y-118715385D01*
X158903392Y-118718535D01*
X158896138Y-118718744D01*
X155954500Y-118718744D01*
X155886379Y-118698742D01*
X155839886Y-118645086D01*
X155828500Y-118592744D01*
X155828500Y-116105839D01*
X155848502Y-116037718D01*
X155882229Y-116002626D01*
X155927527Y-115970908D01*
X155927529Y-115970906D01*
X155932038Y-115967749D01*
X156087749Y-115812038D01*
X156094370Y-115802583D01*
X156210899Y-115636162D01*
X156210900Y-115636160D01*
X156214056Y-115631653D01*
X156216379Y-115626671D01*
X156216382Y-115626666D01*
X156304795Y-115437061D01*
X156307120Y-115432076D01*
X156364115Y-115219371D01*
X156383307Y-115000000D01*
X156364115Y-114780629D01*
X156307120Y-114567924D01*
X156241545Y-114427297D01*
X156216382Y-114373334D01*
X156216379Y-114373329D01*
X156214056Y-114368347D01*
X156194148Y-114339915D01*
X156090908Y-114192473D01*
X156090906Y-114192470D01*
X156087749Y-114187962D01*
X155932038Y-114032251D01*
X155923951Y-114026588D01*
X155827724Y-113959209D01*
X155751654Y-113905944D01*
X155552076Y-113812880D01*
X155339371Y-113755885D01*
X155120000Y-113736693D01*
X154900629Y-113755885D01*
X154687924Y-113812880D01*
X154606857Y-113850682D01*
X154493334Y-113903618D01*
X154493329Y-113903621D01*
X154488347Y-113905944D01*
X154483840Y-113909100D01*
X154483838Y-113909101D01*
X154312473Y-114029092D01*
X154312470Y-114029094D01*
X154307962Y-114032251D01*
X154152251Y-114187962D01*
X154149094Y-114192470D01*
X154149092Y-114192473D01*
X154045852Y-114339915D01*
X154025944Y-114368347D01*
X154023621Y-114373329D01*
X154023618Y-114373334D01*
X153998455Y-114427297D01*
X153932880Y-114567924D01*
X153875885Y-114780629D01*
X153856693Y-115000000D01*
X153875885Y-115219371D01*
X153932880Y-115432076D01*
X153935205Y-115437061D01*
X154023618Y-115626666D01*
X154023621Y-115626671D01*
X154025944Y-115631653D01*
X154029100Y-115636160D01*
X154029101Y-115636162D01*
X154145631Y-115802583D01*
X154152251Y-115812038D01*
X154307962Y-115967749D01*
X154312471Y-115970906D01*
X154312473Y-115970908D01*
X154357771Y-116002626D01*
X154402099Y-116058084D01*
X154411500Y-116105839D01*
X154411500Y-118047744D01*
X154391498Y-118115865D01*
X154337842Y-118162358D01*
X154285500Y-118173744D01*
X153994622Y-118173744D01*
X153932440Y-118180499D01*
X153806985Y-118227530D01*
X153736179Y-118232713D01*
X153718530Y-118227531D01*
X153593072Y-118180499D01*
X153530890Y-118173744D01*
X152374622Y-118173744D01*
X152312440Y-118180499D01*
X152176051Y-118231629D01*
X152059495Y-118318983D01*
X151972141Y-118435539D01*
X151968989Y-118443947D01*
X151939429Y-118522798D01*
X151896787Y-118579562D01*
X151834619Y-118603878D01*
X151816634Y-118605768D01*
X151816631Y-118605769D01*
X151810072Y-118606458D01*
X151803798Y-118608497D01*
X151803791Y-118608498D01*
X151770817Y-118619212D01*
X151758080Y-118622625D01*
X151724169Y-118629833D01*
X151724165Y-118629834D01*
X151717712Y-118631206D01*
X151679994Y-118647999D01*
X151667696Y-118652719D01*
X151638268Y-118662281D01*
X151628444Y-118665473D01*
X151596791Y-118683748D01*
X151592710Y-118686104D01*
X151580959Y-118692092D01*
X151558272Y-118702193D01*
X151543248Y-118708882D01*
X151537909Y-118712761D01*
X151537904Y-118712764D01*
X151509851Y-118733146D01*
X151498798Y-118740325D01*
X151463056Y-118760960D01*
X151458147Y-118765380D01*
X151458143Y-118765383D01*
X151432386Y-118788575D01*
X151422143Y-118796871D01*
X151388747Y-118821134D01*
X151384333Y-118826036D01*
X151384331Y-118826038D01*
X151361129Y-118851806D01*
X151351806Y-118861129D01*
X151321134Y-118888747D01*
X151296871Y-118922143D01*
X151288575Y-118932386D01*
X151265383Y-118958143D01*
X151265380Y-118958147D01*
X151260960Y-118963056D01*
X151240325Y-118998798D01*
X151233146Y-119009851D01*
X151212764Y-119037904D01*
X151212761Y-119037909D01*
X151208882Y-119043248D01*
X151194120Y-119076405D01*
X151192092Y-119080959D01*
X151186105Y-119092708D01*
X151165473Y-119128444D01*
X151163432Y-119134727D01*
X151163431Y-119134728D01*
X151152719Y-119167696D01*
X151147999Y-119179994D01*
X151131206Y-119217712D01*
X151129834Y-119224165D01*
X151129833Y-119224169D01*
X151122625Y-119258080D01*
X151119212Y-119270817D01*
X151108498Y-119303791D01*
X151108497Y-119303798D01*
X151106458Y-119310072D01*
X151105768Y-119316633D01*
X151105768Y-119316635D01*
X151102144Y-119351122D01*
X151100082Y-119364136D01*
X151091500Y-119404513D01*
X151091500Y-119445784D01*
X151090810Y-119458955D01*
X151086496Y-119500000D01*
X151087186Y-119506565D01*
X151090810Y-119541045D01*
X151091500Y-119554216D01*
X151091500Y-119574852D01*
X151071498Y-119642973D01*
X151017842Y-119689466D01*
X150947568Y-119699570D01*
X150914252Y-119689959D01*
X150788323Y-119633892D01*
X150788315Y-119633889D01*
X150782288Y-119631206D01*
X150681078Y-119609693D01*
X150601944Y-119592872D01*
X150601939Y-119592872D01*
X150595487Y-119591500D01*
X150404513Y-119591500D01*
X150398061Y-119592872D01*
X150398056Y-119592872D01*
X150318922Y-119609693D01*
X150217712Y-119631206D01*
X150211682Y-119633891D01*
X150211681Y-119633891D01*
X150049278Y-119706197D01*
X150049276Y-119706198D01*
X150043248Y-119708882D01*
X149888747Y-119821134D01*
X149884326Y-119826044D01*
X149884325Y-119826045D01*
X149839725Y-119875579D01*
X149760960Y-119963056D01*
X149665473Y-120128444D01*
X149606458Y-120310072D01*
X149605768Y-120316633D01*
X149605768Y-120316635D01*
X149597348Y-120396752D01*
X149586496Y-120500000D01*
X149587186Y-120506565D01*
X149590810Y-120541045D01*
X149591500Y-120554216D01*
X149591500Y-120773071D01*
X149589949Y-120792780D01*
X149587748Y-120806678D01*
X149588093Y-120813265D01*
X149588093Y-120813270D01*
X149591327Y-120874968D01*
X149591500Y-120881562D01*
X149591500Y-120902098D01*
X149591844Y-120905370D01*
X149591844Y-120905372D01*
X149593647Y-120922530D01*
X149594164Y-120929104D01*
X149596698Y-120977445D01*
X149597743Y-120997391D01*
X149599453Y-121003772D01*
X149599453Y-121003774D01*
X149601383Y-121010979D01*
X149604985Y-121030413D01*
X149605766Y-121037842D01*
X149605768Y-121037851D01*
X149606458Y-121044416D01*
X149627600Y-121109485D01*
X149629467Y-121115787D01*
X149647171Y-121181858D01*
X149650865Y-121189107D01*
X149653559Y-121194395D01*
X149661125Y-121212661D01*
X149665473Y-121226044D01*
X149668776Y-121231766D01*
X149668777Y-121231767D01*
X149699667Y-121285270D01*
X149702814Y-121291065D01*
X149733871Y-121352018D01*
X149738024Y-121357146D01*
X149738025Y-121357148D01*
X149742727Y-121362954D01*
X149753927Y-121379251D01*
X149757657Y-121385712D01*
X149757660Y-121385716D01*
X149760960Y-121391432D01*
X149765377Y-121396338D01*
X149765381Y-121396343D01*
X149806722Y-121442257D01*
X149811006Y-121447272D01*
X149817888Y-121455770D01*
X149823928Y-121463229D01*
X149838443Y-121477744D01*
X149842984Y-121482529D01*
X149888747Y-121533354D01*
X149894086Y-121537233D01*
X149894087Y-121537234D01*
X149900135Y-121541628D01*
X149915168Y-121554469D01*
X149955533Y-121594834D01*
X149989559Y-121657146D01*
X149984494Y-121727961D01*
X149950591Y-121777707D01*
X149947600Y-121780391D01*
X149733653Y-121994339D01*
X149726042Y-122008277D01*
X149726174Y-122010113D01*
X149730423Y-122016725D01*
X151480041Y-123766343D01*
X151493985Y-123773957D01*
X151495818Y-123773826D01*
X151502433Y-123769575D01*
X151719598Y-123552410D01*
X151724153Y-123547334D01*
X151742752Y-123524203D01*
X151801027Y-123483650D01*
X151871975Y-123481039D01*
X151930041Y-123514064D01*
X152544763Y-124128787D01*
X153147456Y-124731480D01*
X153181482Y-124793792D01*
X153176417Y-124864608D01*
X153133870Y-124921443D01*
X153067350Y-124946254D01*
X153044317Y-124945790D01*
X152898224Y-124929404D01*
X152898506Y-124926888D01*
X152841626Y-124910187D01*
X152820652Y-124893284D01*
X152752178Y-124824810D01*
X152739798Y-124818050D01*
X152732780Y-124823303D01*
X152728302Y-124832651D01*
X152703404Y-124904148D01*
X152662112Y-124961901D01*
X152625850Y-124981701D01*
X152546671Y-125009274D01*
X152392847Y-125105394D01*
X152389267Y-125108583D01*
X152263788Y-125234062D01*
X152260599Y-125237642D01*
X152164479Y-125391466D01*
X152153561Y-125422820D01*
X152137116Y-125470042D01*
X152095824Y-125527796D01*
X152059563Y-125547596D01*
X151980987Y-125574959D01*
X151827163Y-125671079D01*
X151823583Y-125674268D01*
X151698104Y-125799747D01*
X151694915Y-125803327D01*
X151598795Y-125957151D01*
X151571430Y-126035732D01*
X151530141Y-126093481D01*
X151493886Y-126113279D01*
X151415301Y-126140645D01*
X151261477Y-126236765D01*
X151257897Y-126239954D01*
X151132418Y-126365433D01*
X151129229Y-126369013D01*
X151033109Y-126522837D01*
X151005744Y-126601418D01*
X150964455Y-126659167D01*
X150928200Y-126678965D01*
X150849615Y-126706331D01*
X150695791Y-126802451D01*
X150692211Y-126805640D01*
X150589003Y-126908848D01*
X150526695Y-126942871D01*
X150455879Y-126937807D01*
X150410816Y-126908846D01*
X147489439Y-123987469D01*
X149878071Y-123987469D01*
X149878202Y-123989302D01*
X149882453Y-123995917D01*
X150251646Y-124365110D01*
X150256730Y-124369672D01*
X150296603Y-124401732D01*
X150309953Y-124409954D01*
X150427058Y-124463198D01*
X150444113Y-124468185D01*
X150570383Y-124486268D01*
X150588161Y-124486268D01*
X150714431Y-124468185D01*
X150731486Y-124463198D01*
X150848589Y-124409955D01*
X150861942Y-124401732D01*
X150901823Y-124369666D01*
X150906887Y-124365122D01*
X151120835Y-124151173D01*
X151128446Y-124137235D01*
X151128314Y-124135399D01*
X151124065Y-124128787D01*
X150440056Y-123444778D01*
X150426112Y-123437164D01*
X150424279Y-123437295D01*
X150417664Y-123441546D01*
X149885685Y-123973525D01*
X149878071Y-123987469D01*
X147489439Y-123987469D01*
X146431587Y-122929617D01*
X149013732Y-122929617D01*
X149031815Y-123055887D01*
X149036802Y-123072942D01*
X149090045Y-123190045D01*
X149098268Y-123203398D01*
X149130334Y-123243279D01*
X149134878Y-123248343D01*
X149500855Y-123614319D01*
X149514793Y-123621930D01*
X149516629Y-123621798D01*
X149523241Y-123617549D01*
X150055222Y-123085568D01*
X150062836Y-123071624D01*
X150062705Y-123069791D01*
X150058454Y-123063176D01*
X149374447Y-122379169D01*
X149360503Y-122371555D01*
X149358670Y-122371686D01*
X149352055Y-122375937D01*
X149134890Y-122593102D01*
X149130328Y-122598186D01*
X149098268Y-122638059D01*
X149090046Y-122651409D01*
X149036802Y-122768514D01*
X149031815Y-122785569D01*
X149013732Y-122911839D01*
X149013732Y-122929617D01*
X146431587Y-122929617D01*
X142995405Y-119493435D01*
X142961379Y-119431123D01*
X142958500Y-119404340D01*
X142958500Y-116355084D01*
X142978502Y-116286963D01*
X143019135Y-116247365D01*
X143048754Y-116229392D01*
X143048757Y-116229390D01*
X143053317Y-116226623D01*
X143093134Y-116192072D01*
X143223412Y-116079023D01*
X143223414Y-116079021D01*
X143227445Y-116075523D01*
X143294500Y-115993744D01*
X143370240Y-115901373D01*
X143370244Y-115901367D01*
X143373624Y-115897245D01*
X143391552Y-115865750D01*
X143442632Y-115816445D01*
X143512262Y-115802583D01*
X143578333Y-115828566D01*
X143605573Y-115857716D01*
X143687441Y-115979319D01*
X143691120Y-115983176D01*
X143691122Y-115983178D01*
X143747234Y-116041998D01*
X143846576Y-116146135D01*
X144031542Y-116283754D01*
X144036293Y-116286170D01*
X144036297Y-116286172D01*
X144134296Y-116335997D01*
X144237051Y-116388240D01*
X144242145Y-116389822D01*
X144242148Y-116389823D01*
X144442020Y-116451885D01*
X144457227Y-116456607D01*
X144462516Y-116457308D01*
X144680489Y-116486198D01*
X144680494Y-116486198D01*
X144685774Y-116486898D01*
X144691103Y-116486698D01*
X144691105Y-116486698D01*
X144800966Y-116482574D01*
X144916158Y-116478249D01*
X144938802Y-116473498D01*
X145110650Y-116437441D01*
X145141791Y-116430907D01*
X145146750Y-116428949D01*
X145146752Y-116428948D01*
X145351256Y-116348185D01*
X145351258Y-116348184D01*
X145356221Y-116346224D01*
X145385705Y-116328333D01*
X145548757Y-116229390D01*
X145548756Y-116229390D01*
X145553317Y-116226623D01*
X145593134Y-116192072D01*
X145723412Y-116079023D01*
X145723414Y-116079021D01*
X145727445Y-116075523D01*
X145794500Y-115993744D01*
X145870240Y-115901373D01*
X145870244Y-115901367D01*
X145873624Y-115897245D01*
X145891552Y-115865750D01*
X145942632Y-115816445D01*
X146012262Y-115802583D01*
X146078333Y-115828566D01*
X146105573Y-115857716D01*
X146187441Y-115979319D01*
X146191120Y-115983176D01*
X146191122Y-115983178D01*
X146247234Y-116041998D01*
X146346576Y-116146135D01*
X146531542Y-116283754D01*
X146536293Y-116286170D01*
X146536297Y-116286172D01*
X146634296Y-116335997D01*
X146737051Y-116388240D01*
X146742145Y-116389822D01*
X146742148Y-116389823D01*
X146942020Y-116451885D01*
X146957227Y-116456607D01*
X146962516Y-116457308D01*
X147180489Y-116486198D01*
X147180494Y-116486198D01*
X147185774Y-116486898D01*
X147191103Y-116486698D01*
X147191105Y-116486698D01*
X147300966Y-116482574D01*
X147416158Y-116478249D01*
X147438802Y-116473498D01*
X147610650Y-116437441D01*
X147641791Y-116430907D01*
X147646750Y-116428949D01*
X147646752Y-116428948D01*
X147851256Y-116348185D01*
X147851258Y-116348184D01*
X147856221Y-116346224D01*
X147885705Y-116328333D01*
X148048757Y-116229390D01*
X148048756Y-116229390D01*
X148053317Y-116226623D01*
X148093134Y-116192072D01*
X148223412Y-116079023D01*
X148223414Y-116079021D01*
X148227445Y-116075523D01*
X148294500Y-115993744D01*
X148370240Y-115901373D01*
X148370244Y-115901367D01*
X148373624Y-115897245D01*
X148376740Y-115891772D01*
X148472958Y-115722740D01*
X148487675Y-115696886D01*
X148566337Y-115480175D01*
X148567287Y-115474923D01*
X148606623Y-115257392D01*
X148606624Y-115257385D01*
X148607361Y-115253308D01*
X148608500Y-115229156D01*
X148608500Y-114817110D01*
X148593920Y-114645280D01*
X148592582Y-114640125D01*
X148592581Y-114640119D01*
X148537343Y-114427297D01*
X148537342Y-114427293D01*
X148536001Y-114422128D01*
X148525468Y-114398744D01*
X148443507Y-114216798D01*
X148441312Y-114211925D01*
X148312559Y-114020681D01*
X148253918Y-113959209D01*
X148224725Y-113928608D01*
X148153424Y-113853865D01*
X147968458Y-113716246D01*
X147963707Y-113713830D01*
X147963703Y-113713828D01*
X147825135Y-113643377D01*
X147762949Y-113611760D01*
X147757855Y-113610178D01*
X147757852Y-113610177D01*
X147547871Y-113544976D01*
X147542773Y-113543393D01*
X147537484Y-113542692D01*
X147319511Y-113513802D01*
X147319506Y-113513802D01*
X147314226Y-113513102D01*
X147308897Y-113513302D01*
X147308895Y-113513302D01*
X147199034Y-113517426D01*
X147083842Y-113521751D01*
X147078623Y-113522846D01*
X147056566Y-113527474D01*
X146858209Y-113569093D01*
X146853250Y-113571051D01*
X146853248Y-113571052D01*
X146648744Y-113651815D01*
X146648742Y-113651816D01*
X146643779Y-113653776D01*
X146639220Y-113656543D01*
X146639217Y-113656544D01*
X146544535Y-113713999D01*
X146446683Y-113773377D01*
X146442653Y-113776874D01*
X146296592Y-113903619D01*
X146272555Y-113924477D01*
X146269168Y-113928608D01*
X146129760Y-114098627D01*
X146129756Y-114098633D01*
X146126376Y-114102755D01*
X146108448Y-114134250D01*
X146057368Y-114183555D01*
X145987738Y-114197417D01*
X145921667Y-114171434D01*
X145894427Y-114142284D01*
X145865035Y-114098627D01*
X145812559Y-114020681D01*
X145753918Y-113959209D01*
X145724725Y-113928608D01*
X145653424Y-113853865D01*
X145468458Y-113716246D01*
X145463707Y-113713830D01*
X145463703Y-113713828D01*
X145325135Y-113643377D01*
X145262949Y-113611760D01*
X145257855Y-113610178D01*
X145257852Y-113610177D01*
X145047871Y-113544976D01*
X145042773Y-113543393D01*
X145037484Y-113542692D01*
X144819511Y-113513802D01*
X144819506Y-113513802D01*
X144814226Y-113513102D01*
X144808897Y-113513302D01*
X144808895Y-113513302D01*
X144699034Y-113517426D01*
X144583842Y-113521751D01*
X144578623Y-113522846D01*
X144556566Y-113527474D01*
X144358209Y-113569093D01*
X144353250Y-113571051D01*
X144353248Y-113571052D01*
X144148744Y-113651815D01*
X144148742Y-113651816D01*
X144143779Y-113653776D01*
X144139220Y-113656543D01*
X144139217Y-113656544D01*
X144044535Y-113713999D01*
X143946683Y-113773377D01*
X143942653Y-113776874D01*
X143796592Y-113903619D01*
X143772555Y-113924477D01*
X143769168Y-113928608D01*
X143629760Y-114098627D01*
X143629756Y-114098633D01*
X143626376Y-114102755D01*
X143608448Y-114134250D01*
X143557368Y-114183555D01*
X143487738Y-114197417D01*
X143421667Y-114171434D01*
X143394427Y-114142284D01*
X143365035Y-114098627D01*
X143312559Y-114020681D01*
X143253918Y-113959209D01*
X143224725Y-113928608D01*
X143153424Y-113853865D01*
X142968458Y-113716246D01*
X142963707Y-113713830D01*
X142963703Y-113713828D01*
X142825135Y-113643377D01*
X142762949Y-113611760D01*
X142757855Y-113610178D01*
X142757852Y-113610177D01*
X142547871Y-113544976D01*
X142542773Y-113543393D01*
X142537484Y-113542692D01*
X142319511Y-113513802D01*
X142319506Y-113513802D01*
X142314226Y-113513102D01*
X142308897Y-113513302D01*
X142308895Y-113513302D01*
X142199034Y-113517426D01*
X142083842Y-113521751D01*
X142078623Y-113522846D01*
X142056566Y-113527474D01*
X141858209Y-113569093D01*
X141853250Y-113571051D01*
X141853248Y-113571052D01*
X141648744Y-113651815D01*
X141648742Y-113651816D01*
X141643779Y-113653776D01*
X141639220Y-113656543D01*
X141639217Y-113656544D01*
X141544535Y-113713999D01*
X141446683Y-113773377D01*
X141442653Y-113776874D01*
X141296592Y-113903619D01*
X141272555Y-113924477D01*
X141269168Y-113928608D01*
X141129760Y-114098627D01*
X141129756Y-114098633D01*
X141126376Y-114102755D01*
X141108448Y-114134250D01*
X141057368Y-114183555D01*
X140987738Y-114197417D01*
X140921667Y-114171434D01*
X140894427Y-114142284D01*
X140865035Y-114098627D01*
X140812559Y-114020681D01*
X140753918Y-113959209D01*
X140724725Y-113928608D01*
X140653424Y-113853865D01*
X140468458Y-113716246D01*
X140463707Y-113713830D01*
X140463703Y-113713828D01*
X140325135Y-113643377D01*
X140262949Y-113611760D01*
X140257855Y-113610178D01*
X140257852Y-113610177D01*
X140047871Y-113544976D01*
X140042773Y-113543393D01*
X140037484Y-113542692D01*
X139819511Y-113513802D01*
X139819506Y-113513802D01*
X139814226Y-113513102D01*
X139808897Y-113513302D01*
X139808895Y-113513302D01*
X139699034Y-113517426D01*
X139583842Y-113521751D01*
X139578623Y-113522846D01*
X139556566Y-113527474D01*
X139358209Y-113569093D01*
X139353250Y-113571051D01*
X139353248Y-113571052D01*
X139148744Y-113651815D01*
X139148742Y-113651816D01*
X139143779Y-113653776D01*
X139139220Y-113656543D01*
X139139217Y-113656544D01*
X139044535Y-113713999D01*
X138946683Y-113773377D01*
X138942653Y-113776874D01*
X138796592Y-113903619D01*
X138772555Y-113924477D01*
X138769168Y-113928608D01*
X138629760Y-114098627D01*
X138629756Y-114098633D01*
X138626376Y-114102755D01*
X138608448Y-114134250D01*
X138557368Y-114183555D01*
X138487738Y-114197417D01*
X138421667Y-114171434D01*
X138394427Y-114142284D01*
X138365035Y-114098627D01*
X138312559Y-114020681D01*
X138253918Y-113959209D01*
X138224725Y-113928608D01*
X138153424Y-113853865D01*
X137968458Y-113716246D01*
X137963707Y-113713830D01*
X137963703Y-113713828D01*
X137825135Y-113643377D01*
X137762949Y-113611760D01*
X137757855Y-113610178D01*
X137757852Y-113610177D01*
X137547871Y-113544976D01*
X137542773Y-113543393D01*
X137537484Y-113542692D01*
X137319511Y-113513802D01*
X137319506Y-113513802D01*
X137314226Y-113513102D01*
X137308897Y-113513302D01*
X137308895Y-113513302D01*
X137199034Y-113517426D01*
X137083842Y-113521751D01*
X137078623Y-113522846D01*
X137056566Y-113527474D01*
X136858209Y-113569093D01*
X136853250Y-113571051D01*
X136853248Y-113571052D01*
X136648744Y-113651815D01*
X136648742Y-113651816D01*
X136643779Y-113653776D01*
X136639220Y-113656543D01*
X136639217Y-113656544D01*
X136544535Y-113713999D01*
X136446683Y-113773377D01*
X136442653Y-113776874D01*
X136296592Y-113903619D01*
X136272555Y-113924477D01*
X136243330Y-113960120D01*
X136184671Y-114000114D01*
X136113701Y-114002046D01*
X136052952Y-113965302D01*
X136038752Y-113946532D01*
X135952332Y-113806880D01*
X135948478Y-113800652D01*
X135823303Y-113675695D01*
X135793654Y-113657419D01*
X135678968Y-113586725D01*
X135678966Y-113586724D01*
X135672738Y-113582885D01*
X135592995Y-113556436D01*
X135511389Y-113529368D01*
X135511387Y-113529368D01*
X135504861Y-113527203D01*
X135498025Y-113526503D01*
X135498022Y-113526502D01*
X135454969Y-113522091D01*
X135400400Y-113516500D01*
X134099600Y-113516500D01*
X134096354Y-113516837D01*
X134096350Y-113516837D01*
X134000692Y-113526762D01*
X134000688Y-113526763D01*
X133993834Y-113527474D01*
X133987298Y-113529655D01*
X133987296Y-113529655D01*
X133948220Y-113542692D01*
X133826054Y-113583450D01*
X133675652Y-113676522D01*
X133550695Y-113801697D01*
X133546855Y-113807927D01*
X133546854Y-113807928D01*
X133472466Y-113928608D01*
X133457885Y-113952262D01*
X133436472Y-114016822D01*
X133406432Y-114107390D01*
X133402203Y-114120139D01*
X133391500Y-114224600D01*
X133391500Y-115775400D01*
X133391837Y-115778646D01*
X133391837Y-115778650D01*
X133400875Y-115865752D01*
X133402474Y-115881166D01*
X133404655Y-115887702D01*
X133404655Y-115887704D01*
X133435725Y-115980832D01*
X133458450Y-116048946D01*
X133551522Y-116199348D01*
X133676697Y-116324305D01*
X133682927Y-116328145D01*
X133682928Y-116328146D01*
X133820090Y-116412694D01*
X133827262Y-116417115D01*
X133890313Y-116438028D01*
X133988611Y-116470632D01*
X133988613Y-116470632D01*
X133995139Y-116472797D01*
X134001975Y-116473497D01*
X134001978Y-116473498D01*
X134037663Y-116477154D01*
X134099600Y-116483500D01*
X135400400Y-116483500D01*
X135403646Y-116483163D01*
X135403650Y-116483163D01*
X135499308Y-116473238D01*
X135499312Y-116473237D01*
X135506166Y-116472526D01*
X135512702Y-116470345D01*
X135512704Y-116470345D01*
X135644806Y-116426272D01*
X135673946Y-116416550D01*
X135824348Y-116323478D01*
X135885395Y-116262325D01*
X135944134Y-116203483D01*
X135949305Y-116198303D01*
X135970830Y-116163384D01*
X135997424Y-116120240D01*
X136039081Y-116052660D01*
X136091852Y-116005168D01*
X136161924Y-115993744D01*
X136227048Y-116022018D01*
X136237510Y-116031805D01*
X136279215Y-116075523D01*
X136346576Y-116146135D01*
X136531542Y-116283754D01*
X136536293Y-116286170D01*
X136536297Y-116286172D01*
X136634296Y-116335997D01*
X136737051Y-116388240D01*
X136742145Y-116389822D01*
X136742148Y-116389823D01*
X136942020Y-116451885D01*
X136957227Y-116456607D01*
X136962516Y-116457308D01*
X137180489Y-116486198D01*
X137180494Y-116486198D01*
X137185774Y-116486898D01*
X137191103Y-116486698D01*
X137191105Y-116486698D01*
X137300966Y-116482574D01*
X137416158Y-116478249D01*
X137438802Y-116473498D01*
X137610650Y-116437441D01*
X137641791Y-116430907D01*
X137646750Y-116428949D01*
X137646752Y-116428948D01*
X137851256Y-116348185D01*
X137851258Y-116348184D01*
X137856221Y-116346224D01*
X137885705Y-116328333D01*
X138048757Y-116229390D01*
X138048756Y-116229390D01*
X138053317Y-116226623D01*
X138093134Y-116192072D01*
X138223412Y-116079023D01*
X138223414Y-116079021D01*
X138227445Y-116075523D01*
X138294500Y-115993744D01*
X138370240Y-115901373D01*
X138370244Y-115901367D01*
X138373624Y-115897245D01*
X138391552Y-115865750D01*
X138442632Y-115816445D01*
X138512262Y-115802583D01*
X138578333Y-115828566D01*
X138605573Y-115857716D01*
X138687441Y-115979319D01*
X138691120Y-115983176D01*
X138691122Y-115983178D01*
X138747234Y-116041998D01*
X138846576Y-116146135D01*
X139031542Y-116283754D01*
X139036293Y-116286170D01*
X139036297Y-116286172D01*
X139134296Y-116335997D01*
X139237051Y-116388240D01*
X139242145Y-116389822D01*
X139242148Y-116389823D01*
X139442020Y-116451885D01*
X139457227Y-116456607D01*
X139462516Y-116457308D01*
X139680489Y-116486198D01*
X139680494Y-116486198D01*
X139685774Y-116486898D01*
X139691103Y-116486698D01*
X139691105Y-116486698D01*
X139800966Y-116482574D01*
X139916158Y-116478249D01*
X139938802Y-116473498D01*
X140110650Y-116437441D01*
X140141791Y-116430907D01*
X140146750Y-116428949D01*
X140146752Y-116428948D01*
X140351256Y-116348185D01*
X140351258Y-116348184D01*
X140356221Y-116346224D01*
X140385705Y-116328333D01*
X140548757Y-116229390D01*
X140548756Y-116229390D01*
X140553317Y-116226623D01*
X140593134Y-116192072D01*
X140723412Y-116079023D01*
X140723414Y-116079021D01*
X140727445Y-116075523D01*
X140794500Y-115993744D01*
X140870240Y-115901373D01*
X140870244Y-115901367D01*
X140873624Y-115897245D01*
X140891552Y-115865750D01*
X140942632Y-115816445D01*
X141012262Y-115802583D01*
X141078333Y-115828566D01*
X141105573Y-115857716D01*
X141187441Y-115979319D01*
X141191120Y-115983176D01*
X141191122Y-115983178D01*
X141247234Y-116041998D01*
X141346576Y-116146135D01*
X141469695Y-116237738D01*
X141490713Y-116253376D01*
X141533426Y-116310086D01*
X141541500Y-116354465D01*
X141541500Y-117735340D01*
X141521498Y-117803461D01*
X141467842Y-117849954D01*
X141397568Y-117860058D01*
X141332988Y-117830564D01*
X141326405Y-117824435D01*
X140521450Y-117019480D01*
X140515596Y-117013215D01*
X140515201Y-117012762D01*
X140477561Y-116969615D01*
X140425280Y-116932871D01*
X140419986Y-116928939D01*
X140375693Y-116894209D01*
X140369718Y-116889524D01*
X140362802Y-116886401D01*
X140360516Y-116885017D01*
X140345835Y-116876643D01*
X140343475Y-116875378D01*
X140337261Y-116871010D01*
X140330182Y-116868250D01*
X140330180Y-116868249D01*
X140277725Y-116847798D01*
X140271656Y-116845247D01*
X140213427Y-116818955D01*
X140205960Y-116817571D01*
X140203405Y-116816770D01*
X140187152Y-116812141D01*
X140184572Y-116811478D01*
X140177491Y-116808718D01*
X140169960Y-116807727D01*
X140169958Y-116807726D01*
X140140339Y-116803827D01*
X140114139Y-116800378D01*
X140107641Y-116799348D01*
X140044814Y-116787704D01*
X140037234Y-116788141D01*
X140037233Y-116788141D01*
X139982608Y-116791291D01*
X139975354Y-116791500D01*
X128355084Y-116791500D01*
X128286963Y-116771498D01*
X128247365Y-116730865D01*
X128229392Y-116701246D01*
X128229391Y-116701245D01*
X128226623Y-116696683D01*
X128139755Y-116596576D01*
X128079023Y-116526588D01*
X128079021Y-116526586D01*
X128075523Y-116522555D01*
X128025886Y-116481855D01*
X127901373Y-116379760D01*
X127901367Y-116379756D01*
X127897245Y-116376376D01*
X127865750Y-116358448D01*
X127816445Y-116307368D01*
X127802583Y-116237738D01*
X127828566Y-116171667D01*
X127857716Y-116144427D01*
X127954864Y-116079023D01*
X127979319Y-116062559D01*
X127987059Y-116055176D01*
X128080442Y-115966092D01*
X128146135Y-115903424D01*
X128162696Y-115881166D01*
X128280568Y-115722740D01*
X128283754Y-115718458D01*
X128292362Y-115701529D01*
X128385822Y-115517704D01*
X128388240Y-115512949D01*
X128400048Y-115474923D01*
X128455024Y-115297871D01*
X128456607Y-115292773D01*
X128462387Y-115249163D01*
X128486198Y-115069511D01*
X128486198Y-115069506D01*
X128486898Y-115064226D01*
X128478249Y-114833842D01*
X128430907Y-114608209D01*
X128346224Y-114393779D01*
X128330792Y-114368347D01*
X128229390Y-114201243D01*
X128226623Y-114196683D01*
X128160202Y-114120139D01*
X128079023Y-114026588D01*
X128079021Y-114026586D01*
X128075523Y-114022555D01*
X127989795Y-113952262D01*
X127901373Y-113879760D01*
X127901367Y-113879756D01*
X127897245Y-113876376D01*
X127892609Y-113873737D01*
X127892606Y-113873735D01*
X127701529Y-113764968D01*
X127696886Y-113762325D01*
X127480175Y-113683663D01*
X127474926Y-113682714D01*
X127474923Y-113682713D01*
X127257392Y-113643377D01*
X127257385Y-113643376D01*
X127253308Y-113642639D01*
X127235586Y-113641803D01*
X127230644Y-113641570D01*
X127230637Y-113641570D01*
X127229156Y-113641500D01*
X126817110Y-113641500D01*
X126750191Y-113647178D01*
X126650591Y-113655629D01*
X126650587Y-113655630D01*
X126645280Y-113656080D01*
X126640125Y-113657418D01*
X126640119Y-113657419D01*
X126427297Y-113712657D01*
X126427293Y-113712658D01*
X126422128Y-113713999D01*
X126417262Y-113716191D01*
X126417259Y-113716192D01*
X126290313Y-113773377D01*
X126211925Y-113808688D01*
X126020681Y-113937441D01*
X126016824Y-113941120D01*
X126016822Y-113941122D01*
X125997862Y-113959209D01*
X125853865Y-114096576D01*
X125850682Y-114100854D01*
X125836334Y-114120139D01*
X125716246Y-114281542D01*
X125713830Y-114286293D01*
X125713828Y-114286297D01*
X125674405Y-114363838D01*
X125611760Y-114487051D01*
X125610178Y-114492145D01*
X125610177Y-114492148D01*
X125564231Y-114640119D01*
X125543393Y-114707227D01*
X125542692Y-114712516D01*
X125527304Y-114828623D01*
X125513102Y-114935774D01*
X125521751Y-115166158D01*
X125569093Y-115391791D01*
X125571051Y-115396750D01*
X125571052Y-115396752D01*
X125605979Y-115485191D01*
X125653776Y-115606221D01*
X125656543Y-115610780D01*
X125656544Y-115610783D01*
X125705746Y-115691865D01*
X125773377Y-115803317D01*
X125776874Y-115807347D01*
X125918805Y-115970908D01*
X125924477Y-115977445D01*
X125928608Y-115980832D01*
X126098627Y-116120240D01*
X126098633Y-116120244D01*
X126102755Y-116123624D01*
X126134250Y-116141552D01*
X126183555Y-116192632D01*
X126197417Y-116262262D01*
X126171434Y-116328333D01*
X126142284Y-116355573D01*
X126020681Y-116437441D01*
X126016824Y-116441120D01*
X126016822Y-116441122D01*
X125968837Y-116486898D01*
X125853865Y-116596576D01*
X125850682Y-116600854D01*
X125823442Y-116637466D01*
X125716246Y-116781542D01*
X125713830Y-116786293D01*
X125713828Y-116786297D01*
X125698963Y-116815535D01*
X125611760Y-116987051D01*
X125610178Y-116992145D01*
X125610177Y-116992148D01*
X125587986Y-117063614D01*
X125543393Y-117207227D01*
X125513102Y-117435774D01*
X125521751Y-117666158D01*
X125569093Y-117891791D01*
X125571051Y-117896750D01*
X125571052Y-117896752D01*
X125646481Y-118087748D01*
X125653776Y-118106221D01*
X125656543Y-118110780D01*
X125656544Y-118110783D01*
X125716072Y-118208882D01*
X125773377Y-118303317D01*
X125776874Y-118307347D01*
X125900543Y-118449863D01*
X125924477Y-118477445D01*
X125928608Y-118480832D01*
X126098627Y-118620240D01*
X126098633Y-118620244D01*
X126102755Y-118623624D01*
X126134250Y-118641552D01*
X126183555Y-118692632D01*
X126197417Y-118762262D01*
X126171434Y-118828333D01*
X126142284Y-118855573D01*
X126020681Y-118937441D01*
X126016824Y-118941120D01*
X126016822Y-118941122D01*
X125987837Y-118968773D01*
X125853865Y-119096576D01*
X125716246Y-119281542D01*
X125713830Y-119286293D01*
X125713828Y-119286297D01*
X125698404Y-119316635D01*
X125611760Y-119487051D01*
X125610178Y-119492145D01*
X125610177Y-119492148D01*
X125559590Y-119655065D01*
X125543393Y-119707227D01*
X125542692Y-119712516D01*
X125517995Y-119898858D01*
X125513102Y-119935774D01*
X125521751Y-120166158D01*
X125569093Y-120391791D01*
X125571051Y-120396750D01*
X125571052Y-120396752D01*
X125644621Y-120583038D01*
X125653776Y-120606221D01*
X125656543Y-120610780D01*
X125656544Y-120610783D01*
X125720740Y-120716574D01*
X125773377Y-120803317D01*
X125776874Y-120807347D01*
X125917675Y-120969606D01*
X125924477Y-120977445D01*
X125960120Y-121006670D01*
X126000114Y-121065329D01*
X126002046Y-121136299D01*
X125965302Y-121197048D01*
X125946532Y-121211248D01*
X125913374Y-121231767D01*
X125800652Y-121301522D01*
X125675695Y-121426697D01*
X125671855Y-121432927D01*
X125671854Y-121432928D01*
X125620595Y-121516086D01*
X125582885Y-121577262D01*
X125573836Y-121604545D01*
X125532901Y-121727961D01*
X125527203Y-121745139D01*
X125526503Y-121751975D01*
X125526502Y-121751978D01*
X125523866Y-121777707D01*
X125516500Y-121849600D01*
X125516500Y-123150400D01*
X125516837Y-123153646D01*
X125516837Y-123153650D01*
X125526153Y-123243433D01*
X125527474Y-123256166D01*
X125529655Y-123262702D01*
X125529655Y-123262704D01*
X125549400Y-123321885D01*
X125583450Y-123423946D01*
X125676522Y-123574348D01*
X125801697Y-123699305D01*
X125807927Y-123703145D01*
X125807928Y-123703146D01*
X125945246Y-123787790D01*
X125952262Y-123792115D01*
X125994082Y-123805986D01*
X126113611Y-123845632D01*
X126113613Y-123845632D01*
X126120139Y-123847797D01*
X126126975Y-123848497D01*
X126126978Y-123848498D01*
X126170031Y-123852909D01*
X126224600Y-123858500D01*
X127021497Y-123858500D01*
X127089618Y-123878502D01*
X127110592Y-123895405D01*
X127800019Y-124584832D01*
X127812860Y-124599865D01*
X127821134Y-124611253D01*
X127826043Y-124615673D01*
X127871959Y-124657016D01*
X127876744Y-124661557D01*
X127891259Y-124676072D01*
X127898718Y-124682112D01*
X127907216Y-124688994D01*
X127912231Y-124693278D01*
X127958145Y-124734619D01*
X127958150Y-124734623D01*
X127963056Y-124739040D01*
X127968772Y-124742340D01*
X127968776Y-124742343D01*
X127975237Y-124746073D01*
X127991533Y-124757273D01*
X128002470Y-124766129D01*
X128063421Y-124797185D01*
X128069218Y-124800333D01*
X128111614Y-124824810D01*
X128128444Y-124834527D01*
X128134726Y-124836568D01*
X128134728Y-124836569D01*
X128141826Y-124838875D01*
X128160092Y-124846440D01*
X128172630Y-124852829D01*
X128179006Y-124854538D01*
X128179010Y-124854539D01*
X128238685Y-124870529D01*
X128245010Y-124872402D01*
X128310072Y-124893542D01*
X128316640Y-124894232D01*
X128316644Y-124894233D01*
X128324061Y-124895012D01*
X128343508Y-124898616D01*
X128357096Y-124902257D01*
X128363695Y-124902603D01*
X128363696Y-124902603D01*
X128425385Y-124905836D01*
X128431960Y-124906353D01*
X128446222Y-124907852D01*
X128452390Y-124908500D01*
X128472925Y-124908500D01*
X128479519Y-124908673D01*
X128541217Y-124911907D01*
X128541222Y-124911907D01*
X128547809Y-124912252D01*
X128561707Y-124910051D01*
X128581416Y-124908500D01*
X130719618Y-124908500D01*
X130787739Y-124928502D01*
X130834232Y-124982158D01*
X130837599Y-124990269D01*
X130846231Y-125013293D01*
X130849385Y-125021705D01*
X130936739Y-125138261D01*
X131053295Y-125225615D01*
X131189684Y-125276745D01*
X131251866Y-125283500D01*
X133548134Y-125283500D01*
X133610316Y-125276745D01*
X133746705Y-125225615D01*
X133863261Y-125138261D01*
X133950615Y-125021705D01*
X134001745Y-124885316D01*
X134008500Y-124823134D01*
X134008500Y-124819669D01*
X134892001Y-124819669D01*
X134892371Y-124826490D01*
X134897895Y-124877352D01*
X134901521Y-124892604D01*
X134946676Y-125013054D01*
X134955214Y-125028649D01*
X135031715Y-125130724D01*
X135044276Y-125143285D01*
X135146351Y-125219786D01*
X135161946Y-125228324D01*
X135282394Y-125273478D01*
X135297649Y-125277105D01*
X135348514Y-125282631D01*
X135355328Y-125283000D01*
X136227885Y-125283000D01*
X136243124Y-125278525D01*
X136244329Y-125277135D01*
X136246000Y-125269452D01*
X136246000Y-125264884D01*
X136754000Y-125264884D01*
X136758475Y-125280123D01*
X136759865Y-125281328D01*
X136767548Y-125282999D01*
X137644669Y-125282999D01*
X137651490Y-125282629D01*
X137702352Y-125277105D01*
X137717604Y-125273479D01*
X137838054Y-125228324D01*
X137853649Y-125219786D01*
X137955724Y-125143285D01*
X137968285Y-125130724D01*
X138044786Y-125028649D01*
X138053324Y-125013054D01*
X138098478Y-124892606D01*
X138102105Y-124877351D01*
X138107631Y-124826486D01*
X138108000Y-124819672D01*
X138108000Y-124272115D01*
X138103525Y-124256876D01*
X138102135Y-124255671D01*
X138094452Y-124254000D01*
X136772115Y-124254000D01*
X136756876Y-124258475D01*
X136755671Y-124259865D01*
X136754000Y-124267548D01*
X136754000Y-125264884D01*
X136246000Y-125264884D01*
X136246000Y-124272115D01*
X136241525Y-124256876D01*
X136240135Y-124255671D01*
X136232452Y-124254000D01*
X134910116Y-124254000D01*
X134894877Y-124258475D01*
X134893672Y-124259865D01*
X134892001Y-124267548D01*
X134892001Y-124819669D01*
X134008500Y-124819669D01*
X134008500Y-123727885D01*
X134892000Y-123727885D01*
X134896475Y-123743124D01*
X134897865Y-123744329D01*
X134905548Y-123746000D01*
X136227885Y-123746000D01*
X136243124Y-123741525D01*
X136244329Y-123740135D01*
X136246000Y-123732452D01*
X136246000Y-123727885D01*
X136754000Y-123727885D01*
X136758475Y-123743124D01*
X136759865Y-123744329D01*
X136767548Y-123746000D01*
X138089884Y-123746000D01*
X138105123Y-123741525D01*
X138106328Y-123740135D01*
X138107999Y-123732452D01*
X138107999Y-123180331D01*
X138107629Y-123173510D01*
X138102105Y-123122648D01*
X138098479Y-123107396D01*
X138053324Y-122986946D01*
X138044786Y-122971351D01*
X137968285Y-122869276D01*
X137955724Y-122856715D01*
X137853649Y-122780214D01*
X137838054Y-122771676D01*
X137717606Y-122726522D01*
X137702351Y-122722895D01*
X137651486Y-122717369D01*
X137644672Y-122717000D01*
X136772115Y-122717000D01*
X136756876Y-122721475D01*
X136755671Y-122722865D01*
X136754000Y-122730548D01*
X136754000Y-123727885D01*
X136246000Y-123727885D01*
X136246000Y-122735116D01*
X136241525Y-122719877D01*
X136240135Y-122718672D01*
X136232452Y-122717001D01*
X135355331Y-122717001D01*
X135348510Y-122717371D01*
X135297648Y-122722895D01*
X135282396Y-122726521D01*
X135161946Y-122771676D01*
X135146351Y-122780214D01*
X135044276Y-122856715D01*
X135031715Y-122869276D01*
X134955214Y-122971351D01*
X134946676Y-122986946D01*
X134901522Y-123107394D01*
X134897895Y-123122649D01*
X134892369Y-123173514D01*
X134892000Y-123180328D01*
X134892000Y-123727885D01*
X134008500Y-123727885D01*
X134008500Y-123176866D01*
X134001745Y-123114684D01*
X133950615Y-122978295D01*
X133863261Y-122861739D01*
X133746705Y-122774385D01*
X133610316Y-122723255D01*
X133548134Y-122716500D01*
X131251866Y-122716500D01*
X131189684Y-122723255D01*
X131053295Y-122774385D01*
X130936739Y-122861739D01*
X130849385Y-122978295D01*
X130846233Y-122986703D01*
X130846231Y-122986707D01*
X130837599Y-123009731D01*
X130794957Y-123066495D01*
X130728395Y-123091194D01*
X130719618Y-123091500D01*
X128928503Y-123091500D01*
X128860382Y-123071498D01*
X128839408Y-123054595D01*
X128520405Y-122735592D01*
X128486379Y-122673280D01*
X128483500Y-122646497D01*
X128483500Y-121849600D01*
X128478392Y-121800369D01*
X128473238Y-121750692D01*
X128473237Y-121750688D01*
X128472526Y-121743834D01*
X128467231Y-121727961D01*
X128418868Y-121583002D01*
X128416550Y-121576054D01*
X128323478Y-121425652D01*
X128198303Y-121300695D01*
X128189037Y-121294983D01*
X128153318Y-121272966D01*
X128052660Y-121210919D01*
X128005168Y-121158148D01*
X127993744Y-121088076D01*
X128022018Y-121022952D01*
X128031805Y-121012490D01*
X128122681Y-120925798D01*
X128146135Y-120903424D01*
X128154229Y-120892546D01*
X128217172Y-120807947D01*
X128253377Y-120759287D01*
X128310086Y-120716574D01*
X128354465Y-120708500D01*
X141011270Y-120708500D01*
X141079391Y-120728502D01*
X141100365Y-120745405D01*
X143743800Y-123388840D01*
X143777826Y-123451152D01*
X143780015Y-123464763D01*
X143784923Y-123511463D01*
X143786963Y-123517740D01*
X143786963Y-123517742D01*
X143812759Y-123597134D01*
X143843938Y-123693091D01*
X143847241Y-123698813D01*
X143847242Y-123698814D01*
X143864026Y-123727885D01*
X143939425Y-123858479D01*
X143943843Y-123863386D01*
X143943844Y-123863387D01*
X143957129Y-123878141D01*
X144067212Y-124000401D01*
X144221713Y-124112653D01*
X144227741Y-124115337D01*
X144227743Y-124115338D01*
X144312662Y-124153146D01*
X144396177Y-124190329D01*
X144532876Y-124219385D01*
X144549034Y-124222820D01*
X144611932Y-124256972D01*
X150553270Y-130198311D01*
X150587296Y-130260623D01*
X150582231Y-130331438D01*
X150565633Y-130361821D01*
X150563543Y-130364168D01*
X150467423Y-130517992D01*
X150407771Y-130689288D01*
X150406986Y-130696285D01*
X150406986Y-130696286D01*
X150395213Y-130801253D01*
X150387553Y-130869543D01*
X150388338Y-130876542D01*
X150405813Y-131032337D01*
X150407771Y-131049798D01*
X150467423Y-131221095D01*
X150563543Y-131374919D01*
X150566732Y-131378499D01*
X150676128Y-131487895D01*
X150710154Y-131550207D01*
X150705089Y-131621022D01*
X150676128Y-131666085D01*
X150587618Y-131754595D01*
X150525306Y-131788621D01*
X150498523Y-131791500D01*
X143927288Y-131791500D01*
X143859167Y-131771498D01*
X143812674Y-131717842D01*
X143802570Y-131647568D01*
X143832064Y-131582988D01*
X143894677Y-131543793D01*
X143943933Y-131530595D01*
X143943935Y-131530594D01*
X143949243Y-131529172D01*
X143976129Y-131516635D01*
X144151762Y-131434737D01*
X144151767Y-131434734D01*
X144156749Y-131432411D01*
X144339309Y-131304581D01*
X144339789Y-131304245D01*
X144339792Y-131304243D01*
X144344300Y-131301086D01*
X144506198Y-131139188D01*
X144524236Y-131113428D01*
X144609157Y-130992148D01*
X144637523Y-130951637D01*
X144639846Y-130946655D01*
X144639849Y-130946650D01*
X144731961Y-130749113D01*
X144731961Y-130749112D01*
X144734284Y-130744131D01*
X144793543Y-130522975D01*
X144813498Y-130294888D01*
X144793543Y-130066801D01*
X144791241Y-130058209D01*
X144735707Y-129850955D01*
X144735706Y-129850953D01*
X144734284Y-129845645D01*
X144727622Y-129831358D01*
X144639849Y-129643126D01*
X144639846Y-129643121D01*
X144637523Y-129638139D01*
X144546295Y-129507852D01*
X144509357Y-129455099D01*
X144509355Y-129455096D01*
X144506198Y-129450588D01*
X144360078Y-129304468D01*
X144326052Y-129242156D01*
X144331117Y-129171341D01*
X144373664Y-129114505D01*
X144410606Y-129097205D01*
X144410207Y-129096140D01*
X144538054Y-129048212D01*
X144553649Y-129039674D01*
X144655724Y-128963173D01*
X144668285Y-128950612D01*
X144744786Y-128848537D01*
X144753324Y-128832942D01*
X144798478Y-128712494D01*
X144802105Y-128697239D01*
X144807631Y-128646374D01*
X144808000Y-128639560D01*
X144808000Y-128067003D01*
X144803525Y-128051764D01*
X144802135Y-128050559D01*
X144794452Y-128048888D01*
X142210116Y-128048888D01*
X142194877Y-128053363D01*
X142193672Y-128054753D01*
X142192001Y-128062436D01*
X142192001Y-128639557D01*
X142192371Y-128646378D01*
X142197895Y-128697240D01*
X142201521Y-128712492D01*
X142246676Y-128832942D01*
X142255214Y-128848537D01*
X142331715Y-128950612D01*
X142344276Y-128963173D01*
X142446351Y-129039674D01*
X142461946Y-129048212D01*
X142589793Y-129096140D01*
X142589096Y-129098000D01*
X142641628Y-129128019D01*
X142674442Y-129190978D01*
X142668008Y-129261682D01*
X142639922Y-129304468D01*
X142493802Y-129450588D01*
X142490645Y-129455096D01*
X142490643Y-129455099D01*
X142453705Y-129507852D01*
X142362477Y-129638139D01*
X142360154Y-129643121D01*
X142360151Y-129643126D01*
X142272378Y-129831358D01*
X142265716Y-129845645D01*
X142264294Y-129850953D01*
X142264293Y-129850955D01*
X142208759Y-130058209D01*
X142206457Y-130066801D01*
X142186502Y-130294888D01*
X142206457Y-130522975D01*
X142265716Y-130744131D01*
X142268039Y-130749112D01*
X142268039Y-130749113D01*
X142360151Y-130946650D01*
X142360154Y-130946655D01*
X142362477Y-130951637D01*
X142390843Y-130992148D01*
X142475765Y-131113428D01*
X142493802Y-131139188D01*
X142655700Y-131301086D01*
X142660208Y-131304243D01*
X142660211Y-131304245D01*
X142660691Y-131304581D01*
X142843251Y-131432411D01*
X142848233Y-131434734D01*
X142848238Y-131434737D01*
X143023871Y-131516635D01*
X143050757Y-131529172D01*
X143056065Y-131530594D01*
X143056067Y-131530595D01*
X143105323Y-131543793D01*
X143165946Y-131580745D01*
X143196967Y-131644606D01*
X143188539Y-131715100D01*
X143143336Y-131769847D01*
X143072712Y-131791500D01*
X128550578Y-131791500D01*
X128482457Y-131771498D01*
X128435964Y-131717842D01*
X128425670Y-131648946D01*
X128436198Y-131569512D01*
X128436198Y-131569505D01*
X128436898Y-131564226D01*
X128435636Y-131530595D01*
X128428984Y-131353424D01*
X128428249Y-131333842D01*
X128422110Y-131304581D01*
X128382002Y-131113428D01*
X128380907Y-131108209D01*
X128378948Y-131103248D01*
X128298185Y-130898744D01*
X128298184Y-130898742D01*
X128296224Y-130893779D01*
X128285765Y-130876542D01*
X128179390Y-130701243D01*
X128176623Y-130696683D01*
X128146019Y-130661415D01*
X128029023Y-130526588D01*
X128029021Y-130526586D01*
X128025523Y-130522555D01*
X127955763Y-130465355D01*
X127851373Y-130379760D01*
X127851367Y-130379756D01*
X127847245Y-130376376D01*
X127815750Y-130358448D01*
X127766445Y-130307368D01*
X127752583Y-130237738D01*
X127778566Y-130171667D01*
X127807716Y-130144427D01*
X127843642Y-130120240D01*
X127929319Y-130062559D01*
X127939080Y-130053248D01*
X128043857Y-129953295D01*
X128096135Y-129903424D01*
X128143907Y-129839217D01*
X128230568Y-129722740D01*
X128233754Y-129718458D01*
X128240100Y-129705978D01*
X128321143Y-129546576D01*
X128338240Y-129512949D01*
X128345091Y-129490887D01*
X128405024Y-129297871D01*
X128406607Y-129292773D01*
X128411125Y-129258688D01*
X128436198Y-129069511D01*
X128436198Y-129069506D01*
X128436898Y-129064226D01*
X128436255Y-129047104D01*
X128429325Y-128862494D01*
X128446757Y-128793671D01*
X128466141Y-128768672D01*
X128789408Y-128445405D01*
X128851720Y-128411379D01*
X128878503Y-128408500D01*
X130719618Y-128408500D01*
X130787739Y-128428502D01*
X130834232Y-128482158D01*
X130837599Y-128490269D01*
X130846231Y-128513293D01*
X130849385Y-128521705D01*
X130936739Y-128638261D01*
X131053295Y-128725615D01*
X131189684Y-128776745D01*
X131251866Y-128783500D01*
X133548134Y-128783500D01*
X133610316Y-128776745D01*
X133746705Y-128725615D01*
X133863261Y-128638261D01*
X133950615Y-128521705D01*
X134001745Y-128385316D01*
X134008500Y-128323134D01*
X134008500Y-128319669D01*
X134892001Y-128319669D01*
X134892371Y-128326490D01*
X134897895Y-128377352D01*
X134901521Y-128392604D01*
X134946676Y-128513054D01*
X134955214Y-128528649D01*
X135031715Y-128630724D01*
X135044276Y-128643285D01*
X135146351Y-128719786D01*
X135161946Y-128728324D01*
X135282394Y-128773478D01*
X135297649Y-128777105D01*
X135348514Y-128782631D01*
X135355328Y-128783000D01*
X136227885Y-128783000D01*
X136243124Y-128778525D01*
X136244329Y-128777135D01*
X136246000Y-128769452D01*
X136246000Y-128764884D01*
X136754000Y-128764884D01*
X136758475Y-128780123D01*
X136759865Y-128781328D01*
X136767548Y-128782999D01*
X137644669Y-128782999D01*
X137651490Y-128782629D01*
X137702352Y-128777105D01*
X137717604Y-128773479D01*
X137838054Y-128728324D01*
X137853649Y-128719786D01*
X137955724Y-128643285D01*
X137968285Y-128630724D01*
X138044786Y-128528649D01*
X138053324Y-128513054D01*
X138098478Y-128392606D01*
X138102105Y-128377351D01*
X138107631Y-128326486D01*
X138108000Y-128319672D01*
X138108000Y-127772115D01*
X138103525Y-127756876D01*
X138102135Y-127755671D01*
X138094452Y-127754000D01*
X136772115Y-127754000D01*
X136756876Y-127758475D01*
X136755671Y-127759865D01*
X136754000Y-127767548D01*
X136754000Y-128764884D01*
X136246000Y-128764884D01*
X136246000Y-127772115D01*
X136241525Y-127756876D01*
X136240135Y-127755671D01*
X136232452Y-127754000D01*
X134910116Y-127754000D01*
X134894877Y-127758475D01*
X134893672Y-127759865D01*
X134892001Y-127767548D01*
X134892001Y-128319669D01*
X134008500Y-128319669D01*
X134008500Y-127522773D01*
X142192000Y-127522773D01*
X142196475Y-127538012D01*
X142197865Y-127539217D01*
X142205548Y-127540888D01*
X143227885Y-127540888D01*
X143243124Y-127536413D01*
X143244329Y-127535023D01*
X143246000Y-127527340D01*
X143246000Y-127522773D01*
X143754000Y-127522773D01*
X143758475Y-127538012D01*
X143759865Y-127539217D01*
X143767548Y-127540888D01*
X144789884Y-127540888D01*
X144805123Y-127536413D01*
X144806328Y-127535023D01*
X144807999Y-127527340D01*
X144807999Y-126950219D01*
X144807629Y-126943398D01*
X144802105Y-126892536D01*
X144798479Y-126877284D01*
X144753324Y-126756834D01*
X144744786Y-126741239D01*
X144668285Y-126639164D01*
X144655724Y-126626603D01*
X144553649Y-126550102D01*
X144538054Y-126541564D01*
X144417606Y-126496410D01*
X144402351Y-126492783D01*
X144351486Y-126487257D01*
X144344672Y-126486888D01*
X143772115Y-126486888D01*
X143756876Y-126491363D01*
X143755671Y-126492753D01*
X143754000Y-126500436D01*
X143754000Y-127522773D01*
X143246000Y-127522773D01*
X143246000Y-126505004D01*
X143241525Y-126489765D01*
X143240135Y-126488560D01*
X143232452Y-126486889D01*
X142655331Y-126486889D01*
X142648510Y-126487259D01*
X142597648Y-126492783D01*
X142582396Y-126496409D01*
X142461946Y-126541564D01*
X142446351Y-126550102D01*
X142344276Y-126626603D01*
X142331715Y-126639164D01*
X142255214Y-126741239D01*
X142246676Y-126756834D01*
X142201522Y-126877282D01*
X142197895Y-126892537D01*
X142192369Y-126943402D01*
X142192000Y-126950216D01*
X142192000Y-127522773D01*
X134008500Y-127522773D01*
X134008500Y-127227885D01*
X134892000Y-127227885D01*
X134896475Y-127243124D01*
X134897865Y-127244329D01*
X134905548Y-127246000D01*
X136227885Y-127246000D01*
X136243124Y-127241525D01*
X136244329Y-127240135D01*
X136246000Y-127232452D01*
X136246000Y-127227885D01*
X136754000Y-127227885D01*
X136758475Y-127243124D01*
X136759865Y-127244329D01*
X136767548Y-127246000D01*
X138089884Y-127246000D01*
X138105123Y-127241525D01*
X138106328Y-127240135D01*
X138107999Y-127232452D01*
X138107999Y-126680331D01*
X138107629Y-126673510D01*
X138102105Y-126622648D01*
X138098479Y-126607396D01*
X138053324Y-126486946D01*
X138044786Y-126471351D01*
X137968285Y-126369276D01*
X137955724Y-126356715D01*
X137853649Y-126280214D01*
X137838054Y-126271676D01*
X137717606Y-126226522D01*
X137702351Y-126222895D01*
X137651486Y-126217369D01*
X137644672Y-126217000D01*
X136772115Y-126217000D01*
X136756876Y-126221475D01*
X136755671Y-126222865D01*
X136754000Y-126230548D01*
X136754000Y-127227885D01*
X136246000Y-127227885D01*
X136246000Y-126235116D01*
X136241525Y-126219877D01*
X136240135Y-126218672D01*
X136232452Y-126217001D01*
X135355331Y-126217001D01*
X135348510Y-126217371D01*
X135297648Y-126222895D01*
X135282396Y-126226521D01*
X135161946Y-126271676D01*
X135146351Y-126280214D01*
X135044276Y-126356715D01*
X135031715Y-126369276D01*
X134955214Y-126471351D01*
X134946676Y-126486946D01*
X134901522Y-126607394D01*
X134897895Y-126622649D01*
X134892369Y-126673514D01*
X134892000Y-126680328D01*
X134892000Y-127227885D01*
X134008500Y-127227885D01*
X134008500Y-126676866D01*
X134001745Y-126614684D01*
X133950615Y-126478295D01*
X133863261Y-126361739D01*
X133746705Y-126274385D01*
X133610316Y-126223255D01*
X133548134Y-126216500D01*
X131251866Y-126216500D01*
X131189684Y-126223255D01*
X131053295Y-126274385D01*
X130936739Y-126361739D01*
X130849385Y-126478295D01*
X130846233Y-126486703D01*
X130846231Y-126486707D01*
X130837599Y-126509731D01*
X130794957Y-126566495D01*
X130728395Y-126591194D01*
X130719618Y-126591500D01*
X128531416Y-126591500D01*
X128511707Y-126589949D01*
X128497809Y-126587748D01*
X128491222Y-126588093D01*
X128491217Y-126588093D01*
X128429519Y-126591327D01*
X128422925Y-126591500D01*
X128402390Y-126591500D01*
X128396222Y-126592148D01*
X128381960Y-126593647D01*
X128375385Y-126594164D01*
X128313696Y-126597397D01*
X128313695Y-126597397D01*
X128307096Y-126597743D01*
X128293508Y-126601384D01*
X128274061Y-126604988D01*
X128266644Y-126605767D01*
X128266640Y-126605768D01*
X128260072Y-126606458D01*
X128213263Y-126621667D01*
X128195009Y-126627598D01*
X128188685Y-126629471D01*
X128129010Y-126645461D01*
X128129006Y-126645462D01*
X128122630Y-126647171D01*
X128116748Y-126650168D01*
X128110093Y-126653559D01*
X128091826Y-126661125D01*
X128084728Y-126663431D01*
X128084726Y-126663432D01*
X128078444Y-126665473D01*
X128072722Y-126668776D01*
X128072721Y-126668777D01*
X128019218Y-126699667D01*
X128013423Y-126702814D01*
X127952470Y-126733871D01*
X127947342Y-126738024D01*
X127947340Y-126738025D01*
X127941534Y-126742727D01*
X127925237Y-126753927D01*
X127918776Y-126757657D01*
X127918772Y-126757660D01*
X127913056Y-126760960D01*
X127908150Y-126765377D01*
X127908145Y-126765381D01*
X127862231Y-126806722D01*
X127857216Y-126811006D01*
X127848718Y-126817888D01*
X127841259Y-126823928D01*
X127826744Y-126838443D01*
X127821959Y-126842984D01*
X127771134Y-126888747D01*
X127767255Y-126894086D01*
X127767254Y-126894087D01*
X127762860Y-126900135D01*
X127750019Y-126915168D01*
X127060592Y-127604595D01*
X126998280Y-127638621D01*
X126971497Y-127641500D01*
X126767110Y-127641500D01*
X126700191Y-127647178D01*
X126600591Y-127655629D01*
X126600587Y-127655630D01*
X126595280Y-127656080D01*
X126590125Y-127657418D01*
X126590119Y-127657419D01*
X126377297Y-127712657D01*
X126377293Y-127712658D01*
X126372128Y-127713999D01*
X126367262Y-127716191D01*
X126367259Y-127716192D01*
X126228667Y-127778623D01*
X126161925Y-127808688D01*
X125970681Y-127937441D01*
X125966824Y-127941120D01*
X125966822Y-127941122D01*
X125931877Y-127974458D01*
X125803865Y-128096576D01*
X125800682Y-128100854D01*
X125780154Y-128128444D01*
X125666246Y-128281542D01*
X125663830Y-128286293D01*
X125663828Y-128286297D01*
X125627999Y-128356769D01*
X125561760Y-128487051D01*
X125560178Y-128492145D01*
X125560177Y-128492148D01*
X125512287Y-128646378D01*
X125493393Y-128707227D01*
X125492692Y-128712516D01*
X125464018Y-128928866D01*
X125463102Y-128935774D01*
X125463302Y-128941103D01*
X125463302Y-128941105D01*
X125466310Y-129021229D01*
X125471751Y-129166158D01*
X125472846Y-129171377D01*
X125478635Y-129198967D01*
X125519093Y-129391791D01*
X125521051Y-129396750D01*
X125521052Y-129396752D01*
X125544095Y-129455099D01*
X125603776Y-129606221D01*
X125606543Y-129610780D01*
X125606544Y-129610783D01*
X125690650Y-129749385D01*
X125723377Y-129803317D01*
X125726874Y-129807347D01*
X125853521Y-129953295D01*
X125874477Y-129977445D01*
X125878608Y-129980832D01*
X126048627Y-130120240D01*
X126048633Y-130120244D01*
X126052755Y-130123624D01*
X126084250Y-130141552D01*
X126133555Y-130192632D01*
X126147417Y-130262262D01*
X126121434Y-130328333D01*
X126092284Y-130355573D01*
X126081321Y-130362954D01*
X125970681Y-130437441D01*
X125966824Y-130441120D01*
X125966822Y-130441122D01*
X125911286Y-130494101D01*
X125803865Y-130596576D01*
X125800682Y-130600854D01*
X125787861Y-130618086D01*
X125666246Y-130781542D01*
X125663830Y-130786293D01*
X125663828Y-130786297D01*
X125621504Y-130869543D01*
X125561760Y-130987051D01*
X125560178Y-130992145D01*
X125560177Y-130992148D01*
X125514520Y-131139188D01*
X125493393Y-131207227D01*
X125492692Y-131212516D01*
X125464206Y-131427445D01*
X125463102Y-131435774D01*
X125463302Y-131441103D01*
X125463302Y-131441105D01*
X125466138Y-131516635D01*
X125471751Y-131666158D01*
X125472846Y-131671377D01*
X125480715Y-131708882D01*
X125519093Y-131891791D01*
X125521051Y-131896750D01*
X125521052Y-131896752D01*
X125593617Y-132080496D01*
X125603776Y-132106221D01*
X125606543Y-132110780D01*
X125606544Y-132110783D01*
X125628329Y-132146683D01*
X125723377Y-132303317D01*
X125726874Y-132307347D01*
X125851318Y-132450756D01*
X125874477Y-132477445D01*
X125878608Y-132480832D01*
X126048627Y-132620240D01*
X126048633Y-132620244D01*
X126052755Y-132623624D01*
X126084250Y-132641552D01*
X126133555Y-132692632D01*
X126147417Y-132762262D01*
X126121434Y-132828333D01*
X126092284Y-132855573D01*
X125970681Y-132937441D01*
X125966824Y-132941120D01*
X125966822Y-132941122D01*
X125897464Y-133007287D01*
X125803865Y-133096576D01*
X125800682Y-133100854D01*
X125785412Y-133121377D01*
X125666246Y-133281542D01*
X125663830Y-133286293D01*
X125663828Y-133286297D01*
X125622813Y-133366969D01*
X125561760Y-133487051D01*
X125560178Y-133492145D01*
X125560177Y-133492148D01*
X125506908Y-133663703D01*
X125493393Y-133707227D01*
X125492692Y-133712516D01*
X125464206Y-133927445D01*
X125463102Y-133935774D01*
X125463302Y-133941103D01*
X125463302Y-133941105D01*
X125466133Y-134016523D01*
X125471751Y-134166158D01*
X125472846Y-134171377D01*
X125481424Y-134212262D01*
X125519093Y-134391791D01*
X125521051Y-134396750D01*
X125521052Y-134396752D01*
X125598869Y-134593795D01*
X125603776Y-134606221D01*
X125606543Y-134610780D01*
X125606544Y-134610783D01*
X125668998Y-134713703D01*
X125723377Y-134803317D01*
X125726874Y-134807347D01*
X125849132Y-134948237D01*
X125874477Y-134977445D01*
X125910120Y-135006670D01*
X125950114Y-135065329D01*
X125952046Y-135136299D01*
X125915302Y-135197048D01*
X125896532Y-135211248D01*
X125823059Y-135256715D01*
X125750652Y-135301522D01*
X125625695Y-135426697D01*
X125621855Y-135432927D01*
X125621854Y-135432928D01*
X125543926Y-135559351D01*
X125532885Y-135577262D01*
X125521867Y-135610480D01*
X125487942Y-135712763D01*
X125477203Y-135745139D01*
X125466500Y-135849600D01*
X125466500Y-137150400D01*
X125466837Y-137153646D01*
X125466837Y-137153650D01*
X125474475Y-137227260D01*
X125477474Y-137256166D01*
X125479655Y-137262702D01*
X125479655Y-137262704D01*
X125509879Y-137353295D01*
X125533450Y-137423946D01*
X125626522Y-137574348D01*
X125751697Y-137699305D01*
X125757927Y-137703145D01*
X125757928Y-137703146D01*
X125895090Y-137787694D01*
X125902262Y-137792115D01*
X125982005Y-137818564D01*
X126063611Y-137845632D01*
X126063613Y-137845632D01*
X126070139Y-137847797D01*
X126076975Y-137848497D01*
X126076978Y-137848498D01*
X126120031Y-137852909D01*
X126174600Y-137858500D01*
X127725400Y-137858500D01*
X127728646Y-137858163D01*
X127728650Y-137858163D01*
X127824308Y-137848238D01*
X127824312Y-137848237D01*
X127831166Y-137847526D01*
X127837702Y-137845345D01*
X127837704Y-137845345D01*
X127969806Y-137801272D01*
X127998946Y-137791550D01*
X128101827Y-137727885D01*
X130992000Y-137727885D01*
X130996475Y-137743124D01*
X130997865Y-137744329D01*
X131005548Y-137746000D01*
X131777885Y-137746000D01*
X131793124Y-137741525D01*
X131794329Y-137740135D01*
X131796000Y-137732452D01*
X131796000Y-136735116D01*
X131791525Y-136719877D01*
X131790135Y-136718672D01*
X131782452Y-136717001D01*
X131455331Y-136717001D01*
X131448510Y-136717371D01*
X131397648Y-136722895D01*
X131382396Y-136726521D01*
X131261946Y-136771676D01*
X131246351Y-136780214D01*
X131144276Y-136856715D01*
X131131715Y-136869276D01*
X131055214Y-136971351D01*
X131046676Y-136986946D01*
X131001522Y-137107394D01*
X130997895Y-137122649D01*
X130992369Y-137173514D01*
X130992000Y-137180328D01*
X130992000Y-137727885D01*
X128101827Y-137727885D01*
X128149348Y-137698478D01*
X128274305Y-137573303D01*
X128289613Y-137548469D01*
X128363275Y-137428968D01*
X128363276Y-137428966D01*
X128367115Y-137422738D01*
X128410594Y-137291652D01*
X128420632Y-137261389D01*
X128420632Y-137261387D01*
X128422797Y-137254861D01*
X128433500Y-137150400D01*
X128433500Y-135849600D01*
X128430809Y-135823662D01*
X128423238Y-135750692D01*
X128423237Y-135750688D01*
X128422526Y-135743834D01*
X128418407Y-135731486D01*
X128368868Y-135583002D01*
X128366550Y-135576054D01*
X128273478Y-135425652D01*
X128148303Y-135300695D01*
X128120963Y-135283842D01*
X128076964Y-135256721D01*
X128002660Y-135210919D01*
X127955168Y-135158148D01*
X127943744Y-135088076D01*
X127972018Y-135022952D01*
X127981805Y-135012490D01*
X128060885Y-134937051D01*
X128096135Y-134903424D01*
X128143907Y-134839217D01*
X128189602Y-134777800D01*
X128233754Y-134718458D01*
X128269025Y-134649086D01*
X128306493Y-134575391D01*
X128338240Y-134512949D01*
X128349158Y-134477790D01*
X128405024Y-134297871D01*
X128406607Y-134292773D01*
X128415074Y-134228887D01*
X128431158Y-134107539D01*
X128459937Y-134042637D01*
X128466971Y-134034999D01*
X128657054Y-133844916D01*
X128719366Y-133810890D01*
X128746149Y-133808011D01*
X146385829Y-133808011D01*
X146453950Y-133828013D01*
X146500443Y-133881669D01*
X146510547Y-133951943D01*
X146481053Y-134016523D01*
X146474924Y-134023106D01*
X141243435Y-139254595D01*
X141181123Y-139288621D01*
X141154340Y-139291500D01*
X139050305Y-139291500D01*
X138982184Y-139271498D01*
X138935691Y-139217842D01*
X138925587Y-139147568D01*
X138949479Y-139089935D01*
X138950000Y-139089240D01*
X139000615Y-139021705D01*
X139051745Y-138885316D01*
X139058500Y-138823134D01*
X139058500Y-138281394D01*
X139078502Y-138213273D01*
X139102054Y-138188339D01*
X139101001Y-138187169D01*
X139105913Y-138182746D01*
X139111253Y-138178866D01*
X139157016Y-138128041D01*
X139161557Y-138123256D01*
X139176072Y-138108741D01*
X139188994Y-138092784D01*
X139193278Y-138087769D01*
X139234619Y-138041855D01*
X139234623Y-138041850D01*
X139239040Y-138036944D01*
X139242340Y-138031228D01*
X139242343Y-138031224D01*
X139246073Y-138024763D01*
X139257273Y-138008466D01*
X139261975Y-138002660D01*
X139261976Y-138002658D01*
X139266129Y-137997530D01*
X139275041Y-137980041D01*
X139297188Y-137936574D01*
X139300336Y-137930777D01*
X139331224Y-137877277D01*
X139334527Y-137871556D01*
X139338876Y-137858172D01*
X139346438Y-137839915D01*
X139352830Y-137827370D01*
X139370537Y-137761288D01*
X139372409Y-137754969D01*
X139382831Y-137722895D01*
X139393542Y-137689928D01*
X139395014Y-137675925D01*
X139398615Y-137656496D01*
X139402257Y-137642903D01*
X139405836Y-137574616D01*
X139406353Y-137568042D01*
X139408156Y-137550884D01*
X139408156Y-137550882D01*
X139408500Y-137547610D01*
X139408500Y-137527074D01*
X139408673Y-137520480D01*
X139411907Y-137458782D01*
X139411907Y-137458777D01*
X139412252Y-137452190D01*
X139410051Y-137438292D01*
X139408500Y-137418583D01*
X139408500Y-136554216D01*
X139409190Y-136541045D01*
X139412814Y-136506565D01*
X139413504Y-136500000D01*
X139404235Y-136411811D01*
X139394232Y-136316635D01*
X139394232Y-136316633D01*
X139393542Y-136310072D01*
X139334527Y-136128444D01*
X139318241Y-136100235D01*
X139276630Y-136028163D01*
X139239040Y-135963056D01*
X139219654Y-135941525D01*
X139115675Y-135826045D01*
X139115674Y-135826044D01*
X139111253Y-135821134D01*
X138956752Y-135708882D01*
X138950724Y-135706198D01*
X138950722Y-135706197D01*
X138788319Y-135633891D01*
X138788318Y-135633891D01*
X138782288Y-135631206D01*
X138684780Y-135610480D01*
X138601944Y-135592872D01*
X138601939Y-135592872D01*
X138595487Y-135591500D01*
X138404513Y-135591500D01*
X138398061Y-135592872D01*
X138398056Y-135592872D01*
X138315220Y-135610480D01*
X138217712Y-135631206D01*
X138211682Y-135633891D01*
X138211681Y-135633891D01*
X138049278Y-135706197D01*
X138049276Y-135706198D01*
X138043248Y-135708882D01*
X137888747Y-135821134D01*
X137884326Y-135826044D01*
X137884325Y-135826045D01*
X137780347Y-135941525D01*
X137760960Y-135963056D01*
X137723370Y-136028163D01*
X137681760Y-136100235D01*
X137665473Y-136128444D01*
X137606458Y-136310072D01*
X137605768Y-136316633D01*
X137605768Y-136316635D01*
X137595765Y-136411811D01*
X137586496Y-136500000D01*
X137587186Y-136506565D01*
X137590810Y-136541045D01*
X137591500Y-136554216D01*
X137591500Y-136590500D01*
X137571498Y-136658621D01*
X137517842Y-136705114D01*
X137465500Y-136716500D01*
X137401866Y-136716500D01*
X137339684Y-136723255D01*
X137203295Y-136774385D01*
X137196110Y-136779770D01*
X137196108Y-136779771D01*
X137125565Y-136832640D01*
X137059058Y-136857488D01*
X136989676Y-136842435D01*
X136974435Y-136832640D01*
X136903892Y-136779771D01*
X136903890Y-136779770D01*
X136896705Y-136774385D01*
X136760316Y-136723255D01*
X136698134Y-136716500D01*
X135501866Y-136716500D01*
X135439684Y-136723255D01*
X135303295Y-136774385D01*
X135186739Y-136861739D01*
X135156906Y-136901545D01*
X135125826Y-136943015D01*
X135068967Y-136985530D01*
X134998148Y-136990556D01*
X134935855Y-136956496D01*
X134924174Y-136943015D01*
X134893094Y-136901545D01*
X134863261Y-136861739D01*
X134746705Y-136774385D01*
X134610316Y-136723255D01*
X134548134Y-136716500D01*
X133351866Y-136716500D01*
X133289684Y-136723255D01*
X133153295Y-136774385D01*
X133094910Y-136818142D01*
X133075148Y-136832953D01*
X133008642Y-136857801D01*
X132939259Y-136842748D01*
X132924018Y-136832953D01*
X132853648Y-136780214D01*
X132838054Y-136771676D01*
X132717606Y-136726522D01*
X132702351Y-136722895D01*
X132651486Y-136717369D01*
X132644672Y-136717000D01*
X132322115Y-136717000D01*
X132306876Y-136721475D01*
X132305671Y-136722865D01*
X132304000Y-136730548D01*
X132304000Y-139264884D01*
X132308475Y-139280123D01*
X132309865Y-139281328D01*
X132317548Y-139282999D01*
X132644669Y-139282999D01*
X132651490Y-139282629D01*
X132702352Y-139277105D01*
X132717604Y-139273479D01*
X132838054Y-139228324D01*
X132853648Y-139219786D01*
X132924018Y-139167047D01*
X132990524Y-139142199D01*
X133059907Y-139157252D01*
X133075148Y-139167047D01*
X133153295Y-139225615D01*
X133161704Y-139228767D01*
X133169575Y-139233077D01*
X133168664Y-139234741D01*
X133216490Y-139270663D01*
X133241193Y-139337224D01*
X133241500Y-139346009D01*
X133241500Y-140504338D01*
X133221498Y-140572459D01*
X133204597Y-140593432D01*
X133181872Y-140616158D01*
X133167317Y-140630713D01*
X133105005Y-140664739D01*
X133056125Y-140665666D01*
X133012912Y-140657969D01*
X132933372Y-140643800D01*
X132933368Y-140643800D01*
X132928284Y-140642894D01*
X132854452Y-140641992D01*
X132710081Y-140640228D01*
X132710079Y-140640228D01*
X132704911Y-140640165D01*
X132484091Y-140673955D01*
X132271756Y-140743357D01*
X132073607Y-140846507D01*
X132069474Y-140849610D01*
X132069471Y-140849612D01*
X131899100Y-140977530D01*
X131894965Y-140980635D01*
X131740629Y-141142138D01*
X131737720Y-141146403D01*
X131737714Y-141146411D01*
X131686153Y-141221997D01*
X131633204Y-141299618D01*
X131632898Y-141300066D01*
X131577987Y-141345069D01*
X131507462Y-141353240D01*
X131443715Y-141321986D01*
X131423018Y-141297502D01*
X131342426Y-141172926D01*
X131336136Y-141164757D01*
X131192806Y-141007240D01*
X131185273Y-141000215D01*
X131018139Y-140868222D01*
X131009552Y-140862517D01*
X130823117Y-140759599D01*
X130813705Y-140755369D01*
X130612959Y-140684280D01*
X130602988Y-140681646D01*
X130531837Y-140668972D01*
X130518540Y-140670432D01*
X130514000Y-140684989D01*
X130514000Y-142128000D01*
X130493998Y-142196121D01*
X130440342Y-142242614D01*
X130388000Y-142254000D01*
X130132000Y-142254000D01*
X130063879Y-142233998D01*
X130017386Y-142180342D01*
X130006000Y-142128000D01*
X130006000Y-140683102D01*
X130002082Y-140669758D01*
X129987806Y-140667771D01*
X129949324Y-140673660D01*
X129939288Y-140676051D01*
X129736868Y-140742212D01*
X129727359Y-140746209D01*
X129538463Y-140844542D01*
X129529738Y-140850036D01*
X129359433Y-140977905D01*
X129351726Y-140984748D01*
X129274478Y-141065584D01*
X129212954Y-141101014D01*
X129142042Y-141097557D01*
X129084255Y-141056311D01*
X129065402Y-141022763D01*
X129023767Y-140911703D01*
X129020615Y-140903295D01*
X128933261Y-140786739D01*
X128816705Y-140699385D01*
X128680316Y-140648255D01*
X128618134Y-140641500D01*
X126821866Y-140641500D01*
X126759684Y-140648255D01*
X126623295Y-140699385D01*
X126506739Y-140786739D01*
X126419385Y-140903295D01*
X126368255Y-141039684D01*
X126361500Y-141101866D01*
X126361500Y-142898134D01*
X126368255Y-142960316D01*
X126419385Y-143096705D01*
X126506739Y-143213261D01*
X126513919Y-143218642D01*
X126513920Y-143218643D01*
X126575339Y-143264674D01*
X126617854Y-143321533D01*
X126622880Y-143392352D01*
X126588820Y-143454645D01*
X126526489Y-143488635D01*
X126499774Y-143491500D01*
X124634500Y-143491500D01*
X124566379Y-143471498D01*
X124519886Y-143417842D01*
X124508500Y-143365500D01*
X124508500Y-138819669D01*
X130992001Y-138819669D01*
X130992371Y-138826490D01*
X130997895Y-138877352D01*
X131001521Y-138892604D01*
X131046676Y-139013054D01*
X131055214Y-139028649D01*
X131131715Y-139130724D01*
X131144276Y-139143285D01*
X131246351Y-139219786D01*
X131261946Y-139228324D01*
X131382394Y-139273478D01*
X131397649Y-139277105D01*
X131448514Y-139282631D01*
X131455328Y-139283000D01*
X131777885Y-139283000D01*
X131793124Y-139278525D01*
X131794329Y-139277135D01*
X131796000Y-139269452D01*
X131796000Y-138272115D01*
X131791525Y-138256876D01*
X131790135Y-138255671D01*
X131782452Y-138254000D01*
X131010116Y-138254000D01*
X130994877Y-138258475D01*
X130993672Y-138259865D01*
X130992001Y-138267548D01*
X130992001Y-138819669D01*
X124508500Y-138819669D01*
X124508500Y-112634500D01*
X124528502Y-112566379D01*
X124582158Y-112519886D01*
X124634500Y-112508500D01*
X193365500Y-112508500D01*
X193433621Y-112528502D01*
G37*
%TD.AperFunction*%
%TD*%
M02*
